<?xml version="1.0" standalone="no"?>
<!DOCTYPE svg PUBLIC "-//W3C//DTD SVG 20010904//EN"
 "http://www.w3.org/TR/2001/REC-SVG-20010904/DTD/svg10.dtd">
<svg version="1.0" xmlns="http://www.w3.org/2000/svg"
 width="3304.000000pt" height="842.000000pt" viewBox="0 0 3304.000000 842.000000"
 preserveAspectRatio="xMidYMid meet">

<g transform="translate(0.000000,842.000000) scale(0.100000,-0.100000)"
fill="#000000" stroke="none">
<path d="M3830 7084 c-19 -2 -80 -13 -135 -24 -55 -11 -156 -24 -225 -29 -89
-7 -136 -15 -165 -29 -22 -11 -72 -22 -113 -26 -51 -4 -83 -12 -103 -27 -16
-11 -56 -24 -89 -29 -34 -5 -71 -17 -86 -29 -14 -11 -42 -23 -63 -27 -20 -4
-60 -20 -90 -35 -30 -16 -61 -29 -70 -29 -10 0 -32 -11 -51 -25 -19 -14 -41
-25 -50 -25 -10 0 -32 -11 -51 -24 -19 -14 -56 -36 -84 -50 -27 -14 -61 -34
-75 -43 -14 -10 -41 -27 -59 -38 -64 -38 -198 -136 -325 -236 -167 -133 -493
-507 -565 -648 -12 -22 -25 -42 -30 -46 -10 -5 -15 -14 -64 -107 -14 -26 -34
-59 -46 -74 -11 -15 -25 -43 -31 -64 -6 -21 -17 -43 -25 -50 -8 -7 -21 -33
-29 -59 -7 -25 -23 -62 -34 -81 -11 -19 -23 -51 -27 -70 -4 -19 -18 -53 -30
-75 -12 -22 -25 -61 -28 -86 -4 -26 -18 -68 -32 -94 -18 -34 -25 -63 -25 -102
0 -35 -9 -75 -25 -114 -20 -47 -27 -84 -31 -162 -3 -56 -15 -154 -27 -217 -29
-155 -29 -335 0 -485 12 -60 24 -158 27 -217 4 -81 10 -119 26 -155 12 -27 26
-83 30 -126 6 -49 16 -90 29 -111 12 -18 24 -55 27 -82 4 -27 15 -64 25 -82
11 -19 29 -62 40 -95 11 -34 26 -69 33 -77 8 -8 16 -30 19 -48 4 -18 18 -49
32 -70 14 -20 25 -44 25 -52 0 -8 12 -33 27 -55 15 -22 38 -60 51 -85 13 -25
37 -64 53 -88 16 -24 36 -57 45 -73 14 -29 68 -103 96 -134 7 -8 24 -30 38
-50 100 -146 354 -407 485 -500 39 -27 103 -76 144 -108 41 -33 84 -62 95 -67
12 -4 52 -28 89 -53 38 -25 78 -49 90 -53 12 -4 36 -17 52 -29 17 -12 45 -27
63 -33 18 -6 45 -20 59 -32 14 -11 33 -20 42 -20 9 0 43 -14 76 -30 33 -16 67
-30 76 -30 9 0 41 -13 72 -30 34 -18 72 -30 93 -30 21 0 55 -10 78 -24 26 -15
66 -26 111 -31 39 -4 93 -17 120 -30 39 -18 75 -24 165 -28 63 -4 162 -16 220
-27 147 -30 336 -30 485 0 61 12 164 25 230 29 92 6 129 12 160 28 22 12 72
24 110 28 43 4 85 16 110 30 22 12 64 25 93 27 29 3 60 13 71 22 11 10 41 24
67 32 26 8 62 23 80 34 19 10 50 22 69 26 20 3 48 16 63 29 15 12 41 25 57 29
17 4 44 17 60 30 17 12 44 27 60 35 17 7 60 32 96 57 36 24 70 44 76 44 6 0
49 30 95 66 45 37 110 85 143 107 87 59 410 386 470 477 50 75 60 88 110 145
15 17 33 44 40 61 8 17 32 59 55 92 22 34 45 74 52 89 7 15 22 41 35 56 12 15
27 45 33 66 5 21 17 44 25 51 8 7 22 37 31 66 8 30 19 56 24 59 5 3 19 35 30
71 11 36 29 77 40 91 13 17 20 41 20 68 0 26 10 60 26 91 17 31 28 71 31 109
2 33 15 85 28 115 18 41 25 82 30 165 3 61 16 160 27 220 30 153 30 351 1 500
-12 61 -24 160 -28 220 -5 85 -12 122 -31 164 -15 34 -24 72 -24 105 0 37 -8
68 -30 111 -18 37 -30 76 -30 101 0 27 -8 51 -24 73 -13 18 -27 49 -31 69 -3
20 -17 56 -31 79 -13 23 -24 50 -24 61 0 11 -12 37 -26 58 -15 21 -31 53 -36
71 -5 18 -19 45 -31 60 -13 15 -29 42 -36 58 -7 17 -32 60 -57 96 -24 36 -44
70 -44 76 0 6 -30 49 -66 95 -37 45 -74 94 -82 108 -69 108 -370 414 -483 491
-35 23 -99 71 -142 106 -44 35 -85 63 -92 63 -8 0 -26 10 -42 23 -29 23 -45
33 -123 77 -25 14 -61 35 -80 47 -19 13 -42 23 -51 23 -8 0 -30 11 -49 25 -19
14 -41 25 -51 25 -9 0 -40 13 -70 29 -30 15 -70 31 -90 35 -21 4 -49 16 -63
27 -15 12 -51 24 -84 29 -31 4 -73 17 -93 29 -22 13 -62 24 -100 27 -35 3 -84
15 -109 26 -31 14 -83 23 -170 29 -69 5 -167 18 -218 29 -91 20 -290 33 -362
24z m1575 -839 c75 -43 127 -88 192 -164 21 -24 50 -56 66 -72 15 -17 27 -36
27 -45 0 -8 11 -47 25 -86 32 -93 32 -140 -5 -268 l-30 -104 -84 -81 c-82 -78
-136 -125 -186 -164 -31 -24 -22 -35 22 -27 22 4 57 28 103 71 38 36 77 67 87
71 10 3 36 -5 59 -19 40 -24 55 -44 120 -162 12 -22 27 -44 34 -50 27 -24 67
-88 79 -129 8 -25 22 -57 33 -73 11 -15 23 -41 27 -58 4 -16 18 -46 31 -65 12
-19 26 -57 30 -85 4 -27 17 -70 30 -95 13 -28 24 -72 28 -115 3 -39 16 -95 28
-125 22 -53 23 -66 24 -340 0 -266 -2 -290 -22 -360 -12 -41 -25 -106 -29
-145 -4 -43 -15 -88 -30 -118 -14 -26 -27 -75 -31 -110 -3 -35 -16 -82 -29
-107 -13 -25 -24 -53 -24 -62 0 -10 -13 -32 -29 -51 -16 -18 -33 -46 -37 -63
-3 -16 -15 -38 -25 -49 -10 -11 -27 -40 -39 -65 -71 -152 -278 -388 -509 -580
-57 -47 -113 -95 -126 -106 -35 -32 -110 -81 -137 -89 -12 -4 -41 -20 -62 -36
-22 -16 -48 -29 -58 -29 -9 0 -33 -13 -51 -30 -19 -16 -41 -30 -49 -30 -9 0
-40 -13 -71 -30 -40 -21 -71 -30 -104 -30 -33 -1 -67 -10 -108 -30 -44 -23
-74 -30 -115 -30 -31 0 -101 -12 -155 -27 -95 -26 -111 -27 -330 -27 -219 0
-235 1 -330 27 -54 15 -124 27 -155 27 -41 0 -70 8 -115 30 -43 21 -74 30
-111 30 -38 0 -61 6 -87 25 -20 13 -55 29 -77 35 -22 6 -51 21 -65 34 -14 13
-38 27 -53 31 -15 4 -34 12 -42 20 -8 7 -51 32 -95 55 -55 29 -106 67 -165
124 -47 45 -103 95 -125 111 -70 53 -136 118 -193 190 -31 39 -91 106 -134
150 -46 47 -83 94 -89 115 -6 19 -19 44 -29 55 -9 11 -38 60 -64 109 -26 49
-56 100 -67 114 -10 14 -19 39 -19 57 0 18 -11 53 -25 80 -15 28 -28 72 -31
109 -4 38 -16 78 -31 104 -22 38 -26 62 -33 180 -5 88 -14 153 -25 182 -10 25
-19 87 -22 140 -5 79 -1 111 17 180 14 54 25 134 30 221 6 119 10 141 32 180
17 28 28 67 33 110 4 48 13 77 31 100 13 19 24 47 24 65 0 20 11 45 29 68 16
20 32 50 36 66 3 16 13 35 22 42 9 7 27 36 40 63 55 116 95 172 218 312 120
136 165 182 345 350 86 81 108 98 155 117 22 9 49 25 60 35 11 10 35 23 53 29
19 6 47 23 64 37 16 14 36 25 43 25 7 0 26 11 42 24 15 13 48 27 73 31 25 4
63 17 85 30 23 13 66 25 102 28 35 4 84 17 110 31 40 20 67 25 168 29 68 3
138 12 161 20 116 42 256 44 429 5 50 -11 135 -22 190 -25 81 -4 108 -10 142
-30 24 -13 65 -26 93 -28 27 -2 55 -7 60 -10 6 -3 10 -28 10 -54 0 -35 -5 -53
-20 -66 -27 -24 -38 -71 -31 -125 l6 -44 18 39 c9 22 21 61 26 87 5 30 20 61
40 85 18 21 46 54 62 73 74 88 175 162 244 181 17 4 95 7 175 6 140 -2 147 -4
195 -32z"/>
<path d="M4622 5782 c-11 -20 -11 -31 2 -69 9 -26 16 -74 16 -107 0 -63 15
-94 82 -174 15 -18 28 -41 28 -52 0 -12 16 -30 38 -45 64 -43 86 -59 115 -82
29 -23 87 -32 87 -13 0 5 -18 21 -39 36 -22 14 -42 32 -45 40 -3 8 -21 21 -40
30 -19 9 -40 27 -47 40 -7 13 -16 24 -20 24 -4 0 -30 27 -57 59 -38 46 -51 71
-57 108 -4 26 -14 64 -23 83 -8 19 -18 60 -21 90 -6 52 -7 54 -19 32z"/>
<path d="M5030 5221 c0 -14 43 -38 88 -50 35 -10 42 -16 47 -44 37 -221 59
-454 48 -497 -3 -12 -22 -29 -42 -40 -20 -10 -56 -39 -80 -64 -38 -39 -45 -53
-52 -103 -14 -96 -1 -162 37 -206 21 -23 34 -47 34 -65 0 -38 -19 -102 -30
-102 -13 0 -40 -55 -40 -82 0 -27 -148 -191 -238 -264 l-56 -46 -112 4 c-100
3 -115 5 -136 25 -13 13 -39 28 -58 34 -19 7 -61 32 -94 56 -32 25 -77 53
-100 64 -22 10 -68 39 -101 63 -33 25 -64 45 -69 45 -4 1 -25 15 -45 32 -20
17 -50 43 -67 57 -18 15 -55 41 -84 57 -28 17 -65 41 -81 54 -16 12 -50 29
-76 37 -26 8 -55 21 -64 30 -10 9 -40 20 -66 25 -26 5 -61 19 -77 30 -19 15
-49 23 -92 27 -59 4 -68 2 -158 -42 -52 -25 -98 -50 -101 -56 -11 -17 -75 -11
-102 10 -32 25 -50 25 -88 0 -16 -11 -36 -20 -43 -20 -42 0 -80 -33 -110 -94
-42 -84 -42 -134 -1 -222 45 -94 64 -104 205 -101 94 2 116 6 133 21 12 11 21
24 21 31 0 6 14 24 30 40 28 27 30 34 30 99 -1 39 -7 89 -15 111 -17 47 -19
81 -5 90 6 3 53 11 106 16 132 14 247 0 298 -35 21 -14 46 -26 56 -26 9 0 34
-13 56 -30 21 -16 44 -30 50 -30 14 0 105 -60 124 -81 8 -10 60 -48 115 -85
55 -37 114 -80 132 -95 17 -15 42 -30 55 -34 23 -8 63 -36 103 -74 27 -25 59
-41 85 -41 12 0 42 -12 67 -27 44 -25 54 -27 178 -27 l133 -1 58 40 c84 58
211 192 221 235 3 14 13 34 23 45 10 11 23 37 29 57 7 20 18 42 26 48 8 6 19
28 26 48 15 50 16 50 84 63 33 6 65 14 70 19 6 4 22 10 36 13 14 4 45 27 68
52 33 36 41 53 43 87 3 66 -2 130 -13 164 -9 29 -81 98 -140 136 l-26 16 -7
194 c-3 106 -11 216 -18 244 -15 71 -6 94 47 127 25 16 45 33 45 38 0 5 -71 9
-160 9 -88 0 -160 -4 -160 -9z"/>
<path d="M8625 4936 c-29 -30 -38 -74 -33 -170 2 -56 9 -82 24 -103 l21 -28
469 -5 469 -5 56 -38 c69 -47 93 -78 115 -152 21 -75 21 -136 0 -208 -21 -72
-65 -122 -142 -162 l-59 -30 -450 -5 c-247 -3 -456 -9 -464 -14 -38 -24 -41
-63 -41 -465 l0 -390 24 -28 c24 -27 27 -28 145 -31 l121 -4 30 30 30 30 0
256 c0 254 0 256 23 270 17 12 80 15 307 18 276 4 288 5 385 32 55 16 127 43
160 62 133 74 235 194 254 300 6 32 18 81 26 108 22 71 19 160 -10 290 -19 88
-33 128 -61 173 -72 115 -175 201 -292 244 -124 46 -153 49 -630 49 l-453 0
-24 -24z"/>
<path d="M11378 4948 c-19 -17 -68 -102 -68 -121 0 -8 -13 -39 -30 -70 -16
-31 -30 -63 -30 -70 0 -8 -13 -39 -30 -70 -16 -31 -30 -63 -30 -70 0 -8 -11
-34 -23 -58 -13 -24 -30 -62 -37 -84 -7 -22 -24 -60 -37 -84 -12 -24 -23 -50
-23 -56 0 -7 -13 -39 -30 -70 -16 -31 -30 -64 -30 -74 0 -9 -12 -34 -25 -56
-14 -22 -25 -47 -25 -56 0 -9 -13 -41 -30 -72 -16 -31 -30 -62 -30 -69 0 -7
-14 -39 -31 -71 -16 -32 -33 -79 -36 -105 -5 -42 -2 -52 20 -78 25 -29 27 -29
145 -32 74 -2 128 1 140 7 21 11 70 98 91 161 6 19 22 57 36 84 14 27 25 55
25 62 0 6 14 38 30 69 17 31 30 64 30 74 0 9 12 34 25 56 14 22 25 47 25 56 0
9 11 36 23 60 13 24 32 67 41 96 19 56 64 113 89 113 20 0 47 -38 47 -65 0
-11 9 -39 20 -60 12 -22 29 -62 39 -90 10 -27 35 -88 56 -135 21 -47 45 -108
55 -137 10 -28 25 -62 33 -75 8 -12 20 -41 27 -63 7 -22 24 -60 37 -84 12 -24
23 -50 23 -58 0 -7 14 -39 30 -70 38 -71 40 -126 6 -148 -22 -15 -89 -16 -601
-14 l-576 2 -29 -28 c-17 -16 -39 -52 -50 -81 -10 -29 -28 -70 -40 -91 -29
-54 -26 -86 11 -117 17 -14 38 -26 47 -26 9 0 398 0 865 0 766 0 850 1 872 16
57 38 46 99 -60 319 -13 28 -29 66 -35 85 -5 19 -21 57 -35 84 -14 27 -25 57
-25 65 0 9 -12 34 -25 56 -14 22 -25 47 -25 56 0 9 -11 36 -23 60 -13 24 -30
62 -37 84 -7 22 -24 60 -37 84 -12 24 -23 50 -23 58 0 7 -13 39 -30 70 -16 31
-30 63 -30 72 0 9 -10 32 -21 51 -12 19 -28 57 -36 85 -8 27 -21 57 -28 65 -7
8 -18 33 -25 55 -7 22 -21 56 -31 75 -10 19 -25 53 -33 75 -22 62 -65 165 -91
220 -13 28 -27 62 -31 78 -3 15 -18 36 -31 47 -23 18 -41 20 -172 20 -103 0
-152 -4 -163 -12z"/>
<path d="M13150 4931 c-29 -29 -30 -31 -30 -135 0 -96 2 -107 24 -133 l24 -28
479 -5 478 -5 62 -42 c44 -31 72 -60 100 -105 36 -59 38 -68 38 -143 0 -76 -2
-82 -35 -123 -61 -77 -118 -111 -202 -122 -40 -5 -263 -10 -496 -10 l-423 0
-24 -25 -25 -24 0 -435 c0 -239 3 -442 6 -451 13 -33 59 -45 174 -45 104 0
112 1 135 25 l25 24 0 276 0 276 25 24 c24 25 25 25 222 25 109 0 208 -3 220
-6 20 -6 98 -114 197 -274 128 -206 227 -350 246 -360 13 -7 75 -12 151 -12
115 -1 133 1 157 19 48 35 41 56 -73 227 -50 74 -135 207 -172 266 -15 25 -44
68 -65 97 -21 29 -38 63 -38 77 0 25 44 66 104 96 63 32 144 125 187 214 l42
86 -1 158 c0 86 -5 171 -11 187 -69 205 -174 316 -373 396 l-83 34 -508 3
-507 3 -30 -30z"/>
<path d="M16000 4931 c-16 -16 -32 -41 -36 -57 -4 -16 -20 -54 -35 -84 -16
-30 -29 -62 -29 -70 0 -8 -10 -33 -21 -55 -12 -22 -28 -58 -35 -80 -8 -22 -23
-58 -34 -80 -43 -91 -94 -210 -139 -325 -10 -25 -28 -63 -39 -85 -12 -22 -22
-46 -22 -53 0 -7 -11 -35 -25 -62 -13 -27 -31 -66 -39 -87 -7 -21 -30 -76 -50
-123 -20 -46 -36 -92 -36 -102 0 -10 13 -32 29 -50 l29 -33 125 0 c119 0 127
1 151 24 14 14 26 30 26 36 0 6 11 34 25 61 14 27 30 65 37 84 6 19 22 55 35
79 12 24 23 50 23 57 0 8 13 42 29 76 16 35 40 90 54 123 14 33 39 90 56 128
17 37 33 83 37 102 3 18 14 41 24 50 17 16 21 16 49 -1 29 -17 61 -67 61 -96
0 -7 11 -33 24 -58 13 -25 29 -63 36 -85 7 -22 24 -60 37 -84 12 -24 23 -51
23 -59 0 -8 11 -35 24 -61 27 -51 59 -130 86 -206 10 -28 27 -66 39 -85 11
-19 21 -42 21 -50 0 -8 7 -28 16 -45 40 -74 44 -85 39 -108 -4 -13 -18 -30
-32 -36 -19 -9 -181 -11 -600 -11 -641 2 -610 5 -639 -68 -8 -20 -23 -53 -33
-72 -33 -60 -44 -118 -30 -152 6 -16 20 -33 30 -38 11 -7 340 -10 880 -10 816
-1 863 0 893 18 45 26 48 81 7 158 -17 31 -31 64 -31 73 0 9 -12 34 -25 56
-14 22 -25 47 -25 56 0 8 -11 38 -25 65 -14 27 -30 65 -36 84 -6 19 -20 51
-30 70 -10 19 -25 53 -33 75 -19 55 -63 161 -86 210 -42 87 -90 203 -90 216 0
8 -12 32 -25 54 -14 22 -25 47 -25 56 0 9 -13 41 -30 72 -16 31 -30 63 -30 70
0 8 -11 34 -23 58 -13 24 -30 62 -37 84 -7 22 -24 60 -37 84 -12 24 -23 51
-23 59 0 8 -11 35 -24 61 -14 25 -32 68 -41 94 -9 26 -28 61 -42 77 l-25 30
-150 0 -150 0 -28 -29z"/>
<path d="M17785 4935 c-24 -23 -25 -31 -25 -134 0 -135 7 -156 57 -170 24 -7
195 -11 461 -11 l423 0 57 -29 c31 -16 67 -40 79 -53 31 -33 46 -117 33 -188
-8 -46 -17 -61 -52 -93 -24 -21 -53 -42 -66 -47 -14 -6 -206 -10 -467 -10
-323 0 -451 -3 -470 -12 -43 -19 -55 -56 -55 -166 0 -83 3 -104 19 -123 l19
-24 479 -5 478 -5 74 -40 c96 -52 133 -101 138 -183 4 -50 0 -63 -29 -112 -26
-42 -45 -61 -83 -80 l-50 -25 -470 -2 c-258 -1 -480 -2 -492 -3 -12 0 -35 -12
-52 -26 l-31 -26 0 -118 0 -118 31 -26 c17 -14 40 -26 52 -26 12 -1 209 -1
437 0 368 0 429 3 540 21 86 14 143 29 185 50 33 16 65 29 72 29 6 0 44 33 85
73 58 58 79 88 101 143 41 101 46 128 47 240 0 101 0 103 -45 193 -33 66 -62
106 -105 147 -32 32 -61 65 -63 75 -3 10 16 48 44 91 27 40 51 87 53 103 3 17
10 63 16 102 9 56 9 94 0 165 -11 79 -18 103 -54 163 -22 38 -71 99 -108 136
-56 57 -79 71 -150 98 -45 18 -105 37 -132 42 -27 5 -253 9 -503 9 l-454 0
-24 -25z"/>
<path d="M20630 4939 c-30 -11 -81 -27 -112 -35 -44 -11 -81 -32 -155 -88
-116 -87 -155 -125 -215 -203 -62 -83 -111 -174 -146 -279 -27 -76 -32 -111
-38 -225 -11 -234 15 -396 82 -519 7 -14 24 -45 37 -70 72 -141 252 -308 381
-355 249 -92 285 -98 319 -53 23 31 30 86 21 181 -6 61 -10 73 -43 106 -29 31
-46 40 -86 45 -86 12 -209 108 -259 199 -77 144 -96 191 -107 260 -37 238 54
485 227 616 38 28 73 51 80 51 26 0 164 72 175 91 19 36 21 195 2 240 -25 64
-66 74 -163 38z"/>
<path d="M21042 4953 c-29 -12 -42 -62 -42 -168 0 -59 5 -115 11 -126 11 -21
143 -89 172 -89 27 0 162 -122 199 -180 70 -109 88 -155 103 -268 20 -156 4
-280 -49 -377 -22 -38 -49 -90 -62 -115 -21 -42 -77 -96 -150 -148 -18 -12
-58 -28 -91 -36 -33 -7 -69 -18 -80 -24 -38 -21 -53 -72 -53 -185 0 -90 3
-108 21 -131 11 -14 30 -26 42 -26 19 0 109 26 182 52 17 6 54 19 84 30 29 10
78 38 108 61 31 23 65 48 77 56 94 64 187 194 270 381 27 58 57 245 58 355 0
104 -30 295 -57 355 -13 30 -31 71 -40 90 -44 100 -131 209 -236 297 -114 94
-187 143 -214 143 -13 0 -57 14 -98 30 -70 28 -123 36 -155 23z"/>
<path d="M22625 4948 c-11 -6 -23 -16 -27 -22 -4 -6 -8 -410 -8 -898 0 -792 2
-888 16 -902 24 -24 53 -28 173 -24 90 2 114 6 128 21 17 17 18 67 21 855 2
460 0 861 -3 890 -10 85 -23 92 -162 92 -69 0 -126 -5 -138 -12z"/>
<path d="M25110 4940 c-11 -11 -20 -26 -20 -32 0 -7 -14 -40 -30 -73 -17 -33
-30 -66 -30 -74 0 -8 -11 -33 -24 -55 -13 -23 -28 -57 -35 -76 -6 -19 -22 -57
-36 -84 -14 -27 -25 -55 -25 -62 0 -6 -11 -32 -25 -55 -14 -24 -25 -51 -25
-60 0 -9 -13 -41 -30 -72 -16 -31 -30 -62 -30 -68 0 -7 -11 -35 -25 -63 -13
-28 -40 -89 -60 -136 -51 -121 -84 -196 -117 -267 -64 -139 -24 -183 168 -183
l107 0 33 35 c18 20 38 55 45 78 6 23 22 61 35 84 13 23 24 48 24 56 0 8 11
34 23 58 13 24 30 62 37 84 7 22 24 60 37 84 12 24 23 51 23 60 1 9 14 41 30
71 17 30 30 60 30 66 0 6 15 45 34 86 51 112 70 112 121 1 19 -42 35 -81 35
-87 0 -6 13 -36 30 -66 16 -30 29 -62 30 -70 0 -8 14 -42 30 -75 16 -33 30
-67 30 -75 0 -8 11 -33 25 -55 13 -22 25 -47 25 -56 0 -8 11 -37 24 -65 14
-27 34 -71 44 -99 11 -27 36 -88 56 -135 20 -46 33 -92 30 -102 -11 -36 -68
-39 -643 -37 -384 1 -565 -2 -579 -10 -25 -13 -67 -85 -94 -159 -33 -95 -34
-113 0 -145 l29 -28 862 1 c497 0 869 4 879 9 35 19 55 49 49 78 -8 40 -45
143 -61 167 -7 12 -19 39 -26 61 -7 22 -23 60 -36 85 -13 25 -24 51 -24 58 0
7 -13 39 -30 72 -16 33 -30 65 -30 72 0 7 -14 40 -30 73 -17 33 -30 66 -30 73
0 7 -11 32 -24 55 -13 23 -29 60 -36 82 -7 22 -21 53 -31 70 -11 16 -19 37
-19 46 0 9 -13 41 -30 72 -16 31 -30 63 -30 70 0 8 -13 39 -30 70 -16 31 -30
62 -30 69 0 7 -14 40 -30 73 -16 33 -30 66 -30 73 0 7 -13 38 -30 69 -16 31
-30 63 -30 72 0 9 -8 30 -19 46 -10 17 -24 48 -31 70 -23 71 -79 183 -96 189
-8 3 -83 6 -165 6 -136 0 -151 -2 -169 -20z"/>
<path d="M27473 4928 c-17 -18 -43 -53 -58 -77 -15 -24 -66 -102 -114 -174
-47 -71 -99 -151 -116 -177 -16 -27 -51 -79 -76 -117 -25 -37 -99 -149 -164
-248 -64 -99 -126 -191 -136 -205 -55 -74 -70 -121 -72 -221 -1 -84 1 -100 18
-119 44 -49 52 -50 415 -50 327 0 341 -1 360 -20 18 -18 20 -33 20 -170 0
-161 10 -209 48 -229 22 -12 219 -15 247 -5 38 15 49 62 46 209 -3 189 4 204
101 220 21 3 51 17 68 31 30 25 30 27 30 123 0 70 -4 102 -15 118 -16 23 -70
43 -116 43 -14 0 -34 9 -45 21 -18 20 -19 45 -21 503 -1 264 -4 495 -8 513
-10 57 -30 63 -215 63 l-166 0 -31 -32z m65 -550 c9 -9 12 -77 12 -244 0 -206
-2 -234 -17 -253 -17 -21 -27 -22 -175 -23 -116 -1 -161 2 -172 11 -31 26 -29
30 117 242 32 46 80 118 106 159 76 117 100 137 129 108z"/>
<path d="M29225 4950 c-112 -33 -171 -66 -245 -140 -130 -129 -208 -309 -230
-525 -27 -264 -10 -616 35 -727 14 -34 25 -67 25 -73 0 -16 67 -143 94 -177
12 -15 31 -41 44 -57 44 -57 153 -118 269 -151 169 -47 183 -47 329 -10 130
32 189 60 264 123 45 39 139 164 147 196 3 15 16 47 29 72 12 25 27 72 33 105
6 32 18 84 27 114 21 69 32 466 15 550 -23 124 -64 286 -76 310 -7 14 -24 48
-36 75 -27 59 -197 234 -244 251 -16 6 -61 24 -100 39 -62 25 -85 28 -210 31
-77 2 -153 -1 -170 -6z m308 -364 c70 -34 121 -97 142 -175 9 -31 22 -76 31
-101 36 -99 36 -473 0 -580 -8 -25 -17 -66 -21 -92 -10 -76 -74 -155 -166
-203 -65 -34 -83 -39 -144 -39 -63 -1 -75 2 -116 31 -52 36 -107 105 -115 143
-3 14 -17 54 -31 90 -21 55 -26 90 -34 229 -5 97 -5 219 1 300 7 117 13 148
41 216 46 115 92 165 184 198 71 25 156 19 228 -17z"/>
<path d="M31423 4924 c-18 -20 -43 -53 -54 -73 -11 -20 -31 -52 -44 -71 -52
-75 -67 -98 -123 -185 -32 -49 -67 -103 -78 -119 -10 -16 -30 -45 -44 -66 -14
-21 -34 -50 -44 -66 -11 -16 -43 -65 -71 -109 -28 -44 -58 -90 -66 -102 -49
-74 -116 -174 -141 -210 -55 -80 -68 -121 -68 -216 0 -100 6 -117 54 -146 32
-20 46 -21 378 -21 338 0 345 0 364 -21 17 -19 19 -39 21 -163 1 -77 2 -151 2
-164 1 -13 14 -37 30 -53 29 -28 32 -29 136 -29 58 0 115 5 127 11 38 20 48
68 48 228 0 142 1 151 22 171 12 11 35 20 51 20 16 0 47 10 68 22 50 28 63 67
56 166 -7 94 -26 118 -103 128 -97 12 -88 -37 -94 542 l-5 510 -24 26 c-24 26
-25 26 -194 26 l-170 0 -34 -36z m77 -560 c13 -34 13 -409 -1 -456 -12 -47
-16 -48 -199 -51 -128 -2 -147 0 -163 16 -27 27 -13 56 99 207 23 30 49 69 58
85 9 17 39 61 66 100 28 38 50 75 50 82 0 16 39 43 62 43 11 0 23 -11 28 -26z"/>
<path d="M23204 3421 c-10 -1 -34 -14 -51 -28 l-33 -24 0 -115 0 -114 33 -20
c30 -19 51 -20 343 -20 390 0 364 -11 364 155 l0 113 -31 26 c-17 14 -36 26
-42 26 -69 3 -568 4 -583 1z"/>
</g>
</svg>
