<svg xmlns="http://www.w3.org/2000/svg" width="3304" height="842" viewBox="0 0 3304 842" version="1.1"><path d="M 362 129 C 348.483 129.899, 326.117 134.438, 305.500 140.468 C 266.393 151.904, 226.948 173.309, 196.107 199.829 C 151.833 237.901, 124.990 276.875, 103.136 334.814 C 101.411 339.387, 100.009 343.662, 100.020 344.314 C 100.031 344.966, 98.713 350, 97.091 355.500 C 95.470 361, 93.157 370.675, 91.953 377 C 90.748 383.325, 89.270 390.975, 88.669 394 C 87.200 401.386, 87.200 469.614, 88.669 477 C 89.270 480.025, 90.748 487.675, 91.953 494 C 93.839 503.905, 96.744 515.334, 100.849 529 C 110.896 562.450, 132.920 603.027, 155.942 630.500 C 179.373 658.462, 206.067 681.613, 235.402 699.411 C 255.446 711.572, 284.557 724.508, 304 729.893 C 307.575 730.883, 313.875 732.637, 318 733.791 C 335.774 738.762, 351.208 741.153, 372.687 742.263 C 412.318 744.313, 445.037 741.254, 473.136 732.874 C 478.435 731.293, 483.469 730, 484.322 730 C 487.892 730, 513.527 719.709, 530 711.662 C 581.189 686.657, 624.763 647.034, 655.785 597.285 C 663.028 585.669, 673.307 565.610, 677.927 554.077 C 684.077 538.725, 688 527.978, 688 526.485 C 688 525.723, 689.311 520.914, 690.913 515.799 C 692.515 510.685, 695.326 498.850, 697.160 489.500 L 700.493 472.500 700.497 435.500 L 700.500 398.500 697.129 381.500 C 694.023 365.834, 692.569 360.114, 687.091 342 C 675.958 305.189, 654.148 265.918, 628.091 235.765 C 605.621 209.763, 581.474 189.058, 554.389 172.569 C 544.185 166.358, 522.130 154.873, 514.500 151.798 C 504.333 147.701, 490.314 142.736, 484 140.997 C 480.425 140.012, 475.662 138.531, 473.415 137.706 C 471.169 136.881, 466.106 135.705, 462.165 135.094 C 458.224 134.482, 451.062 133.060, 446.250 131.932 C 431.143 128.394, 391.739 127.023, 362 129 M 513 221.602 C 511.075 222.440, 506.655 223.724, 503.178 224.456 C 499.702 225.187, 495.877 226.682, 494.678 227.778 C 493.480 228.874, 491.476 230.081, 490.223 230.461 C 488.971 230.841, 487.181 232.355, 486.245 233.826 C 485.309 235.297, 482.286 239.425, 479.528 243 C 474.621 249.360, 474.499 249.684, 473.911 258 C 473.580 262.675, 473.614 270.641, 473.986 275.703 C 474.560 283.509, 475.097 285.558, 477.522 289.203 C 481.459 295.118, 489.110 303, 490.915 303 C 491.734 303, 493.776 304.305, 495.452 305.900 C 498.952 309.231, 511.729 313.183, 519 313.183 C 526.271 313.183, 539.048 309.231, 542.548 305.900 C 544.224 304.305, 546.296 303, 547.153 303 C 548.009 303, 550.913 300.564, 553.605 297.586 C 563.144 287.035, 563.306 286.701, 564.025 276.118 C 565.027 261.358, 563.971 249.679, 561.377 246.830 C 560.209 245.549, 557.330 241.647, 554.978 238.161 C 552.627 234.674, 549.532 231.317, 548.101 230.700 C 546.671 230.083, 544.294 228.604, 542.821 227.413 C 541.347 226.222, 537.999 224.927, 535.380 224.534 C 532.761 224.141, 528.437 222.961, 525.772 221.910 C 519.995 219.633, 517.653 219.576, 513 221.602 M 373 230.987 C 365.222 231.498, 358.234 232.561, 354.500 233.801 C 351.200 234.897, 346.475 236.110, 344 236.496 C 341.525 236.883, 337.475 238.089, 335 239.176 C 332.525 240.264, 327.929 241.576, 324.786 242.093 C 318.547 243.118, 311.002 246.781, 289.324 259.308 C 279.115 265.208, 271.419 270.663, 261.824 278.804 C 254.496 285.021, 247.486 291.546, 246.246 293.304 C 245.007 295.062, 242.904 298.075, 241.573 300 C 240.242 301.925, 236.370 306.650, 232.970 310.500 C 227.003 317.255, 218 329.893, 218 331.515 C 218 331.948, 216.029 335.723, 213.620 339.902 C 204.587 355.572, 202.611 359.706, 200.424 367.500 C 199.189 371.900, 197.524 377.525, 196.723 380 C 194.779 386.010, 191.968 397.333, 190.889 403.500 C 187.872 420.742, 188.863 473.949, 192.356 482.310 C 193.218 484.372, 194.406 488.725, 194.997 491.983 C 195.588 495.241, 196.928 499.843, 197.974 502.209 C 199.021 504.576, 200.317 509.209, 200.853 512.506 C 201.390 515.803, 203.330 521.327, 205.164 524.783 C 212.631 538.847, 214.058 541.439, 215.698 543.914 C 216.641 545.336, 218.434 548.525, 219.684 551 C 225.185 561.893, 252.755 592.950, 262.522 599.255 C 264.710 600.667, 269.875 604.836, 274 608.519 C 278.125 612.201, 283.750 616.307, 286.500 617.641 C 291.690 620.160, 296.603 622.855, 308.500 629.706 C 312.350 631.924, 317.885 634.247, 320.800 634.869 C 323.715 635.491, 327.465 636.706, 329.134 637.569 C 330.803 638.432, 334.884 639.576, 338.205 640.110 C 341.525 640.645, 346.100 642.036, 348.371 643.201 C 351.717 644.918, 355.250 645.470, 367 646.111 C 374.975 646.546, 385.325 647.421, 390 648.054 C 396.361 648.915, 400.010 648.920, 404.500 648.071 C 407.800 647.447, 417.250 646.674, 425.500 646.353 C 438.164 645.859, 441.357 645.403, 446 643.425 C 449.025 642.136, 454.076 640.631, 457.225 640.079 C 460.374 639.528, 464.312 638.373, 465.976 637.513 C 467.640 636.652, 471.278 635.516, 474.062 634.988 C 477.179 634.397, 483.993 631.281, 491.811 626.871 C 498.790 622.934, 506.298 618.814, 508.496 617.714 C 516.180 613.871, 542.373 591.690, 553.206 579.853 C 561.390 570.911, 576 552.230, 576 550.708 C 576 549.656, 586.175 531.194, 589.645 525.951 C 590.937 523.999, 592.487 519.733, 593.090 516.471 C 593.693 513.209, 594.852 509.253, 595.666 507.679 C 596.480 506.105, 597.815 501.596, 598.633 497.659 C 599.452 493.721, 600.953 488.700, 601.969 486.500 C 603.859 482.408, 606.366 455.769, 606.439 439 C 606.511 422.315, 604.118 398.104, 601.615 390.195 C 600.275 385.963, 598.747 380.250, 598.218 377.500 C 597.256 372.499, 595.109 366.769, 589.974 355.500 C 583.370 341.009, 580.553 335.337, 578.798 333 C 576.098 329.403, 570.032 319.956, 568.409 316.821 C 565.940 312.052, 563.495 312.270, 557.109 317.824 C 553.645 320.837, 549.659 323.284, 547.087 323.977 C 544.738 324.609, 540.495 326.385, 537.658 327.923 L 532.500 330.720 532.821 339.610 C 532.998 344.499, 533.785 352.658, 534.571 357.739 C 535.357 362.821, 535.997 368.896, 535.993 371.239 C 535.987 375.184, 536.459 375.944, 542.365 381.500 C 551.186 389.798, 555.349 397.438, 555.387 405.398 C 555.422 412.679, 553.491 416.857, 545.991 425.726 C 540.225 432.544, 538.128 433.696, 529.538 434.761 C 524.536 435.381, 523.384 435.902, 522.382 438 C 510.987 461.854, 508.493 465.662, 496.762 477.112 C 490.504 483.221, 487.396 485.409, 481.220 488.052 C 471.851 492.061, 462.669 492.992, 455.358 490.673 C 440.329 485.909, 430.894 481.680, 425.500 477.292 C 423.850 475.950, 419.800 473.089, 416.500 470.936 C 401.012 460.829, 396.033 457.381, 390 452.583 C 386.425 449.740, 381.700 446.347, 379.500 445.042 C 367.989 438.218, 361.106 434.811, 357.029 433.919 C 354.538 433.375, 350.248 432.008, 347.496 430.882 L 342.491 428.836 337.005 430.998 C 333.988 432.187, 331.223 433.639, 330.861 434.225 C 330.499 434.810, 330.917 437.216, 331.789 439.570 C 333.274 443.576, 333.252 444.220, 331.438 449.624 C 330.372 452.800, 328.491 456.771, 327.257 458.449 C 326.023 460.127, 324.076 462.947, 322.929 464.715 C 320.404 468.607, 312.441 472.609, 305.463 473.492 C 299.406 474.258, 288.185 471.720, 284.374 468.723 C 282.962 467.612, 279.825 463.980, 277.403 460.651 L 273 454.600 273 443.234 C 273 436.518, 273.476 430.975, 274.162 429.684 C 276.102 426.040, 282.214 420.079, 287.479 416.698 C 292.402 413.536, 292.600 413.500, 305.038 413.490 C 315.972 413.481, 317.989 413.220, 320.449 411.490 C 324.963 408.317, 325.212 408.200, 331.183 406.442 C 335.772 405.091, 337.793 404.973, 341.683 405.829 C 344.332 406.412, 349.200 407.182, 352.500 407.539 C 355.800 407.896, 360.525 409.247, 363 410.541 C 365.475 411.835, 371.100 414.579, 375.500 416.640 C 383.758 420.508, 393.158 426.509, 401 432.919 C 405.747 436.800, 418.220 445.447, 422.793 448.028 C 424.282 448.869, 428.152 451.344, 431.393 453.528 C 434.634 455.713, 438.459 458.162, 439.893 458.972 C 441.327 459.782, 444.274 461.533, 446.442 462.863 C 453.961 467.478, 464.353 469.096, 472.500 466.921 C 479.081 465.164, 493.220 449.787, 499.377 437.690 L 504.254 428.109 501.264 424.304 C 494.673 415.918, 492.889 408.668, 494.962 398.685 C 496.048 393.451, 496.892 392.190, 504.635 384.225 C 512.414 376.225, 513.070 375.240, 512.537 372.370 C 512.216 370.649, 511.731 360.804, 511.457 350.492 C 511.184 340.181, 510.755 331.413, 510.504 331.007 C 510.254 330.601, 508.350 329.995, 506.274 329.660 C 497.905 328.309, 487.926 323.548, 480.183 317.213 C 475.958 313.755, 471.600 309.632, 470.500 308.051 C 469.400 306.470, 466.429 302.325, 463.897 298.838 C 459.203 292.375, 456.014 283.991, 453.934 272.647 C 452.635 265.562, 454.694 253.637, 458.667 245.239 C 460.051 242.313, 460.957 239.331, 460.681 238.612 C 460.384 237.837, 457.643 237.039, 453.956 236.653 C 450.534 236.295, 444.305 234.920, 440.115 233.596 C 433.239 231.424, 430.202 231.139, 408.998 230.677 C 396.074 230.396, 379.875 230.535, 373 230.987 M 864.591 343.446 C 856.963 346.232, 856.500 347.324, 856.500 362.505 C 856.500 375.869, 856.518 375.972, 859.271 378.727 L 862.043 381.500 908.271 382 L 954.500 382.500 959.861 385.323 C 970.189 390.762, 972.380 395.401, 971.850 410.710 C 971.522 420.161, 971.299 421.088, 968.373 425.155 C 966.060 428.370, 963.719 430.144, 959.373 431.977 L 953.500 434.455 909.500 434.977 C 867.416 435.477, 865.348 435.589, 862.002 437.555 C 860.078 438.685, 857.948 440.710, 857.267 442.055 C 856.343 443.881, 856.026 455.168, 856.015 486.661 L 856 528.822 859.250 531.563 C 864.215 535.749, 868.219 537, 876.652 537 C 885.174 537, 890.775 534.997, 895.084 530.410 C 897.499 527.839, 897.500 527.830, 897.635 502.509 C 897.710 488.578, 898.074 476.690, 898.444 476.090 C 898.899 475.354, 906.817 474.991, 922.809 474.973 C 953.540 474.938, 962.706 474.030, 973.205 469.981 C 977.737 468.234, 982.729 465.723, 984.299 464.402 C 985.869 463.081, 987.602 462, 988.151 462 C 989.674 462, 1000.764 451.101, 1004.419 446.013 C 1006.264 443.443, 1009.077 437.048, 1010.951 431.159 C 1014.202 420.945, 1014.236 420.638, 1013.727 406.159 C 1013.265 393.051, 1012.902 390.707, 1010.297 384 C 1004.067 367.966, 992.638 356.185, 975.500 348.130 C 965.489 343.425, 958.356 342.794, 910.500 342.380 C 875.922 342.082, 867.809 342.270, 864.591 343.446 M 1139.333 343.050 C 1135.166 344.319, 1131.649 348.641, 1129.012 355.734 C 1127.833 358.905, 1126.292 362.400, 1125.588 363.500 C 1124.883 364.600, 1123.529 367.857, 1122.577 370.738 C 1121.626 373.619, 1120.466 376.212, 1120 376.500 C 1119.534 376.788, 1118.370 379.381, 1117.414 382.262 C 1116.458 385.143, 1114.623 389.480, 1113.338 391.899 C 1112.052 394.318, 1111 396.914, 1111 397.668 C 1111 398.421, 1109.650 401.568, 1108 404.660 C 1106.350 407.752, 1104.998 411.006, 1104.995 411.891 C 1104.992 412.776, 1103.881 415.300, 1102.526 417.500 C 1101.171 419.700, 1100.048 422.242, 1100.031 423.148 C 1100.014 424.055, 1098.650 427.363, 1097 430.500 C 1095.350 433.637, 1094 436.765, 1094 437.453 C 1094 438.140, 1092.946 440.684, 1091.658 443.106 C 1090.371 445.528, 1088.741 449.308, 1088.037 451.505 C 1087.333 453.702, 1085.976 456.850, 1085.021 458.500 C 1081.943 463.816, 1078.683 474.600, 1079.350 477.257 C 1079.696 478.637, 1081.290 481.169, 1082.891 482.883 L 1085.802 486 1100.710 486 C 1111.152 486, 1116.077 485.626, 1117.150 484.750 C 1119.207 483.073, 1123.427 475.437, 1125.024 470.505 C 1125.735 468.308, 1127.371 464.528, 1128.658 462.106 C 1129.946 459.684, 1131.002 456.982, 1131.005 456.101 C 1131.008 455.220, 1132.119 452.700, 1133.474 450.500 C 1134.829 448.300, 1135.952 445.758, 1135.969 444.852 C 1135.986 443.945, 1137.350 440.637, 1139 437.500 C 1140.650 434.363, 1142 431.244, 1142 430.568 C 1142 429.892, 1143.134 427.125, 1144.520 424.419 C 1145.905 421.714, 1147.721 417.193, 1148.555 414.373 C 1151.119 405.699, 1156.083 403.374, 1157.504 410.182 C 1157.885 412.007, 1159.277 415.380, 1160.598 417.678 C 1161.919 419.976, 1163 422.475, 1163 423.232 C 1163 423.988, 1164.085 426.833, 1165.410 429.554 C 1168.369 435.626, 1172.612 445.811, 1174.974 452.513 C 1175.946 455.270, 1177.698 459.095, 1178.867 461.013 C 1180.036 462.931, 1181.008 465.175, 1181.028 466 C 1181.047 466.825, 1182.399 470.189, 1184.031 473.475 C 1185.664 476.761, 1187 480.096, 1187 480.887 C 1187 481.677, 1188.154 484.294, 1189.565 486.700 C 1190.975 489.107, 1191.988 492.072, 1191.815 493.288 L 1191.500 495.500 1132.305 496 L 1073.110 496.500 1069.574 499.928 C 1067.629 501.813, 1065.545 504.963, 1064.943 506.928 C 1064.341 508.893, 1062.797 512.525, 1061.512 515 C 1058.514 520.773, 1057.528 527.700, 1059.238 530.970 C 1059.948 532.328, 1062.052 534.466, 1063.912 535.720 L 1067.296 538 1153.698 538 C 1227.912 538, 1240.502 537.792, 1242.953 536.524 C 1246.013 534.942, 1250 529.327, 1250 526.600 C 1250 524.031, 1246.054 512.864, 1243.915 509.382 C 1242.862 507.667, 1242 505.618, 1242 504.828 C 1242 504.039, 1240.915 501.167, 1239.590 498.446 C 1236.818 492.757, 1232.537 482.594, 1230.081 475.872 C 1229.151 473.327, 1227.664 470.136, 1226.777 468.782 C 1225.889 467.427, 1224.640 464.376, 1224 462 C 1223.360 459.624, 1222.205 456.716, 1221.432 455.537 C 1220.660 454.358, 1219.161 450.874, 1218.102 447.796 C 1217.042 444.717, 1215.511 441.141, 1214.699 439.849 C 1213.887 438.557, 1212.722 435.925, 1212.110 434 C 1211.497 432.075, 1209.872 428.286, 1208.498 425.581 C 1207.124 422.875, 1205.998 419.950, 1205.995 419.081 C 1205.992 418.211, 1204.881 415.700, 1203.526 413.500 C 1202.171 411.300, 1201.048 408.758, 1201.031 407.852 C 1201.014 406.945, 1199.650 403.637, 1198 400.500 C 1196.350 397.363, 1194.998 394.280, 1194.996 393.648 C 1194.994 393.017, 1193.646 389.800, 1192 386.500 C 1190.354 383.200, 1189.006 379.925, 1189.004 379.221 C 1189.002 378.518, 1187.650 375.269, 1186 372 C 1184.350 368.731, 1183 365.566, 1183 364.966 C 1183 364.365, 1181.716 361.090, 1180.147 357.687 C 1178.577 354.284, 1176.797 350.284, 1176.190 348.798 C 1174.191 343.904, 1169.958 342.578, 1155.500 342.319 C 1148.350 342.190, 1141.075 342.519, 1139.333 343.050 M 1320 342.647 C 1314.551 344.423, 1311.080 346.530, 1310.115 348.647 C 1308.691 351.773, 1308.657 373.153, 1310.071 376.257 C 1312.468 381.517, 1311.972 381.463, 1363 382 L 1410.500 382.500 1414.500 384.914 C 1421.426 389.095, 1424.844 393.054, 1427.607 400.096 C 1431.259 409.405, 1430.533 414.079, 1424.368 420.936 C 1420.708 425.006, 1418.568 426.395, 1413.172 428.201 C 1406.768 430.345, 1404.674 430.456, 1361 430.967 C 1312.322 431.537, 1311.868 431.588, 1309.952 436.626 C 1309.401 438.077, 1309 458.035, 1309 484.065 C 1309 534.858, 1308.288 530.541, 1317.389 534.946 C 1321.502 536.937, 1323.274 537.184, 1330.869 536.821 C 1337.775 536.490, 1340.399 535.916, 1343.357 534.088 C 1350.497 529.676, 1350.487 529.721, 1350.607 499.736 C 1350.679 481.648, 1351.074 472.526, 1351.816 471.784 C 1353 470.600, 1388.144 470.276, 1391.734 471.416 C 1393.804 472.072, 1397.677 477.551, 1410.532 498 C 1411.742 499.925, 1415.380 505.550, 1418.616 510.500 C 1421.852 515.450, 1424.807 520.243, 1425.181 521.151 C 1426.678 524.778, 1433.419 532.628, 1436.856 534.745 C 1440.066 536.723, 1441.844 536.990, 1451.790 536.995 C 1464.025 537, 1469.167 535.455, 1472.434 530.791 C 1475.840 525.928, 1474.849 523.464, 1460.998 502.359 C 1458.523 498.587, 1456.048 494.776, 1455.498 493.890 C 1454.305 491.966, 1452.816 489.720, 1443.697 476.083 C 1435.418 463.702, 1435.438 462.451, 1444.003 457.343 C 1458.559 448.660, 1466.926 435.687, 1469.400 417.965 C 1470.762 408.207, 1470.730 406.546, 1468.978 395.465 C 1466.128 377.442, 1460.835 367.998, 1447.689 357.482 C 1430.345 343.607, 1421.334 342.008, 1361 342.098 C 1339.275 342.131, 1320.825 342.378, 1320 342.647 M 1601.500 343.863 C 1596.710 346.043, 1595.654 347.258, 1593.995 352.500 C 1593.300 354.700, 1591.666 358.340, 1590.365 360.588 C 1589.064 362.836, 1588 365.357, 1588 366.189 C 1588 367.021, 1586.946 369.684, 1585.658 372.106 C 1584.371 374.528, 1582.795 378.083, 1582.157 380.005 C 1581.519 381.927, 1579.872 385.714, 1578.498 388.419 C 1577.124 391.125, 1576 394.063, 1576 394.947 C 1576 395.831, 1575.315 397.533, 1574.478 398.728 C 1572.794 401.133, 1567.757 412.735, 1565.022 420.513 C 1564.052 423.270, 1562.302 427.095, 1561.133 429.013 C 1559.964 430.931, 1559.006 433.129, 1559.004 433.899 C 1559.002 434.668, 1557.688 438.043, 1556.085 441.399 C 1551.702 450.574, 1547 461.540, 1547 462.588 C 1547 463.098, 1545.835 465.704, 1544.411 468.379 C 1541.092 474.614, 1541.689 478.641, 1546.566 482.924 L 1550.070 486 1564.479 486 C 1581.465 486, 1581.680 485.889, 1586.738 474.500 C 1588.448 470.650, 1591.231 464.491, 1592.924 460.813 C 1594.616 457.135, 1596 453.635, 1596 453.034 C 1596 452.434, 1597.350 449.269, 1599 446 C 1600.650 442.731, 1602 439.478, 1602 438.771 C 1602 438.063, 1603.064 435.463, 1604.364 432.992 C 1605.664 430.521, 1607.307 426.700, 1608.015 424.500 C 1608.724 422.300, 1609.954 419.499, 1610.749 418.276 C 1611.545 417.053, 1612.764 414.128, 1613.458 411.776 C 1614.567 408.020, 1615.072 407.500, 1617.609 407.500 C 1620.233 407.500, 1620.695 408.050, 1622.656 413.500 C 1625.531 421.491, 1629.631 431.375, 1632.590 437.446 C 1633.915 440.167, 1635.014 443.092, 1635.031 443.946 C 1635.048 444.801, 1636.171 447.300, 1637.526 449.500 C 1638.881 451.700, 1639.992 454.139, 1639.995 454.920 C 1640 456.398, 1644.065 466.092, 1649.085 476.601 C 1650.688 479.957, 1652 483.243, 1652 483.903 C 1652 484.564, 1652.978 486.803, 1654.173 488.880 C 1658.526 496.443, 1662.097 496, 1596.781 496.004 C 1528.294 496.008, 1534.414 494.919, 1528.146 508.221 C 1523.384 518.326, 1522 522.393, 1522 526.281 C 1522 530.130, 1525.569 535.886, 1528.692 537.073 C 1530.121 537.616, 1566.786 537.998, 1617.315 537.996 C 1700.977 537.993, 1703.594 537.935, 1706.696 536.044 C 1714.092 531.534, 1714.899 523.653, 1709.089 512.648 C 1707.390 509.430, 1705.986 506.055, 1705.969 505.148 C 1705.952 504.242, 1704.829 501.700, 1703.474 499.500 C 1702.119 497.300, 1701.008 494.776, 1701.005 493.891 C 1701.002 493.006, 1699.650 489.752, 1698 486.660 C 1696.350 483.568, 1694.998 480.467, 1694.996 479.769 C 1694.994 479.071, 1693.646 475.800, 1692 472.500 C 1690.354 469.200, 1689 465.825, 1688.992 465 C 1688.983 464.175, 1687.856 461.542, 1686.488 459.148 C 1685.120 456.754, 1684 454.243, 1684 453.567 C 1684 452.892, 1682.860 450.125, 1681.466 447.419 C 1680.072 444.714, 1678.099 440.250, 1677.081 437.500 C 1673.992 429.158, 1670.002 419.706, 1667.946 415.864 C 1666.876 413.864, 1666 411.610, 1666 410.856 C 1666 410.101, 1664.937 407.463, 1663.638 404.992 C 1662.339 402.521, 1660.505 398.143, 1659.562 395.262 C 1658.619 392.381, 1657.466 389.788, 1657 389.500 C 1656.534 389.212, 1655.370 386.619, 1654.414 383.738 C 1653.458 380.857, 1651.623 376.520, 1650.338 374.101 C 1649.052 371.682, 1648 369.062, 1648 368.279 C 1648 367.496, 1646.919 364.976, 1645.598 362.678 C 1644.277 360.380, 1642.897 357.064, 1642.531 355.308 C 1641.434 350.037, 1636.787 344.552, 1632.272 343.200 C 1625.796 341.259, 1606.300 341.680, 1601.500 343.863 M 1780.500 343.529 C 1778.300 344.321, 1776.365 344.977, 1776.199 344.985 C 1776.033 344.993, 1775.246 346.561, 1774.449 348.468 C 1772.937 352.086, 1772.538 371.135, 1773.873 375.910 C 1774.244 377.235, 1775.806 379.260, 1777.345 380.410 C 1780.054 382.434, 1781.520 382.517, 1823.821 383.054 C 1863.950 383.562, 1867.928 383.767, 1872.762 385.568 C 1880.121 388.310, 1883.726 391.987, 1884.569 397.610 C 1885.721 405.292, 1884.154 409.734, 1878.650 414.394 L 1873.800 418.500 1827.150 419 C 1776.013 419.548, 1777.479 419.363, 1774.500 425.642 C 1772.692 429.452, 1772.429 447.063, 1774.108 451.881 C 1776.392 458.432, 1776.445 458.439, 1827.500 459.058 C 1867.269 459.541, 1874.205 459.849, 1878.703 461.333 C 1887.842 464.348, 1893 470.610, 1893 478.689 C 1893 483.509, 1889.428 490.706, 1885.678 493.441 C 1882.940 495.439, 1881.347 495.515, 1832 496 C 1782.327 496.488, 1781.078 496.549, 1778.322 498.596 C 1773.759 501.986, 1773.030 504.515, 1773.018 517 C 1773.009 526.658, 1773.320 529.013, 1774.960 531.701 C 1778.975 538.287, 1777.938 538.176, 1831.332 537.772 C 1877.889 537.419, 1879.713 537.334, 1885.880 535.204 C 1889.389 533.992, 1892.991 533, 1893.884 533 C 1894.777 533, 1898.655 531.487, 1902.503 529.638 C 1906.352 527.789, 1910.066 526.100, 1910.757 525.885 C 1913.605 525.001, 1926.005 511.511, 1927.114 508.091 C 1927.754 506.116, 1929.145 503.264, 1930.205 501.753 C 1932.897 497.915, 1934.312 487.371, 1933.801 474.956 C 1933.382 464.767, 1933.223 464.150, 1929.079 456.644 C 1926.721 452.371, 1922.363 446.389, 1919.396 443.349 C 1912.993 436.791, 1912.723 434.826, 1917.390 428.712 C 1919.924 425.392, 1921.439 421.639, 1923.390 413.847 C 1924.825 408.114, 1926 401.512, 1926 399.175 C 1926 393, 1922.101 378.427, 1919.372 374.407 C 1918.080 372.503, 1916.357 369.658, 1915.544 368.085 C 1912.570 362.333, 1902.051 353.077, 1893.824 348.972 C 1886.632 345.384, 1884.555 344.854, 1872.336 343.500 C 1853.443 341.405, 1786.336 341.426, 1780.500 343.529 M 2262.243 343.931 C 2259.596 345.161, 2257.605 346.908, 2256.981 348.549 C 2255.566 352.273, 2255.608 527.399, 2257.025 530.047 C 2257.601 531.123, 2260.291 533.127, 2263.003 534.501 C 2272.071 539.097, 2287.810 537.436, 2293.253 531.309 C 2296.782 527.336, 2297.051 520.050, 2296.773 435.902 C 2296.508 355.788, 2296.444 353.389, 2294.500 349.500 C 2291.706 343.911, 2288.383 342.570, 2276.500 342.235 C 2268.235 342.001, 2265.761 342.296, 2262.243 343.931 M 2513.500 343.175 C 2511.850 343.776, 2509.982 344.676, 2509.349 345.174 C 2507.958 346.269, 2501 360.161, 2501 361.843 C 2501 362.500, 2499.650 365.568, 2498 368.660 C 2496.350 371.752, 2495 374.847, 2495 375.539 C 2495 376.231, 2493.650 379.363, 2492 382.500 C 2490.350 385.637, 2488.986 388.945, 2488.969 389.852 C 2488.952 390.758, 2487.829 393.300, 2486.474 395.500 C 2485.119 397.700, 2484.008 400.224, 2484.005 401.109 C 2484.002 401.994, 2482.650 405.248, 2481 408.340 C 2479.350 411.432, 2478 414.579, 2478 415.332 C 2478 416.086, 2476.946 418.684, 2475.658 421.106 C 2474.371 423.528, 2472.727 427.308, 2472.007 429.505 C 2471.286 431.702, 2470.096 434.424, 2469.362 435.553 C 2468.628 436.683, 2467.159 440.058, 2466.097 443.053 C 2465.035 446.049, 2463.229 450.283, 2462.083 452.461 C 2460.938 454.640, 2460 457.035, 2460 457.783 C 2460 458.532, 2458.877 461.060, 2457.504 463.403 C 2454.368 468.754, 2453.297 475.888, 2455.009 480.021 C 2457.125 485.130, 2460.185 486, 2476.049 486 L 2490.198 486 2493.033 482.965 C 2494.592 481.296, 2496.397 478.258, 2497.044 476.215 C 2497.691 474.172, 2499.010 471.113, 2499.977 469.419 C 2500.943 467.724, 2502.293 464.574, 2502.977 462.419 C 2503.660 460.263, 2505.010 457.113, 2505.977 455.419 C 2506.943 453.724, 2508.294 450.574, 2508.978 448.419 C 2509.663 446.263, 2510.884 443.449, 2511.691 442.163 C 2512.499 440.878, 2513.977 437.503, 2514.976 434.663 C 2516.870 429.281, 2520.894 419.362, 2523.967 412.500 C 2524.953 410.300, 2526.024 407.712, 2526.348 406.750 C 2527.243 404.092, 2529.922 404.658, 2531.077 407.750 C 2531.641 409.262, 2532.980 412.330, 2534.052 414.566 C 2535.123 416.802, 2536 419.173, 2536 419.835 C 2536 420.496, 2537.350 423.568, 2539 426.660 C 2540.650 429.752, 2542.014 433.006, 2542.031 433.891 C 2542.049 434.776, 2543.399 438.189, 2545.031 441.475 C 2546.664 444.761, 2548.014 448.136, 2548.031 448.975 C 2548.048 449.814, 2549.171 452.300, 2550.526 454.500 C 2551.881 456.700, 2552.992 459.211, 2552.995 460.081 C 2552.998 460.950, 2554.124 463.875, 2555.498 466.581 C 2556.872 469.286, 2558.515 473.075, 2559.150 475 C 2559.784 476.925, 2561.585 481.031, 2563.152 484.124 C 2566.334 490.406, 2566.792 494.482, 2564.418 495.393 C 2563.548 495.727, 2537.478 496, 2506.483 496 C 2473.659 496, 2449.096 496.393, 2447.653 496.942 C 2444.575 498.112, 2439.150 505.852, 2437.451 511.497 C 2436.749 513.829, 2435.235 517.578, 2434.087 519.829 C 2430.920 526.038, 2431.344 528.607, 2436.368 533.632 L 2440.737 538 2528.500 538 L 2616.263 538 2620.632 533.632 C 2625.830 528.433, 2626.190 525.536, 2622.500 518.596 C 2621.125 516.010, 2620 513.306, 2620 512.588 C 2620 511.869, 2618.650 508.752, 2617 505.660 C 2615.350 502.568, 2614 499.473, 2614 498.783 C 2614 498.093, 2612.900 495.272, 2611.555 492.514 C 2609.193 487.669, 2605.778 479.535, 2602.036 469.838 C 2601.046 467.274, 2599.509 464.136, 2598.618 462.866 C 2597.728 461.595, 2597 459.843, 2597 458.974 C 2597 458.104, 2595.915 455.167, 2594.590 452.446 C 2591.631 446.374, 2587.388 436.189, 2585.026 429.487 C 2584.054 426.730, 2582.302 422.905, 2581.133 420.987 C 2579.964 419.069, 2579.006 416.825, 2579.004 416 C 2579.001 415.175, 2577.668 412.025, 2576.039 409 C 2574.411 405.975, 2573.060 402.825, 2573.036 402 C 2573.012 401.175, 2571.646 397.800, 2570 394.500 C 2568.354 391.200, 2567.004 387.825, 2566.999 387 C 2566.994 386.175, 2565.881 383.700, 2564.526 381.500 C 2563.171 379.300, 2562.048 376.789, 2562.031 375.919 C 2562.014 375.050, 2560.876 372.125, 2559.503 369.419 C 2558.130 366.714, 2556.299 362.475, 2555.434 360 C 2552.799 352.458, 2548.496 345.584, 2545.416 344 C 2541.793 342.137, 2518.033 341.522, 2513.500 343.175 M 2751.942 342.903 C 2746.825 344.546, 2745.209 346.054, 2739.831 354.203 C 2736.820 358.766, 2733.611 363.625, 2732.700 365 C 2724.336 377.627, 2720.789 382.942, 2719.020 385.500 C 2717.878 387.150, 2712.695 395.025, 2707.500 403 C 2702.305 410.975, 2697.122 418.850, 2695.980 420.500 C 2694.091 423.231, 2686.364 434.826, 2682.318 441 C 2681.417 442.375, 2679.694 445.075, 2678.490 447 C 2677.286 448.925, 2674.883 452.715, 2673.150 455.421 C 2670.108 460.175, 2670 460.717, 2670 471.303 L 2670 482.263 2674.368 486.632 L 2678.737 491 2713.797 491 C 2744.609 491, 2749.051 491.194, 2750.458 492.601 C 2751.799 493.942, 2752.036 496.676, 2751.917 509.481 C 2751.754 527.110, 2752.427 529.464, 2758.500 532.500 C 2763.938 535.219, 2780.715 535.352, 2786.044 532.719 C 2792.262 529.646, 2793 527.209, 2793 509.751 C 2793 492.578, 2793.562 491, 2799.681 491 C 2803.314 491, 2808.994 487.383, 2810.721 483.970 C 2812.284 480.880, 2812.402 464.452, 2810.892 460.119 C 2809.642 456.534, 2805.925 454.224, 2799.691 453.160 C 2796.682 452.646, 2795.188 451.767, 2794.282 449.975 C 2793.331 448.096, 2793.026 435.981, 2793.015 399.700 C 2792.998 346.950, 2793.086 347.723, 2786.733 344.283 C 2784.145 342.882, 2780.606 342.488, 2769 342.307 C 2761.025 342.184, 2753.349 342.452, 2751.942 342.903 M 2927 343.497 C 2918.317 344.583, 2915.304 345.445, 2909.592 348.481 C 2905.793 350.500, 2900.947 353.581, 2898.825 355.326 C 2892.033 360.912, 2881.471 375.992, 2878.929 383.733 C 2878.249 385.805, 2876.877 389.075, 2875.881 391 C 2874.884 392.925, 2873.608 398.550, 2873.045 403.500 C 2872.482 408.450, 2871.542 414.075, 2870.956 416 C 2869.424 421.036, 2868.637 449.256, 2869.799 457.500 C 2872.608 477.432, 2874.396 486.838, 2875.978 490 C 2876.941 491.925, 2878.278 495.195, 2878.948 497.267 C 2880.255 501.308, 2884.692 508.981, 2889.533 515.572 C 2894.823 522.773, 2904.904 530.264, 2912.300 532.490 C 2914.772 533.234, 2918.152 534.544, 2919.810 535.402 C 2927.599 539.430, 2952.488 539.302, 2960.691 535.192 C 2962.786 534.143, 2965.850 532.963, 2967.500 532.571 C 2971.587 531.600, 2979.593 526.519, 2984.816 521.581 C 2997.830 509.277, 3007.504 485.866, 3009.231 462.500 C 3010.555 444.574, 3009.538 411.119, 3007.452 404 C 3006.566 400.975, 3005.014 395.575, 3004.004 392 C 3000.847 380.823, 2993.047 367.947, 2984.861 360.401 C 2979.833 355.765, 2971.876 350, 2970.505 350 C 2969.841 350, 2967.128 348.846, 2964.477 347.437 C 2961.329 345.763, 2956.932 344.562, 2951.807 343.978 C 2947.490 343.486, 2942.505 342.881, 2940.729 342.633 C 2938.953 342.386, 2932.775 342.775, 2927 343.497 M 3146.619 342.990 C 3142.075 344.421, 3139.502 347.433, 3128.244 364.500 C 3122.439 373.300, 3112.649 388.150, 3106.488 397.500 C 3100.327 406.850, 3091.734 419.819, 3087.393 426.319 C 3078.270 439.980, 3076.066 443.405, 3070.250 452.958 L 3066 459.939 3066 471.624 L 3066 483.310 3070.042 487.155 L 3074.084 491 3108.851 491 C 3135.121 491, 3144.019 491.305, 3145.261 492.250 C 3146.648 493.305, 3146.951 496.115, 3147.202 510.233 L 3147.500 526.967 3150.588 530.053 C 3154.684 534.144, 3164.902 535.937, 3174.631 534.270 C 3187.500 532.066, 3189.181 529.011, 3188.913 508.328 C 3188.701 491.947, 3189.071 491, 3195.688 491 C 3198.082 491, 3200.099 490.002, 3202.997 487.384 L 3207 483.767 3207 471.807 C 3207 460.003, 3206.963 459.809, 3204.163 457.009 C 3202.271 455.117, 3199.826 453.947, 3196.828 453.497 C 3188.909 452.309, 3189.556 456.634, 3189 401.109 C 3188.513 352.396, 3188.448 351.073, 3186.410 348.322 C 3182.699 343.311, 3179.820 342.537, 3164 342.300 C 3156.025 342.180, 3148.204 342.491, 3146.619 342.990 M 2065.500 343.722 C 2064.400 343.991, 2058.818 345.770, 2053.096 347.675 C 2043.573 350.846, 2041.753 351.891, 2031.596 360.023 C 2017.172 371.570, 2009.294 381.098, 2001.951 395.876 C 1996.109 407.633, 1995.034 411.599, 1991.897 432.964 C 1990.981 439.203, 1992.155 451.999, 1995.040 467.211 C 1997.111 478.132, 2008.683 499.135, 2018.289 509.408 C 2023.216 514.677, 2038.024 525.401, 2044.605 528.467 C 2047.847 529.977, 2052.975 531.818, 2056 532.559 C 2059.025 533.300, 2063.283 534.827, 2065.461 535.953 C 2071.689 539.171, 2075.548 538.688, 2080.118 534.118 L 2084 530.235 2084 518.568 C 2084 510.468, 2083.569 506.075, 2082.589 504.200 C 2080.259 499.740, 2075.759 496.200, 2071.500 495.478 C 2061.327 493.753, 2048.989 484.714, 2044.297 475.549 C 2042.903 472.826, 2040.935 469.451, 2039.923 468.049 C 2037.631 464.872, 2033 446.250, 2033 440.209 C 2033 437.738, 2033.863 432.742, 2034.917 429.108 C 2035.972 425.474, 2037.128 420.636, 2037.487 418.358 C 2039.208 407.429, 2055.048 389.949, 2065.873 387.034 C 2072.537 385.240, 2081.564 379.467, 2082.954 376.111 C 2083.755 374.176, 2084.060 369.148, 2083.838 361.501 L 2083.500 349.842 2079.765 346.421 C 2076.658 343.576, 2075.311 343.020, 2071.765 343.116 C 2069.419 343.180, 2066.600 343.452, 2065.500 343.722 M 2102.381 344.096 C 2101.216 344.697, 2099.191 347.059, 2097.881 349.344 C 2095.794 352.986, 2095.507 354.736, 2095.556 363.500 C 2095.597 370.807, 2096.059 374.345, 2097.273 376.636 C 2099.122 380.129, 2107.253 385.183, 2113.902 386.974 C 2118.448 388.198, 2128.593 395.376, 2132.012 399.787 C 2142.727 413.612, 2147.758 431.320, 2145.794 448.296 C 2144.987 455.275, 2139.790 470.394, 2137.769 471.643 C 2137.221 471.981, 2135.903 474.227, 2134.838 476.633 C 2131.397 484.413, 2117.786 493.858, 2107.641 495.505 C 2100.343 496.690, 2096.300 503.184, 2095.394 515.178 C 2094.641 525.140, 2095.828 530.278, 2099.916 534.750 C 2103.514 538.685, 2108.437 539.096, 2114.539 535.971 C 2116.717 534.855, 2121.200 533.247, 2124.500 532.397 C 2127.800 531.548, 2131.400 530.285, 2132.500 529.592 C 2133.600 528.898, 2135.869 527.863, 2137.542 527.290 C 2141.518 525.930, 2160.223 511.820, 2163.191 507.942 C 2164.461 506.284, 2166.681 503.481, 2168.124 501.713 C 2173.138 495.574, 2182.100 476.849, 2184.714 467.052 C 2188.174 454.086, 2189.061 431.553, 2186.491 421.932 C 2185.546 418.395, 2184.338 413.280, 2183.807 410.566 C 2182.889 405.869, 2177.328 393.531, 2172.736 386 C 2165.774 374.583, 2139.262 350, 2133.911 350 C 2132.943 350, 2128.736 348.632, 2124.562 346.961 C 2116.294 343.650, 2105.861 342.303, 2102.381 344.096 M 2931 386.544 C 2926.548 387.615, 2924.690 388.755, 2921.250 392.530 C 2918.912 395.095, 2917 398.036, 2917 399.066 C 2917 400.096, 2915.775 404.440, 2914.277 408.719 C 2911.606 416.351, 2911.554 416.950, 2911.586 440 C 2911.616 461.669, 2911.787 463.921, 2913.771 468.901 C 2914.954 471.872, 2916.209 476.213, 2916.560 478.548 C 2916.910 480.884, 2918.627 485.203, 2920.377 488.147 C 2924.034 494.303, 2929.952 497.900, 2936.500 497.946 C 2942.786 497.990, 2953.061 494.327, 2956.796 490.710 C 2963.087 484.618, 2964.678 480.567, 2966.515 465.977 C 2969.730 440.425, 2968.189 413.214, 2962.797 400.341 C 2959.061 391.419, 2955.980 388.406, 2948.641 386.495 C 2941.899 384.739, 2938.466 384.748, 2931 386.544 M 2745.588 414.880 C 2743.615 417.568, 2742 420.050, 2742 420.395 C 2742 420.740, 2740.088 423.746, 2737.750 427.074 C 2735.412 430.403, 2732.150 435.055, 2730.500 437.413 C 2728.850 439.771, 2726.743 442.780, 2725.818 444.100 C 2724.892 445.420, 2723.831 447.738, 2723.459 449.250 L 2722.783 452 2735.692 452 C 2744.398 452, 2748.991 451.609, 2749.800 450.800 C 2751.250 449.350, 2751.522 411.441, 2750.088 410.555 C 2749.587 410.245, 2747.562 412.191, 2745.588 414.880 M 3140.754 415.250 C 3138.835 418.137, 3135.194 423.650, 3132.664 427.500 C 3130.134 431.350, 3126.701 436.300, 3125.035 438.500 C 3121.046 443.767, 3117.900 450.300, 3118.880 451.280 C 3119.310 451.710, 3125.476 451.936, 3132.581 451.781 L 3145.500 451.500 3146.069 432 C 3146.801 406.942, 3146.631 406.408, 3140.754 415.250 M 2314.757 498.519 C 2312.718 499.905, 2310.589 501.900, 2310.025 502.953 C 2309.461 504.007, 2309 510.298, 2309 516.934 C 2309 530.458, 2309.261 531.052, 2316.919 534.959 C 2320.672 536.873, 2322.678 536.999, 2349.210 536.978 C 2374.515 536.958, 2377.922 536.762, 2381.500 535.119 C 2388.649 531.836, 2391 527.061, 2391 515.819 C 2391 507.476, 2389.467 503.495, 2384.614 499.234 L 2380.930 496 2349.697 496 L 2318.464 496 2314.757 498.519" stroke="none" fill="#acacac" fill-rule="evenodd"/></svg>