<svg xmlns="http://www.w3.org/2000/svg" width="798" height="842" viewBox="0 0 798 842" version="1.1"><path d="M 373 115 C 359.483 115.899, 337.117 120.438, 316.500 126.468 C 277.393 137.904, 237.948 159.309, 207.107 185.829 C 162.833 223.901, 135.990 262.875, 114.136 320.814 C 112.411 325.387, 111.009 329.662, 111.020 330.314 C 111.031 330.966, 109.713 336, 108.091 341.500 C 106.470 347, 104.157 356.675, 102.953 363 C 101.748 369.325, 100.270 376.975, 99.669 380 C 98.200 387.386, 98.200 455.614, 99.669 463 C 100.270 466.025, 101.748 473.675, 102.953 480 C 104.839 489.905, 107.744 501.334, 111.849 515 C 121.896 548.450, 143.920 589.027, 166.942 616.500 C 190.373 644.462, 217.067 667.613, 246.402 685.411 C 266.446 697.572, 295.557 710.508, 315 715.893 C 318.575 716.883, 324.875 718.637, 329 719.791 C 346.774 724.762, 362.208 727.153, 383.687 728.263 C 423.318 730.313, 456.037 727.254, 484.136 718.874 C 489.435 717.293, 494.469 716, 495.322 716 C 498.892 716, 524.527 705.709, 541 697.662 C 592.189 672.657, 635.763 633.034, 666.785 583.285 C 674.028 571.669, 684.307 551.610, 688.927 540.077 C 695.077 524.725, 699 513.978, 699 512.485 C 699 511.723, 700.311 506.914, 701.913 501.799 C 703.515 496.685, 706.326 484.850, 708.160 475.500 L 711.493 458.500 711.497 421.500 L 711.500 384.500 708.129 367.500 C 705.023 351.834, 703.569 346.114, 698.091 328 C 686.958 291.189, 665.148 251.918, 639.091 221.765 C 616.621 195.763, 592.474 175.058, 565.389 158.569 C 555.185 152.358, 533.130 140.873, 525.500 137.798 C 515.333 133.701, 501.314 128.736, 495 126.997 C 491.425 126.012, 486.662 124.531, 484.415 123.706 C 482.169 122.881, 477.106 121.705, 473.165 121.094 C 469.224 120.482, 462.062 119.060, 457.250 117.932 C 442.143 114.394, 402.739 113.023, 373 115 M 524 207.602 C 522.075 208.440, 517.655 209.724, 514.178 210.456 C 510.702 211.187, 506.877 212.682, 505.678 213.778 C 504.480 214.874, 502.476 216.081, 501.223 216.461 C 499.971 216.841, 498.181 218.355, 497.245 219.826 C 496.309 221.297, 493.286 225.425, 490.528 229 C 485.621 235.360, 485.499 235.684, 484.911 244 C 484.580 248.675, 484.614 256.641, 484.986 261.703 C 485.560 269.509, 486.097 271.558, 488.522 275.203 C 492.459 281.118, 500.110 289, 501.915 289 C 502.734 289, 504.776 290.305, 506.452 291.900 C 509.952 295.231, 522.729 299.183, 530 299.183 C 537.271 299.183, 550.048 295.231, 553.548 291.900 C 555.224 290.305, 557.296 289, 558.153 289 C 559.009 289, 561.913 286.564, 564.605 283.586 C 574.144 273.035, 574.306 272.701, 575.025 262.118 C 576.027 247.358, 574.971 235.679, 572.377 232.830 C 571.209 231.549, 568.330 227.647, 565.978 224.161 C 563.627 220.674, 560.532 217.317, 559.101 216.700 C 557.671 216.083, 555.294 214.604, 553.821 213.413 C 552.347 212.222, 548.999 210.927, 546.380 210.534 C 543.761 210.141, 539.437 208.961, 536.772 207.910 C 530.995 205.633, 528.653 205.576, 524 207.602 M 384 216.987 C 376.222 217.498, 369.234 218.561, 365.500 219.801 C 362.200 220.897, 357.475 222.110, 355 222.496 C 352.525 222.883, 348.475 224.089, 346 225.176 C 343.525 226.264, 338.929 227.576, 335.786 228.093 C 329.547 229.118, 322.002 232.781, 300.324 245.308 C 290.115 251.208, 282.419 256.663, 272.824 264.804 C 265.496 271.021, 258.486 277.546, 257.246 279.304 C 256.007 281.062, 253.904 284.075, 252.573 286 C 251.242 287.925, 247.370 292.650, 243.970 296.500 C 238.003 303.255, 229 315.893, 229 317.515 C 229 317.948, 227.029 321.723, 224.620 325.902 C 215.587 341.572, 213.611 345.706, 211.424 353.500 C 210.189 357.900, 208.524 363.525, 207.723 366 C 205.779 372.010, 202.968 383.333, 201.889 389.500 C 198.872 406.742, 199.863 459.949, 203.356 468.310 C 204.218 470.372, 205.406 474.725, 205.997 477.983 C 206.588 481.241, 207.928 485.843, 208.974 488.209 C 210.021 490.576, 211.317 495.209, 211.853 498.506 C 212.390 501.803, 214.330 507.327, 216.164 510.783 C 223.631 524.847, 225.058 527.439, 226.698 529.914 C 227.641 531.336, 229.434 534.525, 230.684 537 C 236.185 547.893, 263.755 578.950, 273.522 585.255 C 275.710 586.667, 280.875 590.836, 285 594.519 C 289.125 598.201, 294.750 602.307, 297.500 603.641 C 302.690 606.160, 307.603 608.855, 319.500 615.706 C 323.350 617.924, 328.885 620.247, 331.800 620.869 C 334.715 621.491, 338.465 622.706, 340.134 623.569 C 341.803 624.432, 345.884 625.576, 349.205 626.110 C 352.525 626.645, 357.100 628.036, 359.371 629.201 C 362.717 630.918, 366.250 631.470, 378 632.111 C 385.975 632.546, 396.325 633.421, 401 634.054 C 407.361 634.915, 411.010 634.920, 415.500 634.071 C 418.800 633.447, 428.250 632.674, 436.500 632.353 C 449.164 631.859, 452.357 631.403, 457 629.425 C 460.025 628.136, 465.076 626.631, 468.225 626.079 C 471.374 625.528, 475.312 624.373, 476.976 623.513 C 478.640 622.652, 482.278 621.516, 485.062 620.988 C 488.179 620.397, 494.993 617.281, 502.811 612.871 C 509.790 608.934, 517.298 604.814, 519.496 603.714 C 527.180 599.871, 553.373 577.690, 564.206 565.853 C 572.390 556.911, 587 538.230, 587 536.708 C 587 535.656, 597.175 517.194, 600.645 511.951 C 601.937 509.999, 603.487 505.733, 604.090 502.471 C 604.693 499.209, 605.852 495.253, 606.666 493.679 C 607.480 492.105, 608.815 487.596, 609.633 483.659 C 610.452 479.721, 611.953 474.700, 612.969 472.500 C 614.859 468.408, 617.366 441.769, 617.439 425 C 617.511 408.315, 615.118 384.104, 612.615 376.195 C 611.275 371.963, 609.747 366.250, 609.218 363.500 C 608.256 358.499, 606.109 352.769, 600.974 341.500 C 594.370 327.009, 591.553 321.337, 589.798 319 C 587.098 315.403, 581.032 305.956, 579.409 302.821 C 576.940 298.052, 574.495 298.270, 568.109 303.824 C 564.645 306.837, 560.659 309.284, 558.087 309.977 C 555.738 310.609, 551.495 312.385, 548.658 313.923 L 543.500 316.720 543.821 325.610 C 543.998 330.499, 544.785 338.658, 545.571 343.739 C 546.357 348.821, 546.997 354.896, 546.993 357.239 C 546.987 361.184, 547.459 361.944, 553.365 367.500 C 562.186 375.798, 566.349 383.438, 566.387 391.398 C 566.422 398.679, 564.491 402.857, 556.991 411.726 C 551.225 418.544, 549.128 419.696, 540.538 420.761 C 535.536 421.381, 534.384 421.902, 533.382 424 C 521.987 447.854, 519.493 451.662, 507.762 463.112 C 501.504 469.221, 498.396 471.409, 492.220 474.052 C 482.851 478.061, 473.669 478.992, 466.358 476.673 C 451.329 471.909, 441.894 467.680, 436.500 463.292 C 434.850 461.950, 430.800 459.089, 427.500 456.936 C 412.012 446.829, 407.033 443.381, 401 438.583 C 397.425 435.740, 392.700 432.347, 390.500 431.042 C 378.989 424.218, 372.106 420.811, 368.029 419.919 C 365.538 419.375, 361.248 418.008, 358.496 416.882 L 353.491 414.836 348.005 416.998 C 344.988 418.187, 342.223 419.639, 341.861 420.225 C 341.499 420.810, 341.917 423.216, 342.789 425.570 C 344.274 429.576, 344.252 430.220, 342.438 435.624 C 341.372 438.800, 339.491 442.771, 338.257 444.449 C 337.023 446.127, 335.076 448.947, 333.929 450.715 C 331.404 454.607, 323.441 458.609, 316.463 459.492 C 310.406 460.258, 299.185 457.720, 295.374 454.723 C 293.962 453.612, 290.825 449.980, 288.403 446.651 L 284 440.600 284 429.234 C 284 422.518, 284.476 416.975, 285.162 415.684 C 287.102 412.040, 293.214 406.079, 298.479 402.698 C 303.402 399.536, 303.600 399.500, 316.038 399.490 C 326.972 399.481, 328.989 399.220, 331.449 397.490 C 335.963 394.317, 336.212 394.200, 342.183 392.442 C 346.772 391.091, 348.793 390.973, 352.683 391.829 C 355.332 392.412, 360.200 393.182, 363.500 393.539 C 366.800 393.896, 371.525 395.247, 374 396.541 C 376.475 397.835, 382.100 400.579, 386.500 402.640 C 394.758 406.508, 404.158 412.509, 412 418.919 C 416.747 422.800, 429.220 431.447, 433.793 434.028 C 435.282 434.869, 439.152 437.344, 442.393 439.528 C 445.634 441.713, 449.459 444.162, 450.893 444.972 C 452.327 445.782, 455.274 447.533, 457.442 448.863 C 464.961 453.478, 475.353 455.096, 483.500 452.921 C 490.081 451.164, 504.220 435.787, 510.377 423.690 L 515.254 414.109 512.264 410.304 C 505.673 401.918, 503.889 394.668, 505.962 384.685 C 507.048 379.451, 507.892 378.190, 515.635 370.225 C 523.414 362.225, 524.070 361.240, 523.537 358.370 C 523.216 356.649, 522.731 346.804, 522.457 336.492 C 522.184 326.181, 521.755 317.413, 521.504 317.007 C 521.254 316.601, 519.350 315.995, 517.274 315.660 C 508.905 314.309, 498.926 309.548, 491.183 303.213 C 486.958 299.755, 482.600 295.632, 481.500 294.051 C 480.400 292.470, 477.429 288.325, 474.897 284.838 C 470.203 278.375, 467.014 269.991, 464.934 258.647 C 463.635 251.562, 465.694 239.637, 469.667 231.239 C 471.051 228.313, 471.957 225.331, 471.681 224.612 C 471.384 223.837, 468.643 223.039, 464.956 222.653 C 461.534 222.295, 455.305 220.920, 451.115 219.596 C 444.239 217.424, 441.202 217.139, 419.998 216.677 C 407.074 216.396, 390.875 216.535, 384 216.987" stroke="none" fill="#171717" fill-rule="evenodd"/></svg>