<svg xmlns="http://www.w3.org/2000/svg" width="3304" height="842" viewBox="0 0 3304 842" version="1.1"><path d="M 362 129 C 348.483 129.899, 326.117 134.438, 305.500 140.468 C 266.393 151.904, 226.948 173.309, 196.107 199.829 C 151.833 237.901, 124.990 276.875, 103.136 334.814 C 101.411 339.387, 100.009 343.662, 100.020 344.314 C 100.031 344.966, 98.713 350, 97.091 355.500 C 95.470 361, 93.157 370.675, 91.953 377 C 90.748 383.325, 89.270 390.975, 88.669 394 C 87.200 401.386, 87.200 469.614, 88.669 477 C 89.270 480.025, 90.748 487.675, 91.953 494 C 93.839 503.905, 96.744 515.334, 100.849 529 C 110.896 562.450, 132.920 603.027, 155.942 630.500 C 179.373 658.462, 206.067 681.613, 235.402 699.411 C 255.446 711.572, 284.557 724.508, 304 729.893 C 307.575 730.883, 313.875 732.637, 318 733.791 C 335.774 738.762, 351.208 741.153, 372.687 742.263 C 412.318 744.313, 445.037 741.254, 473.136 732.874 C 478.435 731.293, 483.469 730, 484.322 730 C 487.892 730, 513.527 719.709, 530 711.662 C 581.189 686.657, 624.763 647.034, 655.785 597.285 C 663.028 585.669, 673.307 565.610, 677.927 554.077 C 684.077 538.725, 688 527.978, 688 526.485 C 688 525.723, 689.311 520.914, 690.913 515.799 C 692.515 510.685, 695.326 498.850, 697.160 489.500 L 700.493 472.500 700.497 435.500 L 700.500 398.500 697.129 381.500 C 694.023 365.834, 692.569 360.114, 687.091 342 C 675.958 305.189, 654.148 265.918, 628.091 235.765 C 605.621 209.763, 581.474 189.058, 554.389 172.569 C 544.185 166.358, 522.130 154.873, 514.500 151.798 C 504.333 147.701, 490.314 142.736, 484 140.997 C 480.425 140.012, 475.662 138.531, 473.415 137.706 C 471.169 136.881, 466.106 135.705, 462.165 135.094 C 458.224 134.482, 451.062 133.060, 446.250 131.932 C 431.143 128.394, 391.739 127.023, 362 129 M 378 132.051 C 371.675 132.464, 362.450 133.483, 357.500 134.314 C 352.550 135.145, 346.025 136.095, 343 136.425 C 336.556 137.128, 318.092 141.419, 309.500 144.210 C 306.200 145.282, 301.877 146.561, 299.893 147.052 C 286.710 150.318, 257.620 163.666, 238 175.454 C 190.575 203.947, 149.615 247.561, 124.793 296 C 117.796 309.654, 107.800 333.473, 106.117 340.500 C 105.590 342.700, 104.282 347.200, 103.210 350.500 C 100.107 360.053, 96.049 377.805, 94.980 386.500 C 94.439 390.900, 93.258 399.225, 92.355 405 C 90.410 417.436, 90.140 451.651, 91.902 462.500 C 92.527 466.350, 93.696 474.675, 94.500 481 C 96.001 492.821, 99.769 509.908, 103.210 520.500 C 104.282 523.800, 105.561 528.123, 106.052 530.107 C 107.622 536.445, 115.156 555, 121.844 569 C 128.316 582.547, 142.920 606.020, 153.806 620.369 C 167.997 639.076, 191.040 662.134, 209.500 676.101 C 253.264 709.212, 299.798 728.560, 354 736.180 C 367.461 738.073, 374.829 738.500, 394 738.500 C 413.171 738.500, 420.539 738.073, 434 736.180 C 487.915 728.600, 533.764 709.627, 577.993 676.595 C 604.212 657.013, 632.127 626.372, 650.961 596.500 C 657.505 586.121, 668.887 564.333, 672.685 554.918 C 673.887 551.938, 676.046 546.575, 677.482 543 C 680.859 534.596, 684.679 522.454, 686.921 513 C 687.899 508.875, 689.402 503.025, 690.262 500 C 691.121 496.975, 692.114 492.025, 692.469 489 C 692.823 485.975, 694.051 477.200, 695.198 469.500 C 696.766 458.978, 697.290 450.532, 697.307 435.500 C 697.331 415.874, 697.040 412.780, 692.098 380 C 690.167 367.194, 682.966 342.111, 676.739 326.500 C 674.545 321, 671.934 314.430, 670.936 311.901 C 667.995 304.441, 657.754 285.263, 650.964 274.500 C 622.191 228.887, 580.324 190.164, 534 166.317 C 524.183 161.263, 505.806 153, 504.384 153 C 504.035 153, 501.219 151.918, 498.125 150.597 C 487.077 145.876, 456.061 137.595, 445 136.413 C 441.975 136.089, 435.675 135.196, 431 134.428 C 422.593 133.046, 396.832 130.886, 392 131.158 C 390.625 131.235, 384.325 131.637, 378 132.051 M 507.500 217.391 C 501.762 218.792, 493.007 222.895, 488.206 226.433 C 486.395 227.767, 481.847 232.829, 478.100 237.680 C 471.436 246.309, 471.243 246.728, 469.180 257.022 C 467.274 266.531, 467.203 268.072, 468.442 273.022 C 469.195 276.035, 470.100 280.590, 470.452 283.144 C 470.890 286.330, 472.254 289.284, 474.795 292.550 C 481.454 301.109, 493.107 311.399, 499.666 314.512 C 508.061 318.495, 530.916 318.345, 538.696 314.256 C 546.474 310.167, 562.547 295.566, 565.546 289.864 C 566.309 288.415, 567.895 282.447, 569.072 276.603 C 571.098 266.537, 571.128 265.624, 569.650 259.239 C 568.791 255.533, 567.801 251.004, 567.449 249.176 C 567.097 247.347, 565.570 244.422, 564.056 242.676 C 562.542 240.929, 559.621 237.250, 557.564 234.500 C 546.878 220.211, 525.654 212.958, 507.500 217.391 M 513 221.602 C 511.075 222.440, 506.655 223.724, 503.178 224.456 C 499.702 225.187, 495.877 226.682, 494.678 227.778 C 493.480 228.874, 491.476 230.081, 490.223 230.461 C 488.971 230.841, 487.181 232.355, 486.245 233.826 C 485.309 235.297, 482.286 239.425, 479.528 243 C 474.621 249.360, 474.499 249.684, 473.911 258 C 473.580 262.675, 473.614 270.641, 473.986 275.703 C 474.560 283.509, 475.097 285.558, 477.522 289.203 C 481.459 295.118, 489.110 303, 490.915 303 C 491.734 303, 493.776 304.305, 495.452 305.900 C 498.952 309.231, 511.729 313.183, 519 313.183 C 526.271 313.183, 539.048 309.231, 542.548 305.900 C 544.224 304.305, 546.296 303, 547.153 303 C 548.009 303, 550.913 300.564, 553.605 297.586 C 563.144 287.035, 563.306 286.701, 564.025 276.118 C 565.027 261.358, 563.971 249.679, 561.377 246.830 C 560.209 245.549, 557.330 241.647, 554.978 238.161 C 552.627 234.674, 549.532 231.317, 548.101 230.700 C 546.671 230.083, 544.294 228.604, 542.821 227.413 C 541.347 226.222, 537.999 224.927, 535.380 224.534 C 532.761 224.141, 528.437 222.961, 525.772 221.910 C 519.995 219.633, 517.653 219.576, 513 221.602 M 382 225.451 C 377.875 226.182, 369.550 227.102, 363.500 227.495 C 356.443 227.953, 350.887 228.882, 348 230.086 C 345.525 231.119, 339.900 232.847, 335.500 233.926 C 323.425 236.888, 310.793 240.894, 309.051 242.314 C 308.198 243.010, 305.925 244.367, 304 245.330 C 302.075 246.294, 297.350 248.924, 293.500 251.175 C 289.650 253.427, 284.365 256.333, 281.756 257.634 C 279.147 258.935, 271.497 264.828, 264.756 270.731 C 249.808 283.819, 245.763 287.772, 239.422 295.491 C 236.715 298.785, 231.785 304.635, 228.467 308.491 C 220.262 318.024, 217.673 321.976, 207.661 340.259 C 199.632 354.919, 192 373.820, 192 379.045 C 192 380.153, 190.862 383.765, 189.471 387.070 C 187.587 391.544, 186.802 395.560, 186.395 402.790 C 186.095 408.130, 184.963 418.884, 183.880 426.686 C 182.027 440.026, 182.004 441.397, 183.484 449.686 C 184.350 454.534, 185.474 464.462, 185.982 471.749 C 186.635 481.122, 187.480 486.296, 188.869 489.436 C 189.949 491.878, 191.372 496.491, 192.032 499.688 C 192.691 502.884, 194.043 507.750, 195.035 510.500 C 196.027 513.250, 197.151 517.075, 197.531 519 C 197.912 520.925, 201.436 528.209, 205.362 535.187 C 209.288 542.165, 213.650 550.147, 215.056 552.926 C 217.573 557.903, 240.169 585.062, 247.660 592.115 C 249.772 594.103, 254.200 597.871, 257.500 600.488 C 260.800 603.104, 266.289 607.913, 269.698 611.173 C 274.028 615.313, 280.509 619.675, 291.198 625.640 C 299.614 630.336, 306.950 634.544, 307.500 634.990 C 309.526 636.634, 324.787 642.029, 330.286 643.045 C 333.405 643.622, 337.995 644.995, 340.486 646.097 C 342.977 647.199, 349.849 648.741, 355.757 649.524 C 361.666 650.308, 371 651.632, 376.500 652.468 C 389.944 654.512, 404.807 654.381, 420.500 652.083 C 427.650 651.035, 436.425 649.871, 440 649.496 C 443.575 649.121, 450.325 647.543, 455 645.990 C 459.675 644.437, 465.300 642.865, 467.500 642.497 C 473.855 641.433, 480.517 638.598, 494.500 631.008 C 512.596 621.185, 518.054 617.463, 532.640 605 C 551.689 588.724, 553.316 587.132, 563.500 574.831 C 578.424 556.804, 577.647 557.975, 589.267 536 C 590.866 532.975, 592.739 529.825, 593.429 529 C 595.058 527.051, 600.599 510.961, 601.904 504.390 C 602.462 501.579, 603.827 496.977, 604.936 494.161 C 606.046 491.346, 607.441 484.871, 608.036 479.771 C 608.631 474.672, 609.744 466.675, 610.510 462 C 612.908 447.351, 613.231 439.922, 612.074 426 C 610.746 410.011, 607.765 392.592, 604.458 381.500 C 603.147 377.100, 601.773 372.150, 601.404 370.500 C 601.036 368.850, 599.720 365.250, 598.481 362.500 C 597.241 359.750, 594.107 352.809, 591.516 347.076 C 588.925 341.342, 585.611 334.869, 584.152 332.692 C 577.860 323.299, 575.883 320.234, 573.270 315.820 C 570.327 310.847, 566.590 308, 563.006 308 C 561.766 308, 558.155 310.390, 554.660 313.523 C 550.178 317.541, 547.001 319.477, 543 320.626 C 536.562 322.474, 529.473 326.325, 528.674 328.408 C 527.832 330.603, 530.027 374.109, 531.129 377.059 C 531.655 378.467, 533.303 380.347, 534.792 381.238 C 540.947 384.918, 546.142 391.597, 548.539 398.916 L 550.875 406.050 548.463 412.701 C 544.816 422.756, 538 428.800, 528.500 430.405 C 520.498 431.757, 519.827 432.396, 514 444.225 C 507.008 458.417, 504.695 461.977, 497.161 470.135 C 489.166 478.792, 483.357 482.383, 473.160 484.972 C 465.121 487.012, 464.562 487.029, 457.660 485.449 C 446.528 482.899, 433.975 478.078, 430.500 475.019 C 429.400 474.050, 425.125 471.027, 421 468.301 C 408.104 459.777, 392.749 448.941, 388.903 445.649 C 384.842 442.172, 375.294 436.528, 364.510 431.228 C 351.940 425.050, 339.650 423.795, 329.849 427.688 C 325.452 429.434, 324.781 431.451, 326.144 438.821 C 327.445 445.859, 326.507 452.216, 323.647 455.745 C 322.419 457.260, 320.642 459.728, 319.698 461.229 C 316.746 465.922, 312.917 467.167, 301.434 467.167 C 289.011 467.167, 286.702 466.119, 281.296 458.033 C 278.251 453.478, 277.525 451.399, 277.184 446.271 C 276.625 437.867, 277.461 434.156, 281.177 428.546 C 283.784 424.611, 285.609 423.214, 291.909 420.332 C 299.894 416.679, 303.370 416.417, 309.533 419.002 C 312.355 420.186, 313.258 419.935, 322.533 415.387 C 332.234 410.630, 332.721 410.505, 340.799 410.696 C 349.410 410.900, 359.308 413.921, 369.992 419.609 C 372.463 420.924, 375.001 422, 375.633 422 C 377.208 422, 393.354 432.686, 400.763 438.633 C 404.099 441.310, 411.704 446.616, 417.664 450.425 C 423.624 454.234, 431.436 459.264, 435.025 461.602 C 438.613 463.941, 445.363 467.716, 450.025 469.992 C 457.897 473.835, 459 474.107, 465.536 473.806 C 471.542 473.530, 473.357 472.980, 477.923 470.049 C 484.597 465.767, 500.539 447.982, 502.079 443.102 C 502.704 441.121, 504.382 437.771, 505.807 435.658 C 509.283 430.506, 509.227 425.891, 505.644 422.150 C 504.037 420.473, 502.039 416.446, 500.854 412.494 C 499.068 406.541, 498.972 405.153, 500.067 401.107 C 502.185 393.283, 504.561 389.703, 511.353 384.104 C 514.953 381.135, 518.134 378.092, 518.423 377.340 C 518.711 376.588, 518.545 372.717, 518.052 368.737 C 517.560 364.756, 516.619 354.525, 515.960 346 C 515.302 337.475, 514.362 329.732, 513.870 328.794 C 513.379 327.855, 511.519 326.636, 509.738 326.084 C 499.810 323.008, 489.484 318.879, 487.626 317.242 C 485.654 315.505, 483.889 314.246, 477.191 309.802 C 475.783 308.869, 473.702 306.337, 472.566 304.177 C 471.430 302.017, 468.641 297.507, 466.369 294.154 C 463.264 289.572, 462.063 286.658, 461.534 282.424 C 461.147 279.325, 460.167 274.559, 459.358 271.833 C 458.224 268.015, 458.135 266.121, 458.971 263.588 C 459.568 261.780, 460.480 257.692, 460.999 254.505 C 461.518 251.317, 463.121 246.455, 464.562 243.700 C 467.910 237.296, 466.974 234.385, 461.296 233.549 C 459.208 233.241, 454.800 232.060, 451.500 230.925 C 444.903 228.655, 416.867 225.170, 400 224.524 C 393.802 224.286, 386.427 224.666, 382 225.451 M 373 230.987 C 365.222 231.498, 358.234 232.561, 354.500 233.801 C 351.200 234.897, 346.475 236.110, 344 236.496 C 341.525 236.883, 337.475 238.089, 335 239.176 C 332.525 240.264, 327.929 241.576, 324.786 242.093 C 318.547 243.118, 311.002 246.781, 289.324 259.308 C 279.115 265.208, 271.419 270.663, 261.824 278.804 C 254.496 285.021, 247.486 291.546, 246.246 293.304 C 245.007 295.062, 242.904 298.075, 241.573 300 C 240.242 301.925, 236.370 306.650, 232.970 310.500 C 227.003 317.255, 218 329.893, 218 331.515 C 218 331.948, 216.029 335.723, 213.620 339.902 C 204.587 355.572, 202.611 359.706, 200.424 367.500 C 199.189 371.900, 197.524 377.525, 196.723 380 C 194.779 386.010, 191.968 397.333, 190.889 403.500 C 187.872 420.742, 188.863 473.949, 192.356 482.310 C 193.218 484.372, 194.406 488.725, 194.997 491.983 C 195.588 495.241, 196.928 499.843, 197.974 502.209 C 199.021 504.576, 200.317 509.209, 200.853 512.506 C 201.390 515.803, 203.330 521.327, 205.164 524.783 C 212.631 538.847, 214.058 541.439, 215.698 543.914 C 216.641 545.336, 218.434 548.525, 219.684 551 C 225.185 561.893, 252.755 592.950, 262.522 599.255 C 264.710 600.667, 269.875 604.836, 274 608.519 C 278.125 612.201, 283.750 616.307, 286.500 617.641 C 291.690 620.160, 296.603 622.855, 308.500 629.706 C 312.350 631.924, 317.885 634.247, 320.800 634.869 C 323.715 635.491, 327.465 636.706, 329.134 637.569 C 330.803 638.432, 334.884 639.576, 338.205 640.110 C 341.525 640.645, 346.100 642.036, 348.371 643.201 C 351.717 644.918, 355.250 645.470, 367 646.111 C 374.975 646.546, 385.325 647.421, 390 648.054 C 396.361 648.915, 400.010 648.920, 404.500 648.071 C 407.800 647.447, 417.250 646.674, 425.500 646.353 C 438.164 645.859, 441.357 645.403, 446 643.425 C 449.025 642.136, 454.076 640.631, 457.225 640.079 C 460.374 639.528, 464.312 638.373, 465.976 637.513 C 467.640 636.652, 471.278 635.516, 474.062 634.988 C 477.179 634.397, 483.993 631.281, 491.811 626.871 C 498.790 622.934, 506.298 618.814, 508.496 617.714 C 516.180 613.871, 542.373 591.690, 553.206 579.853 C 561.390 570.911, 576 552.230, 576 550.708 C 576 549.656, 586.175 531.194, 589.645 525.951 C 590.937 523.999, 592.487 519.733, 593.090 516.471 C 593.693 513.209, 594.852 509.253, 595.666 507.679 C 596.480 506.105, 597.815 501.596, 598.633 497.659 C 599.452 493.721, 600.953 488.700, 601.969 486.500 C 603.859 482.408, 606.366 455.769, 606.439 439 C 606.511 422.315, 604.118 398.104, 601.615 390.195 C 600.275 385.963, 598.747 380.250, 598.218 377.500 C 597.256 372.499, 595.109 366.769, 589.974 355.500 C 583.370 341.009, 580.553 335.337, 578.798 333 C 576.098 329.403, 570.032 319.956, 568.409 316.821 C 565.940 312.052, 563.495 312.270, 557.109 317.824 C 553.645 320.837, 549.659 323.284, 547.087 323.977 C 544.738 324.609, 540.495 326.385, 537.658 327.923 L 532.500 330.720 532.821 339.610 C 532.998 344.499, 533.785 352.658, 534.571 357.739 C 535.357 362.821, 535.997 368.896, 535.993 371.239 C 535.987 375.184, 536.459 375.944, 542.365 381.500 C 551.186 389.798, 555.349 397.438, 555.387 405.398 C 555.422 412.679, 553.491 416.857, 545.991 425.726 C 540.225 432.544, 538.128 433.696, 529.538 434.761 C 524.536 435.381, 523.384 435.902, 522.382 438 C 510.987 461.854, 508.493 465.662, 496.762 477.112 C 490.504 483.221, 487.396 485.409, 481.220 488.052 C 471.851 492.061, 462.669 492.992, 455.358 490.673 C 440.329 485.909, 430.894 481.680, 425.500 477.292 C 423.850 475.950, 419.800 473.089, 416.500 470.936 C 401.012 460.829, 396.033 457.381, 390 452.583 C 386.425 449.740, 381.700 446.347, 379.500 445.042 C 367.989 438.218, 361.106 434.811, 357.029 433.919 C 354.538 433.375, 350.248 432.008, 347.496 430.882 L 342.491 428.836 337.005 430.998 C 333.988 432.187, 331.223 433.639, 330.861 434.225 C 330.499 434.810, 330.917 437.216, 331.789 439.570 C 333.274 443.576, 333.252 444.220, 331.438 449.624 C 330.372 452.800, 328.491 456.771, 327.257 458.449 C 326.023 460.127, 324.076 462.947, 322.929 464.715 C 320.404 468.607, 312.441 472.609, 305.463 473.492 C 299.406 474.258, 288.185 471.720, 284.374 468.723 C 282.962 467.612, 279.825 463.980, 277.403 460.651 L 273 454.600 273 443.234 C 273 436.518, 273.476 430.975, 274.162 429.684 C 276.102 426.040, 282.214 420.079, 287.479 416.698 C 292.402 413.536, 292.600 413.500, 305.038 413.490 C 315.972 413.481, 317.989 413.220, 320.449 411.490 C 324.963 408.317, 325.212 408.200, 331.183 406.442 C 335.772 405.091, 337.793 404.973, 341.683 405.829 C 344.332 406.412, 349.200 407.182, 352.500 407.539 C 355.800 407.896, 360.525 409.247, 363 410.541 C 365.475 411.835, 371.100 414.579, 375.500 416.640 C 383.758 420.508, 393.158 426.509, 401 432.919 C 405.747 436.800, 418.220 445.447, 422.793 448.028 C 424.282 448.869, 428.152 451.344, 431.393 453.528 C 434.634 455.713, 438.459 458.162, 439.893 458.972 C 441.327 459.782, 444.274 461.533, 446.442 462.863 C 453.961 467.478, 464.353 469.096, 472.500 466.921 C 479.081 465.164, 493.220 449.787, 499.377 437.690 L 504.254 428.109 501.264 424.304 C 494.673 415.918, 492.889 408.668, 494.962 398.685 C 496.048 393.451, 496.892 392.190, 504.635 384.225 C 512.414 376.225, 513.070 375.240, 512.537 372.370 C 512.216 370.649, 511.731 360.804, 511.457 350.492 C 511.184 340.181, 510.755 331.413, 510.504 331.007 C 510.254 330.601, 508.350 329.995, 506.274 329.660 C 497.905 328.309, 487.926 323.548, 480.183 317.213 C 475.958 313.755, 471.600 309.632, 470.500 308.051 C 469.400 306.470, 466.429 302.325, 463.897 298.838 C 459.203 292.375, 456.014 283.991, 453.934 272.647 C 452.635 265.562, 454.694 253.637, 458.667 245.239 C 460.051 242.313, 460.957 239.331, 460.681 238.612 C 460.384 237.837, 457.643 237.039, 453.956 236.653 C 450.534 236.295, 444.305 234.920, 440.115 233.596 C 433.239 231.424, 430.202 231.139, 408.998 230.677 C 396.074 230.396, 379.875 230.535, 373 230.987 M 864.591 343.446 C 856.963 346.232, 856.500 347.324, 856.500 362.505 C 856.500 375.869, 856.518 375.972, 859.271 378.727 L 862.043 381.500 908.271 382 L 954.500 382.500 959.861 385.323 C 970.189 390.762, 972.380 395.401, 971.850 410.710 C 971.522 420.161, 971.299 421.088, 968.373 425.155 C 966.060 428.370, 963.719 430.144, 959.373 431.977 L 953.500 434.455 909.500 434.977 C 867.416 435.477, 865.348 435.589, 862.002 437.555 C 860.078 438.685, 857.948 440.710, 857.267 442.055 C 856.343 443.881, 856.026 455.168, 856.015 486.661 L 856 528.822 859.250 531.563 C 864.215 535.749, 868.219 537, 876.652 537 C 885.174 537, 890.775 534.997, 895.084 530.410 C 897.499 527.839, 897.500 527.830, 897.635 502.509 C 897.710 488.578, 898.074 476.690, 898.444 476.090 C 898.899 475.354, 906.817 474.991, 922.809 474.973 C 953.540 474.938, 962.706 474.030, 973.205 469.981 C 977.737 468.234, 982.729 465.723, 984.299 464.402 C 985.869 463.081, 987.602 462, 988.151 462 C 989.674 462, 1000.764 451.101, 1004.419 446.013 C 1006.264 443.443, 1009.077 437.048, 1010.951 431.159 C 1014.202 420.945, 1014.236 420.638, 1013.727 406.159 C 1013.265 393.051, 1012.902 390.707, 1010.297 384 C 1004.067 367.966, 992.638 356.185, 975.500 348.130 C 965.489 343.425, 958.356 342.794, 910.500 342.380 C 875.922 342.082, 867.809 342.270, 864.591 343.446 M 1139.333 343.050 C 1135.166 344.319, 1131.649 348.641, 1129.012 355.734 C 1127.833 358.905, 1126.292 362.400, 1125.588 363.500 C 1124.883 364.600, 1123.529 367.857, 1122.577 370.738 C 1121.626 373.619, 1120.466 376.212, 1120 376.500 C 1119.534 376.788, 1118.370 379.381, 1117.414 382.262 C 1116.458 385.143, 1114.623 389.480, 1113.338 391.899 C 1112.052 394.318, 1111 396.914, 1111 397.668 C 1111 398.421, 1109.650 401.568, 1108 404.660 C 1106.350 407.752, 1104.998 411.006, 1104.995 411.891 C 1104.992 412.776, 1103.881 415.300, 1102.526 417.500 C 1101.171 419.700, 1100.048 422.242, 1100.031 423.148 C 1100.014 424.055, 1098.650 427.363, 1097 430.500 C 1095.350 433.637, 1094 436.765, 1094 437.453 C 1094 438.140, 1092.946 440.684, 1091.658 443.106 C 1090.371 445.528, 1088.741 449.308, 1088.037 451.505 C 1087.333 453.702, 1085.976 456.850, 1085.021 458.500 C 1081.943 463.816, 1078.683 474.600, 1079.350 477.257 C 1079.696 478.637, 1081.290 481.169, 1082.891 482.883 L 1085.802 486 1100.710 486 C 1111.152 486, 1116.077 485.626, 1117.150 484.750 C 1119.207 483.073, 1123.427 475.437, 1125.024 470.505 C 1125.735 468.308, 1127.371 464.528, 1128.658 462.106 C 1129.946 459.684, 1131.002 456.982, 1131.005 456.101 C 1131.008 455.220, 1132.119 452.700, 1133.474 450.500 C 1134.829 448.300, 1135.952 445.758, 1135.969 444.852 C 1135.986 443.945, 1137.350 440.637, 1139 437.500 C 1140.650 434.363, 1142 431.244, 1142 430.568 C 1142 429.892, 1143.134 427.125, 1144.520 424.419 C 1145.905 421.714, 1147.721 417.193, 1148.555 414.373 C 1151.119 405.699, 1156.083 403.374, 1157.504 410.182 C 1157.885 412.007, 1159.277 415.380, 1160.598 417.678 C 1161.919 419.976, 1163 422.475, 1163 423.232 C 1163 423.988, 1164.085 426.833, 1165.410 429.554 C 1168.369 435.626, 1172.612 445.811, 1174.974 452.513 C 1175.946 455.270, 1177.698 459.095, 1178.867 461.013 C 1180.036 462.931, 1181.008 465.175, 1181.028 466 C 1181.047 466.825, 1182.399 470.189, 1184.031 473.475 C 1185.664 476.761, 1187 480.096, 1187 480.887 C 1187 481.677, 1188.154 484.294, 1189.565 486.700 C 1190.975 489.107, 1191.988 492.072, 1191.815 493.288 L 1191.500 495.500 1132.305 496 L 1073.110 496.500 1069.574 499.928 C 1067.629 501.813, 1065.545 504.963, 1064.943 506.928 C 1064.341 508.893, 1062.797 512.525, 1061.512 515 C 1058.514 520.773, 1057.528 527.700, 1059.238 530.970 C 1059.948 532.328, 1062.052 534.466, 1063.912 535.720 L 1067.296 538 1153.698 538 C 1227.912 538, 1240.502 537.792, 1242.953 536.524 C 1246.013 534.942, 1250 529.327, 1250 526.600 C 1250 524.031, 1246.054 512.864, 1243.915 509.382 C 1242.862 507.667, 1242 505.618, 1242 504.828 C 1242 504.039, 1240.915 501.167, 1239.590 498.446 C 1236.818 492.757, 1232.537 482.594, 1230.081 475.872 C 1229.151 473.327, 1227.664 470.136, 1226.777 468.782 C 1225.889 467.427, 1224.640 464.376, 1224 462 C 1223.360 459.624, 1222.205 456.716, 1221.432 455.537 C 1220.660 454.358, 1219.161 450.874, 1218.102 447.796 C 1217.042 444.717, 1215.511 441.141, 1214.699 439.849 C 1213.887 438.557, 1212.722 435.925, 1212.110 434 C 1211.497 432.075, 1209.872 428.286, 1208.498 425.581 C 1207.124 422.875, 1205.998 419.950, 1205.995 419.081 C 1205.992 418.211, 1204.881 415.700, 1203.526 413.500 C 1202.171 411.300, 1201.048 408.758, 1201.031 407.852 C 1201.014 406.945, 1199.650 403.637, 1198 400.500 C 1196.350 397.363, 1194.998 394.280, 1194.996 393.648 C 1194.994 393.017, 1193.646 389.800, 1192 386.500 C 1190.354 383.200, 1189.006 379.925, 1189.004 379.221 C 1189.002 378.518, 1187.650 375.269, 1186 372 C 1184.350 368.731, 1183 365.566, 1183 364.966 C 1183 364.365, 1181.716 361.090, 1180.147 357.687 C 1178.577 354.284, 1176.797 350.284, 1176.190 348.798 C 1174.191 343.904, 1169.958 342.578, 1155.500 342.319 C 1148.350 342.190, 1141.075 342.519, 1139.333 343.050 M 1320 342.647 C 1314.551 344.423, 1311.080 346.530, 1310.115 348.647 C 1308.691 351.773, 1308.657 373.153, 1310.071 376.257 C 1312.468 381.517, 1311.972 381.463, 1363 382 L 1410.500 382.500 1414.500 384.914 C 1421.426 389.095, 1424.844 393.054, 1427.607 400.096 C 1431.259 409.405, 1430.533 414.079, 1424.368 420.936 C 1420.708 425.006, 1418.568 426.395, 1413.172 428.201 C 1406.768 430.345, 1404.674 430.456, 1361 430.967 C 1312.322 431.537, 1311.868 431.588, 1309.952 436.626 C 1309.401 438.077, 1309 458.035, 1309 484.065 C 1309 534.858, 1308.288 530.541, 1317.389 534.946 C 1321.502 536.937, 1323.274 537.184, 1330.869 536.821 C 1337.775 536.490, 1340.399 535.916, 1343.357 534.088 C 1350.497 529.676, 1350.487 529.721, 1350.607 499.736 C 1350.679 481.648, 1351.074 472.526, 1351.816 471.784 C 1353 470.600, 1388.144 470.276, 1391.734 471.416 C 1393.804 472.072, 1397.677 477.551, 1410.532 498 C 1411.742 499.925, 1415.380 505.550, 1418.616 510.500 C 1421.852 515.450, 1424.807 520.243, 1425.181 521.151 C 1426.678 524.778, 1433.419 532.628, 1436.856 534.745 C 1440.066 536.723, 1441.844 536.990, 1451.790 536.995 C 1464.025 537, 1469.167 535.455, 1472.434 530.791 C 1475.840 525.928, 1474.849 523.464, 1460.998 502.359 C 1458.523 498.587, 1456.048 494.776, 1455.498 493.890 C 1454.305 491.966, 1452.816 489.720, 1443.697 476.083 C 1435.418 463.702, 1435.438 462.451, 1444.003 457.343 C 1458.559 448.660, 1466.926 435.687, 1469.400 417.965 C 1470.762 408.207, 1470.730 406.546, 1468.978 395.465 C 1466.128 377.442, 1460.835 367.998, 1447.689 357.482 C 1430.345 343.607, 1421.334 342.008, 1361 342.098 C 1339.275 342.131, 1320.825 342.378, 1320 342.647 M 1601.500 343.863 C 1596.710 346.043, 1595.654 347.258, 1593.995 352.500 C 1593.300 354.700, 1591.666 358.340, 1590.365 360.588 C 1589.064 362.836, 1588 365.357, 1588 366.189 C 1588 367.021, 1586.946 369.684, 1585.658 372.106 C 1584.371 374.528, 1582.795 378.083, 1582.157 380.005 C 1581.519 381.927, 1579.872 385.714, 1578.498 388.419 C 1577.124 391.125, 1576 394.063, 1576 394.947 C 1576 395.831, 1575.315 397.533, 1574.478 398.728 C 1572.794 401.133, 1567.757 412.735, 1565.022 420.513 C 1564.052 423.270, 1562.302 427.095, 1561.133 429.013 C 1559.964 430.931, 1559.006 433.129, 1559.004 433.899 C 1559.002 434.668, 1557.688 438.043, 1556.085 441.399 C 1551.702 450.574, 1547 461.540, 1547 462.588 C 1547 463.098, 1545.835 465.704, 1544.411 468.379 C 1541.092 474.614, 1541.689 478.641, 1546.566 482.924 L 1550.070 486 1564.479 486 C 1581.465 486, 1581.680 485.889, 1586.738 474.500 C 1588.448 470.650, 1591.231 464.491, 1592.924 460.813 C 1594.616 457.135, 1596 453.635, 1596 453.034 C 1596 452.434, 1597.350 449.269, 1599 446 C 1600.650 442.731, 1602 439.478, 1602 438.771 C 1602 438.063, 1603.064 435.463, 1604.364 432.992 C 1605.664 430.521, 1607.307 426.700, 1608.015 424.500 C 1608.724 422.300, 1609.954 419.499, 1610.749 418.276 C 1611.545 417.053, 1612.764 414.128, 1613.458 411.776 C 1614.567 408.020, 1615.072 407.500, 1617.609 407.500 C 1620.233 407.500, 1620.695 408.050, 1622.656 413.500 C 1625.531 421.491, 1629.631 431.375, 1632.590 437.446 C 1633.915 440.167, 1635.014 443.092, 1635.031 443.946 C 1635.048 444.801, 1636.171 447.300, 1637.526 449.500 C 1638.881 451.700, 1639.992 454.139, 1639.995 454.920 C 1640 456.398, 1644.065 466.092, 1649.085 476.601 C 1650.688 479.957, 1652 483.243, 1652 483.903 C 1652 484.564, 1652.978 486.803, 1654.173 488.880 C 1658.526 496.443, 1662.097 496, 1596.781 496.004 C 1528.294 496.008, 1534.414 494.919, 1528.146 508.221 C 1523.384 518.326, 1522 522.393, 1522 526.281 C 1522 530.130, 1525.569 535.886, 1528.692 537.073 C 1530.121 537.616, 1566.786 537.998, 1617.315 537.996 C 1700.977 537.993, 1703.594 537.935, 1706.696 536.044 C 1714.092 531.534, 1714.899 523.653, 1709.089 512.648 C 1707.390 509.430, 1705.986 506.055, 1705.969 505.148 C 1705.952 504.242, 1704.829 501.700, 1703.474 499.500 C 1702.119 497.300, 1701.008 494.776, 1701.005 493.891 C 1701.002 493.006, 1699.650 489.752, 1698 486.660 C 1696.350 483.568, 1694.998 480.467, 1694.996 479.769 C 1694.994 479.071, 1693.646 475.800, 1692 472.500 C 1690.354 469.200, 1689 465.825, 1688.992 465 C 1688.983 464.175, 1687.856 461.542, 1686.488 459.148 C 1685.120 456.754, 1684 454.243, 1684 453.567 C 1684 452.892, 1682.860 450.125, 1681.466 447.419 C 1680.072 444.714, 1678.099 440.250, 1677.081 437.500 C 1673.992 429.158, 1670.002 419.706, 1667.946 415.864 C 1666.876 413.864, 1666 411.610, 1666 410.856 C 1666 410.101, 1664.937 407.463, 1663.638 404.992 C 1662.339 402.521, 1660.505 398.143, 1659.562 395.262 C 1658.619 392.381, 1657.466 389.788, 1657 389.500 C 1656.534 389.212, 1655.370 386.619, 1654.414 383.738 C 1653.458 380.857, 1651.623 376.520, 1650.338 374.101 C 1649.052 371.682, 1648 369.062, 1648 368.279 C 1648 367.496, 1646.919 364.976, 1645.598 362.678 C 1644.277 360.380, 1642.897 357.064, 1642.531 355.308 C 1641.434 350.037, 1636.787 344.552, 1632.272 343.200 C 1625.796 341.259, 1606.300 341.680, 1601.500 343.863 M 1780.500 343.529 C 1778.300 344.321, 1776.365 344.977, 1776.199 344.985 C 1776.033 344.993, 1775.246 346.561, 1774.449 348.468 C 1772.937 352.086, 1772.538 371.135, 1773.873 375.910 C 1774.244 377.235, 1775.806 379.260, 1777.345 380.410 C 1780.054 382.434, 1781.520 382.517, 1823.821 383.054 C 1863.950 383.562, 1867.928 383.767, 1872.762 385.568 C 1880.121 388.310, 1883.726 391.987, 1884.569 397.610 C 1885.721 405.292, 1884.154 409.734, 1878.650 414.394 L 1873.800 418.500 1827.150 419 C 1776.013 419.548, 1777.479 419.363, 1774.500 425.642 C 1772.692 429.452, 1772.429 447.063, 1774.108 451.881 C 1776.392 458.432, 1776.445 458.439, 1827.500 459.058 C 1867.269 459.541, 1874.205 459.849, 1878.703 461.333 C 1887.842 464.348, 1893 470.610, 1893 478.689 C 1893 483.509, 1889.428 490.706, 1885.678 493.441 C 1882.940 495.439, 1881.347 495.515, 1832 496 C 1782.327 496.488, 1781.078 496.549, 1778.322 498.596 C 1773.759 501.986, 1773.030 504.515, 1773.018 517 C 1773.009 526.658, 1773.320 529.013, 1774.960 531.701 C 1778.975 538.287, 1777.938 538.176, 1831.332 537.772 C 1877.889 537.419, 1879.713 537.334, 1885.880 535.204 C 1889.389 533.992, 1892.991 533, 1893.884 533 C 1894.777 533, 1898.655 531.487, 1902.503 529.638 C 1906.352 527.789, 1910.066 526.100, 1910.757 525.885 C 1913.605 525.001, 1926.005 511.511, 1927.114 508.091 C 1927.754 506.116, 1929.145 503.264, 1930.205 501.753 C 1932.897 497.915, 1934.312 487.371, 1933.801 474.956 C 1933.382 464.767, 1933.223 464.150, 1929.079 456.644 C 1926.721 452.371, 1922.363 446.389, 1919.396 443.349 C 1912.993 436.791, 1912.723 434.826, 1917.390 428.712 C 1919.924 425.392, 1921.439 421.639, 1923.390 413.847 C 1924.825 408.114, 1926 401.512, 1926 399.175 C 1926 393, 1922.101 378.427, 1919.372 374.407 C 1918.080 372.503, 1916.357 369.658, 1915.544 368.085 C 1912.570 362.333, 1902.051 353.077, 1893.824 348.972 C 1886.632 345.384, 1884.555 344.854, 1872.336 343.500 C 1853.443 341.405, 1786.336 341.426, 1780.500 343.529 M 2262.243 343.931 C 2259.596 345.161, 2257.605 346.908, 2256.981 348.549 C 2255.566 352.273, 2255.608 527.399, 2257.025 530.047 C 2257.601 531.123, 2260.291 533.127, 2263.003 534.501 C 2272.071 539.097, 2287.810 537.436, 2293.253 531.309 C 2296.782 527.336, 2297.051 520.050, 2296.773 435.902 C 2296.508 355.788, 2296.444 353.389, 2294.500 349.500 C 2291.706 343.911, 2288.383 342.570, 2276.500 342.235 C 2268.235 342.001, 2265.761 342.296, 2262.243 343.931 M 2513.500 343.175 C 2511.850 343.776, 2509.982 344.676, 2509.349 345.174 C 2507.958 346.269, 2501 360.161, 2501 361.843 C 2501 362.500, 2499.650 365.568, 2498 368.660 C 2496.350 371.752, 2495 374.847, 2495 375.539 C 2495 376.231, 2493.650 379.363, 2492 382.500 C 2490.350 385.637, 2488.986 388.945, 2488.969 389.852 C 2488.952 390.758, 2487.829 393.300, 2486.474 395.500 C 2485.119 397.700, 2484.008 400.224, 2484.005 401.109 C 2484.002 401.994, 2482.650 405.248, 2481 408.340 C 2479.350 411.432, 2478 414.579, 2478 415.332 C 2478 416.086, 2476.946 418.684, 2475.658 421.106 C 2474.371 423.528, 2472.727 427.308, 2472.007 429.505 C 2471.286 431.702, 2470.096 434.424, 2469.362 435.553 C 2468.628 436.683, 2467.159 440.058, 2466.097 443.053 C 2465.035 446.049, 2463.229 450.283, 2462.083 452.461 C 2460.938 454.640, 2460 457.035, 2460 457.783 C 2460 458.532, 2458.877 461.060, 2457.504 463.403 C 2454.368 468.754, 2453.297 475.888, 2455.009 480.021 C 2457.125 485.130, 2460.185 486, 2476.049 486 L 2490.198 486 2493.033 482.965 C 2494.592 481.296, 2496.397 478.258, 2497.044 476.215 C 2497.691 474.172, 2499.010 471.113, 2499.977 469.419 C 2500.943 467.724, 2502.293 464.574, 2502.977 462.419 C 2503.660 460.263, 2505.010 457.113, 2505.977 455.419 C 2506.943 453.724, 2508.294 450.574, 2508.978 448.419 C 2509.663 446.263, 2510.884 443.449, 2511.691 442.163 C 2512.499 440.878, 2513.977 437.503, 2514.976 434.663 C 2516.870 429.281, 2520.894 419.362, 2523.967 412.500 C 2524.953 410.300, 2526.024 407.712, 2526.348 406.750 C 2527.243 404.092, 2529.922 404.658, 2531.077 407.750 C 2531.641 409.262, 2532.980 412.330, 2534.052 414.566 C 2535.123 416.802, 2536 419.173, 2536 419.835 C 2536 420.496, 2537.350 423.568, 2539 426.660 C 2540.650 429.752, 2542.014 433.006, 2542.031 433.891 C 2542.049 434.776, 2543.399 438.189, 2545.031 441.475 C 2546.664 444.761, 2548.014 448.136, 2548.031 448.975 C 2548.048 449.814, 2549.171 452.300, 2550.526 454.500 C 2551.881 456.700, 2552.992 459.211, 2552.995 460.081 C 2552.998 460.950, 2554.124 463.875, 2555.498 466.581 C 2556.872 469.286, 2558.515 473.075, 2559.150 475 C 2559.784 476.925, 2561.585 481.031, 2563.152 484.124 C 2566.334 490.406, 2566.792 494.482, 2564.418 495.393 C 2563.548 495.727, 2537.478 496, 2506.483 496 C 2473.659 496, 2449.096 496.393, 2447.653 496.942 C 2444.575 498.112, 2439.150 505.852, 2437.451 511.497 C 2436.749 513.829, 2435.235 517.578, 2434.087 519.829 C 2430.920 526.038, 2431.344 528.607, 2436.368 533.632 L 2440.737 538 2528.500 538 L 2616.263 538 2620.632 533.632 C 2625.830 528.433, 2626.190 525.536, 2622.500 518.596 C 2621.125 516.010, 2620 513.306, 2620 512.588 C 2620 511.869, 2618.650 508.752, 2617 505.660 C 2615.350 502.568, 2614 499.473, 2614 498.783 C 2614 498.093, 2612.900 495.272, 2611.555 492.514 C 2609.193 487.669, 2605.778 479.535, 2602.036 469.838 C 2601.046 467.274, 2599.509 464.136, 2598.618 462.866 C 2597.728 461.595, 2597 459.843, 2597 458.974 C 2597 458.104, 2595.915 455.167, 2594.590 452.446 C 2591.631 446.374, 2587.388 436.189, 2585.026 429.487 C 2584.054 426.730, 2582.302 422.905, 2581.133 420.987 C 2579.964 419.069, 2579.006 416.825, 2579.004 416 C 2579.001 415.175, 2577.668 412.025, 2576.039 409 C 2574.411 405.975, 2573.060 402.825, 2573.036 402 C 2573.012 401.175, 2571.646 397.800, 2570 394.500 C 2568.354 391.200, 2567.004 387.825, 2566.999 387 C 2566.994 386.175, 2565.881 383.700, 2564.526 381.500 C 2563.171 379.300, 2562.048 376.789, 2562.031 375.919 C 2562.014 375.050, 2560.876 372.125, 2559.503 369.419 C 2558.130 366.714, 2556.299 362.475, 2555.434 360 C 2552.799 352.458, 2548.496 345.584, 2545.416 344 C 2541.793 342.137, 2518.033 341.522, 2513.500 343.175 M 2751.942 342.903 C 2746.825 344.546, 2745.209 346.054, 2739.831 354.203 C 2736.820 358.766, 2733.611 363.625, 2732.700 365 C 2724.336 377.627, 2720.789 382.942, 2719.020 385.500 C 2717.878 387.150, 2712.695 395.025, 2707.500 403 C 2702.305 410.975, 2697.122 418.850, 2695.980 420.500 C 2694.091 423.231, 2686.364 434.826, 2682.318 441 C 2681.417 442.375, 2679.694 445.075, 2678.490 447 C 2677.286 448.925, 2674.883 452.715, 2673.150 455.421 C 2670.108 460.175, 2670 460.717, 2670 471.303 L 2670 482.263 2674.368 486.632 L 2678.737 491 2713.797 491 C 2744.609 491, 2749.051 491.194, 2750.458 492.601 C 2751.799 493.942, 2752.036 496.676, 2751.917 509.481 C 2751.754 527.110, 2752.427 529.464, 2758.500 532.500 C 2763.938 535.219, 2780.715 535.352, 2786.044 532.719 C 2792.262 529.646, 2793 527.209, 2793 509.751 C 2793 492.578, 2793.562 491, 2799.681 491 C 2803.314 491, 2808.994 487.383, 2810.721 483.970 C 2812.284 480.880, 2812.402 464.452, 2810.892 460.119 C 2809.642 456.534, 2805.925 454.224, 2799.691 453.160 C 2796.682 452.646, 2795.188 451.767, 2794.282 449.975 C 2793.331 448.096, 2793.026 435.981, 2793.015 399.700 C 2792.998 346.950, 2793.086 347.723, 2786.733 344.283 C 2784.145 342.882, 2780.606 342.488, 2769 342.307 C 2761.025 342.184, 2753.349 342.452, 2751.942 342.903 M 2927 343.497 C 2918.317 344.583, 2915.304 345.445, 2909.592 348.481 C 2905.793 350.500, 2900.947 353.581, 2898.825 355.326 C 2892.033 360.912, 2881.471 375.992, 2878.929 383.733 C 2878.249 385.805, 2876.877 389.075, 2875.881 391 C 2874.884 392.925, 2873.608 398.550, 2873.045 403.500 C 2872.482 408.450, 2871.542 414.075, 2870.956 416 C 2869.424 421.036, 2868.637 449.256, 2869.799 457.500 C 2872.608 477.432, 2874.396 486.838, 2875.978 490 C 2876.941 491.925, 2878.278 495.195, 2878.948 497.267 C 2880.255 501.308, 2884.692 508.981, 2889.533 515.572 C 2894.823 522.773, 2904.904 530.264, 2912.300 532.490 C 2914.772 533.234, 2918.152 534.544, 2919.810 535.402 C 2927.599 539.430, 2952.488 539.302, 2960.691 535.192 C 2962.786 534.143, 2965.850 532.963, 2967.500 532.571 C 2971.587 531.600, 2979.593 526.519, 2984.816 521.581 C 2997.830 509.277, 3007.504 485.866, 3009.231 462.500 C 3010.555 444.574, 3009.538 411.119, 3007.452 404 C 3006.566 400.975, 3005.014 395.575, 3004.004 392 C 3000.847 380.823, 2993.047 367.947, 2984.861 360.401 C 2979.833 355.765, 2971.876 350, 2970.505 350 C 2969.841 350, 2967.128 348.846, 2964.477 347.437 C 2961.329 345.763, 2956.932 344.562, 2951.807 343.978 C 2947.490 343.486, 2942.505 342.881, 2940.729 342.633 C 2938.953 342.386, 2932.775 342.775, 2927 343.497 M 3146.619 342.990 C 3142.075 344.421, 3139.502 347.433, 3128.244 364.500 C 3122.439 373.300, 3112.649 388.150, 3106.488 397.500 C 3100.327 406.850, 3091.734 419.819, 3087.393 426.319 C 3078.270 439.980, 3076.066 443.405, 3070.250 452.958 L 3066 459.939 3066 471.624 L 3066 483.310 3070.042 487.155 L 3074.084 491 3108.851 491 C 3135.121 491, 3144.019 491.305, 3145.261 492.250 C 3146.648 493.305, 3146.951 496.115, 3147.202 510.233 L 3147.500 526.967 3150.588 530.053 C 3154.684 534.144, 3164.902 535.937, 3174.631 534.270 C 3187.500 532.066, 3189.181 529.011, 3188.913 508.328 C 3188.701 491.947, 3189.071 491, 3195.688 491 C 3198.082 491, 3200.099 490.002, 3202.997 487.384 L 3207 483.767 3207 471.807 C 3207 460.003, 3206.963 459.809, 3204.163 457.009 C 3202.271 455.117, 3199.826 453.947, 3196.828 453.497 C 3188.909 452.309, 3189.556 456.634, 3189 401.109 C 3188.513 352.396, 3188.448 351.073, 3186.410 348.322 C 3182.699 343.311, 3179.820 342.537, 3164 342.300 C 3156.025 342.180, 3148.204 342.491, 3146.619 342.990 M 2065.500 343.722 C 2064.400 343.991, 2058.818 345.770, 2053.096 347.675 C 2043.573 350.846, 2041.753 351.891, 2031.596 360.023 C 2017.172 371.570, 2009.294 381.098, 2001.951 395.876 C 1996.109 407.633, 1995.034 411.599, 1991.897 432.964 C 1990.981 439.203, 1992.155 451.999, 1995.040 467.211 C 1997.111 478.132, 2008.683 499.135, 2018.289 509.408 C 2023.216 514.677, 2038.024 525.401, 2044.605 528.467 C 2047.847 529.977, 2052.975 531.818, 2056 532.559 C 2059.025 533.300, 2063.283 534.827, 2065.461 535.953 C 2071.689 539.171, 2075.548 538.688, 2080.118 534.118 L 2084 530.235 2084 518.568 C 2084 510.468, 2083.569 506.075, 2082.589 504.200 C 2080.259 499.740, 2075.759 496.200, 2071.500 495.478 C 2061.327 493.753, 2048.989 484.714, 2044.297 475.549 C 2042.903 472.826, 2040.935 469.451, 2039.923 468.049 C 2037.631 464.872, 2033 446.250, 2033 440.209 C 2033 437.738, 2033.863 432.742, 2034.917 429.108 C 2035.972 425.474, 2037.128 420.636, 2037.487 418.358 C 2039.208 407.429, 2055.048 389.949, 2065.873 387.034 C 2072.537 385.240, 2081.564 379.467, 2082.954 376.111 C 2083.755 374.176, 2084.060 369.148, 2083.838 361.501 L 2083.500 349.842 2079.765 346.421 C 2076.658 343.576, 2075.311 343.020, 2071.765 343.116 C 2069.419 343.180, 2066.600 343.452, 2065.500 343.722 M 2102.381 344.096 C 2101.216 344.697, 2099.191 347.059, 2097.881 349.344 C 2095.794 352.986, 2095.507 354.736, 2095.556 363.500 C 2095.597 370.807, 2096.059 374.345, 2097.273 376.636 C 2099.122 380.129, 2107.253 385.183, 2113.902 386.974 C 2118.448 388.198, 2128.593 395.376, 2132.012 399.787 C 2142.727 413.612, 2147.758 431.320, 2145.794 448.296 C 2144.987 455.275, 2139.790 470.394, 2137.769 471.643 C 2137.221 471.981, 2135.903 474.227, 2134.838 476.633 C 2131.397 484.413, 2117.786 493.858, 2107.641 495.505 C 2100.343 496.690, 2096.300 503.184, 2095.394 515.178 C 2094.641 525.140, 2095.828 530.278, 2099.916 534.750 C 2103.514 538.685, 2108.437 539.096, 2114.539 535.971 C 2116.717 534.855, 2121.200 533.247, 2124.500 532.397 C 2127.800 531.548, 2131.400 530.285, 2132.500 529.592 C 2133.600 528.898, 2135.869 527.863, 2137.542 527.290 C 2141.518 525.930, 2160.223 511.820, 2163.191 507.942 C 2164.461 506.284, 2166.681 503.481, 2168.124 501.713 C 2173.138 495.574, 2182.100 476.849, 2184.714 467.052 C 2188.174 454.086, 2189.061 431.553, 2186.491 421.932 C 2185.546 418.395, 2184.338 413.280, 2183.807 410.566 C 2182.889 405.869, 2177.328 393.531, 2172.736 386 C 2165.774 374.583, 2139.262 350, 2133.911 350 C 2132.943 350, 2128.736 348.632, 2124.562 346.961 C 2116.294 343.650, 2105.861 342.303, 2102.381 344.096 M 866.284 345.701 C 865.065 345.937, 862.928 347.485, 861.534 349.142 C 859.193 351.924, 859 352.912, 859 362.126 C 859 373.134, 860.444 377.615, 864.268 378.470 C 865.496 378.744, 886.760 379.088, 911.521 379.234 L 956.543 379.500 962.021 383.150 C 969.963 388.442, 972.010 391.068, 974.118 398.668 C 976.412 406.942, 976.465 410.417, 974.418 418.317 C 972.553 425.512, 968.770 430.280, 961.707 434.336 C 954.735 438.340, 944.840 439.083, 901.067 438.889 L 864.633 438.727 861.817 441.879 L 859 445.032 859 485.434 C 859 507.655, 859.281 526.567, 859.623 527.461 C 860.924 530.852, 867.430 533, 876.395 533 C 885.599 533, 888.819 532.181, 891.960 529.040 C 893.906 527.094, 894 525.833, 894 501.571 C 894 474.219, 894.099 473.681, 899.320 472.517 C 900.519 472.249, 914.100 471.890, 929.500 471.719 C 956.254 471.420, 957.913 471.289, 966.777 468.768 C 971.879 467.317, 977.729 465.089, 979.777 463.817 C 981.825 462.544, 984.743 460.828, 986.262 460.002 C 993.363 456.141, 1007 439.432, 1007 434.592 C 1007 433.438, 1007.938 429.345, 1009.085 425.497 C 1012.043 415.569, 1011.909 404.298, 1008.673 390.904 C 1007.265 385.077, 1005.075 378.644, 1003.807 376.610 C 991.769 357.307, 975.518 347.787, 951.500 345.969 C 939.717 345.078, 870.629 344.860, 866.284 345.701 M 1139.293 346.015 C 1136.571 347.111, 1132.100 354.026, 1130.344 359.856 C 1129.622 362.252, 1128.125 365.680, 1127.016 367.474 C 1125.907 369.268, 1125 371.407, 1125 372.227 C 1125 373.047, 1123.650 376.248, 1122 379.340 C 1120.350 382.432, 1119 385.579, 1119 386.332 C 1119 387.086, 1117.948 389.682, 1116.662 392.101 C 1115.377 394.520, 1113.542 398.857, 1112.586 401.738 C 1111.630 404.619, 1110.466 407.212, 1110 407.500 C 1109.534 407.788, 1108.442 410.156, 1107.573 412.762 C 1106.705 415.368, 1104.870 419.714, 1103.497 422.419 C 1102.124 425.125, 1100.998 428.050, 1100.995 428.919 C 1100.992 429.789, 1099.881 432.300, 1098.526 434.500 C 1097.171 436.700, 1096.048 439.224, 1096.031 440.109 C 1096.014 440.994, 1094.650 444.248, 1093 447.340 C 1091.350 450.432, 1090 453.582, 1090 454.340 C 1090 455.098, 1088.600 458.343, 1086.888 461.551 C 1082.775 469.257, 1081.897 477.421, 1084.795 481 C 1086.721 483.379, 1087.407 483.516, 1099 483.836 C 1105.699 484.020, 1112.195 483.917, 1113.436 483.605 C 1115.015 483.209, 1116.763 480.858, 1119.261 475.770 C 1121.225 471.771, 1123.151 467.405, 1123.541 466.067 C 1123.932 464.729, 1125.320 461.624, 1126.626 459.168 C 1127.931 456.712, 1129 454.086, 1129 453.332 C 1129 452.579, 1130.350 449.432, 1132 446.340 C 1133.650 443.248, 1135 440.153, 1135 439.461 C 1135 438.769, 1136.350 435.637, 1138 432.500 C 1139.650 429.363, 1141.002 426.055, 1141.004 425.148 C 1141.006 424.242, 1141.834 422.145, 1142.844 420.488 C 1143.855 418.831, 1145.469 415.105, 1146.431 412.207 C 1149.347 403.429, 1154.814 398.632, 1157.780 402.250 C 1158.343 402.938, 1159.335 405.525, 1159.984 408 C 1160.632 410.475, 1161.733 413.400, 1162.430 414.500 C 1163.127 415.600, 1164.276 418.300, 1164.985 420.500 C 1165.693 422.700, 1167.336 426.521, 1168.636 428.992 C 1169.936 431.463, 1171 434.063, 1171 434.771 C 1171 435.478, 1172.350 438.731, 1174 442 C 1175.650 445.269, 1177.002 448.518, 1177.004 449.221 C 1177.006 449.925, 1178.354 453.200, 1180 456.500 C 1181.646 459.800, 1182.994 463.017, 1182.996 463.648 C 1182.998 464.280, 1184.350 467.363, 1186 470.500 C 1187.650 473.637, 1189 476.841, 1189 477.620 C 1189 478.400, 1190.350 481.568, 1192 484.660 C 1195.332 490.904, 1195.797 495.060, 1193.429 497.429 C 1192.036 498.821, 1185.277 499, 1134.179 499.004 C 1080.027 499.007, 1076.316 499.119, 1073.496 500.839 C 1070.393 502.732, 1069.294 504.550, 1063.980 516.592 C 1059.957 525.707, 1060.181 529.550, 1064.922 532.734 L 1068.344 535.032 1154.567 534.766 C 1239.191 534.505, 1240.832 534.463, 1243.010 532.500 C 1248.360 527.679, 1247.374 522.406, 1237.030 500.500 C 1234.459 495.056, 1230.169 484.566, 1228.026 478.487 C 1227.054 475.730, 1225.302 471.905, 1224.133 469.987 C 1222.964 468.069, 1222.006 465.821, 1222.004 464.992 C 1222.002 464.163, 1220.936 461.463, 1219.636 458.992 C 1218.336 456.521, 1216.690 452.702, 1215.978 450.505 C 1215.266 448.308, 1213.629 444.528, 1212.342 442.106 C 1211.054 439.684, 1209.998 436.982, 1209.995 436.101 C 1209.992 435.220, 1208.881 432.700, 1207.526 430.500 C 1206.171 428.300, 1205.048 425.789, 1205.031 424.919 C 1205.014 424.050, 1203.876 421.125, 1202.502 418.419 C 1201.128 415.714, 1199.491 411.925, 1198.866 410 C 1198.240 408.075, 1196.664 404.479, 1195.364 402.008 C 1194.064 399.537, 1193 396.898, 1193 396.143 C 1193 395.388, 1191.890 392.685, 1190.533 390.135 C 1189.176 387.586, 1187.419 383.700, 1186.629 381.500 C 1184.116 374.503, 1177.630 359.249, 1173.662 351 C 1171.430 346.361, 1166.796 344.996, 1153.500 345.065 C 1146.900 345.099, 1140.507 345.527, 1139.293 346.015 M 1318.255 346.117 C 1313.821 347.398, 1311.863 350.832, 1311.256 358.399 C 1310.597 366.606, 1311.616 373.304, 1313.965 376.207 L 1315.821 378.500 1363.682 379 L 1411.543 379.500 1417.022 383.150 C 1428.622 390.880, 1434.058 401.326, 1432.449 412.797 C 1431.868 416.937, 1430.971 418.297, 1424.959 424.153 C 1419.295 429.671, 1417.222 431.026, 1412.815 432.094 C 1408.990 433.021, 1394.750 433.468, 1362.023 433.690 L 1316.546 433.999 1314.023 436.521 L 1311.500 439.044 1311.243 481.772 C 1310.960 528.751, 1310.888 528.132, 1317.014 531.306 C 1319.865 532.783, 1322.368 533.052, 1330.753 532.781 C 1340.389 532.469, 1341.170 532.284, 1343.753 529.703 L 1346.500 526.958 1346.794 499.094 C 1347.075 472.415, 1347.176 471.151, 1349.150 469.365 C 1351.024 467.670, 1353.121 467.500, 1372.189 467.500 L 1393.165 467.500 1395.833 470.635 C 1397.300 472.360, 1401.157 477.985, 1404.405 483.135 C 1407.653 488.286, 1412.786 496.325, 1415.812 501 C 1421.012 509.036, 1422.563 511.445, 1431.349 525.147 C 1435.878 532.209, 1437.999 533, 1452.399 532.998 C 1465.967 532.997, 1470.315 531.413, 1470.810 526.291 C 1470.999 524.345, 1470.373 521.984, 1469.221 520.291 C 1465.646 515.039, 1454.318 497.505, 1451.407 492.719 C 1449.808 490.090, 1447.263 486.315, 1445.750 484.332 C 1444.237 482.348, 1443 480.437, 1443 480.085 C 1443 479.733, 1440.750 476.320, 1438 472.500 C 1435.250 468.680, 1433 464.807, 1433 463.894 C 1433 461.900, 1438.748 456.795, 1446.393 452 C 1453.297 447.670, 1457.514 442.693, 1462.492 433 L 1466.343 425.500 1466.390 408 L 1466.437 390.500 1463.160 383 C 1458.153 371.542, 1457.877 371.095, 1452.349 365.479 C 1440.453 353.390, 1427.048 347.336, 1409.099 345.946 C 1393.945 344.772, 1322.447 344.907, 1318.255 346.117 M 1602.595 346.527 C 1598.906 348.451, 1597.296 350.562, 1595.995 355.185 C 1595.425 357.212, 1593.848 360.812, 1592.491 363.185 C 1591.134 365.558, 1590.019 368.224, 1590.012 369.109 C 1590.005 369.994, 1588.650 373.248, 1587 376.340 C 1585.350 379.432, 1584 382.488, 1584 383.131 C 1584 383.774, 1582.908 386.595, 1581.573 389.400 C 1576.559 399.935, 1573.214 407.623, 1571.994 411.419 C 1571.301 413.574, 1569.940 416.724, 1568.969 418.419 C 1567.999 420.113, 1566.886 422.625, 1566.496 424 C 1566.107 425.375, 1564.551 429.200, 1563.039 432.500 C 1561.528 435.800, 1559.048 441.425, 1557.529 445 C 1554.066 453.153, 1549.726 463.346, 1547.617 468.284 C 1545.164 474.025, 1545.538 477.692, 1548.923 481.077 C 1551.833 483.987, 1551.901 484, 1563.989 484 C 1570.667 484, 1577.006 483.532, 1578.075 482.960 C 1579.862 482.004, 1586.720 468.873, 1588.501 463 C 1588.917 461.625, 1590.325 458.479, 1591.629 456.008 C 1592.933 453.537, 1594 451.098, 1594 450.588 C 1594 450.077, 1595.394 446.474, 1597.097 442.580 C 1606.352 421.423, 1611.392 409.392, 1612.586 405.604 C 1614.931 398.169, 1621.042 400.695, 1624.657 410.593 C 1628.249 420.427, 1631.920 429.294, 1634.015 433.198 C 1635.107 435.232, 1636 437.518, 1636 438.279 C 1636 439.039, 1637.124 441.875, 1638.498 444.581 C 1639.872 447.286, 1641.509 451.075, 1642.134 453 C 1642.760 454.925, 1644.336 458.521, 1645.636 460.992 C 1646.936 463.463, 1648 466.166, 1648 467 C 1648 467.834, 1649.064 470.537, 1650.364 473.008 C 1651.664 475.479, 1653.304 479.300, 1654.009 481.500 C 1654.714 483.700, 1656.125 486.573, 1657.145 487.885 C 1659.244 490.584, 1659.602 495.998, 1657.800 497.800 C 1656.894 498.706, 1642.400 499, 1598.701 499 C 1533.685 499, 1535.107 498.852, 1532.368 505.922 C 1531.605 507.890, 1529.841 511.627, 1528.446 514.226 C 1527.052 516.826, 1525.647 521.188, 1525.323 523.920 C 1524.781 528.498, 1524.975 529.129, 1527.790 531.944 L 1530.846 535 1616.473 535 C 1709.004 535, 1705.654 535.188, 1709.439 529.783 C 1711.690 526.569, 1711.386 524.005, 1708 517.660 C 1706.350 514.568, 1705 511.421, 1705 510.668 C 1705 509.914, 1703.946 507.316, 1702.658 504.894 C 1701.371 502.472, 1699.724 498.695, 1699 496.500 C 1698.276 494.305, 1696.629 490.528, 1695.342 488.106 C 1694.054 485.684, 1693 483.086, 1693 482.332 C 1693 481.579, 1691.650 478.432, 1690 475.340 C 1688.350 472.248, 1687 469.157, 1687 468.472 C 1687 467.326, 1683.667 459.404, 1679.019 449.500 C 1676.424 443.970, 1672.141 433.488, 1670.026 427.487 C 1669.054 424.730, 1667.302 420.905, 1666.133 418.987 C 1664.964 417.069, 1664.006 414.821, 1664.004 413.992 C 1664.002 413.163, 1662.936 410.463, 1661.636 407.992 C 1660.336 405.521, 1658.760 401.925, 1658.134 400 C 1657.509 398.075, 1655.872 394.286, 1654.498 391.581 C 1653.124 388.875, 1652 386.054, 1652 385.312 C 1652 384.569, 1650.650 381.432, 1649 378.340 C 1647.350 375.248, 1645.986 371.994, 1645.969 371.109 C 1645.952 370.224, 1644.829 367.700, 1643.474 365.500 C 1642.119 363.300, 1641.008 360.801, 1641.005 359.946 C 1641.002 359.092, 1639.810 356.004, 1638.355 353.085 C 1634.800 345.951, 1632.314 344.998, 1617.282 345.006 C 1608.712 345.011, 1604.708 345.425, 1602.595 346.527 M 1782.049 346.017 C 1776.593 347.302, 1776 348.925, 1776 362.580 C 1776 373.098, 1776.263 375.104, 1777.911 377.139 L 1779.821 379.500 1825.161 380 L 1870.500 380.500 1877 384.061 C 1885.671 388.813, 1887.201 391.722, 1886.800 402.702 C 1886.506 410.735, 1886.419 410.987, 1882.579 414.919 C 1875.415 422.255, 1877.418 422, 1827.022 422 L 1781.846 422 1778.923 424.923 C 1776.042 427.804, 1776 428.007, 1776 438.989 C 1776 445.117, 1776.455 450.982, 1777.012 452.022 C 1778.923 455.593, 1784.218 455.989, 1830.113 455.994 L 1874.727 456 1882.113 459.750 C 1897.412 467.517, 1900.923 479.067, 1891.677 491.209 C 1885.925 498.761, 1888.352 498.441, 1832.500 499 L 1782.500 499.500 1779.250 501.818 L 1776 504.136 1776 516.568 C 1776 530.094, 1776.633 531.769, 1782.605 534.040 C 1784.067 534.596, 1802.079 535, 1825.367 535 C 1863.331 535, 1866.421 534.863, 1880.052 532.573 C 1899.830 529.250, 1908.976 525.074, 1918.073 515.213 C 1921.995 510.961, 1925.215 506.347, 1926.335 503.373 C 1927.344 500.693, 1928.863 496.700, 1929.711 494.500 C 1930.763 491.768, 1931.267 486.854, 1931.300 479 L 1931.350 467.500 1927.171 459.265 C 1924.506 454.013, 1920.639 448.535, 1916.496 444.143 C 1912.923 440.356, 1910 436.505, 1910 435.586 C 1910 434.667, 1911.802 431.475, 1914.005 428.493 C 1916.208 425.511, 1918.424 422.043, 1918.929 420.786 C 1919.828 418.546, 1922.554 400.471, 1922.289 398.500 C 1919.797 379.957, 1919.854 380.174, 1915.738 373.801 C 1907.184 360.558, 1900.584 354.806, 1888.347 349.929 C 1881.825 347.331, 1878.389 346.657, 1868 345.938 C 1852.386 344.859, 1786.713 344.919, 1782.049 346.017 M 2264.376 346.024 C 2258.144 347.954, 2258.523 342.270, 2258.250 437.903 C 2258.052 507.347, 2258.265 526.018, 2259.276 528 C 2261.013 531.403, 2265.933 532.876, 2275.782 532.944 C 2284.863 533.005, 2290.169 531.421, 2291.936 528.120 C 2292.713 526.668, 2292.955 500.461, 2292.766 438.063 L 2292.500 350.055 2290.311 347.866 C 2288.392 345.947, 2286.849 345.639, 2277.811 345.367 C 2272.140 345.196, 2266.094 345.492, 2264.376 346.024 M 2515 345.673 C 2512.111 346.262, 2509 348.768, 2509 350.506 C 2509 351.164, 2507.948 353.682, 2506.662 356.101 C 2505.377 358.520, 2503.542 362.857, 2502.586 365.738 C 2501.630 368.619, 2500.466 371.212, 2500 371.500 C 2499.534 371.788, 2498.380 374.350, 2497.436 377.193 C 2496.492 380.036, 2494.932 383.743, 2493.969 385.431 C 2493.007 387.119, 2491.652 390.289, 2490.958 392.476 C 2490.264 394.663, 2488.866 397.813, 2487.852 399.476 C 2486.837 401.139, 2486.006 403.175, 2486.004 404 C 2486.002 404.825, 2484.710 408.200, 2483.133 411.500 C 2476.702 424.954, 2474 431.102, 2474 432.284 C 2474 432.969, 2473.043 435.315, 2471.874 437.496 C 2470.705 439.678, 2469.120 443.271, 2468.354 445.482 C 2467.587 447.692, 2466.092 451.300, 2465.031 453.500 C 2455.661 472.943, 2454.953 476.782, 2459.916 481.216 C 2462.973 483.948, 2463.267 484, 2475.572 484 L 2488.113 484 2491.094 480.750 C 2492.733 478.962, 2494.736 475.250, 2495.543 472.500 C 2496.351 469.750, 2497.906 466.150, 2498.999 464.500 C 2500.092 462.850, 2500.990 460.758, 2500.993 459.852 C 2500.997 458.945, 2502.350 455.637, 2504 452.500 C 2505.650 449.363, 2507 446.256, 2507 445.595 C 2507 444.934, 2508.085 442.167, 2509.410 439.446 C 2511.709 434.728, 2515.085 426.776, 2518.939 417 C 2519.914 414.525, 2522.015 409.800, 2523.606 406.500 C 2527.662 398.090, 2529.442 398.343, 2534.180 408 C 2536.203 412.125, 2537.891 416.179, 2537.930 417.008 C 2537.968 417.837, 2539.064 420.537, 2540.364 423.008 C 2541.664 425.479, 2543.307 429.289, 2544.016 431.476 C 2544.725 433.663, 2546.134 436.813, 2547.148 438.476 C 2548.163 440.139, 2548.994 442.242, 2548.996 443.148 C 2548.998 444.055, 2550.350 447.363, 2552 450.500 C 2553.650 453.637, 2555 456.713, 2555 457.337 C 2555 457.961, 2556.100 460.728, 2557.445 463.486 C 2559.674 468.059, 2561.120 471.476, 2567.182 486.500 C 2568.292 489.250, 2569.446 492.583, 2569.746 493.906 C 2570.910 499.029, 2571.254 499, 2508.444 499 C 2451.823 499, 2450.202 499.053, 2447.732 500.996 C 2444.770 503.326, 2440.448 510.362, 2439.396 514.567 C 2438.992 516.180, 2437.811 519.425, 2436.772 521.777 C 2434.547 526.814, 2435.031 529.007, 2439.130 532.456 L 2442.153 535 2527.709 535 C 2611.164 535, 2613.342 534.952, 2616.460 533.025 C 2621.966 529.622, 2622.335 527.307, 2618.885 517.809 C 2617.225 513.239, 2615.290 508.600, 2614.585 507.500 C 2613.880 506.400, 2612.735 503.700, 2612.040 501.500 C 2611.345 499.300, 2610.116 496.449, 2609.309 495.163 C 2608.501 493.878, 2607.023 490.503, 2606.024 487.663 C 2604.034 482.008, 2600.068 472.301, 2596.559 464.500 C 2595.322 461.750, 2593.148 456.800, 2591.729 453.500 C 2590.309 450.200, 2587.765 444.412, 2586.074 440.638 C 2584.383 436.863, 2583 433.218, 2583 432.537 C 2583 431.855, 2581.946 429.316, 2580.658 426.894 C 2579.371 424.472, 2577.727 420.692, 2577.007 418.495 C 2576.286 416.298, 2575.096 413.576, 2574.362 412.447 C 2573.628 411.317, 2572.159 407.942, 2571.097 404.947 C 2570.035 401.951, 2568.229 397.717, 2567.083 395.539 C 2565.938 393.360, 2564.998 390.885, 2564.995 390.039 C 2564.992 389.192, 2563.881 386.700, 2562.526 384.500 C 2561.171 382.300, 2560.048 379.814, 2560.031 378.975 C 2560.014 378.136, 2558.664 374.761, 2557.031 371.475 C 2555.399 368.189, 2554.049 364.910, 2554.031 364.188 C 2553.982 362.145, 2546.952 348.205, 2545.263 346.804 C 2543.714 345.518, 2520.089 344.635, 2515 345.673 M 2750.392 346.385 C 2748.264 347.343, 2745.355 350.736, 2741.169 357.142 C 2737.805 362.289, 2734.120 367.850, 2732.979 369.500 C 2731.211 372.057, 2727.649 377.396, 2719.300 390 C 2718.389 391.375, 2715.325 396.100, 2712.490 400.500 C 2706.379 409.984, 2705.935 410.661, 2699.585 420.153 C 2673.057 459.805, 2673 459.915, 2673 471.308 C 2673 481.312, 2673.611 482.979, 2678.355 485.911 C 2681.612 487.923, 2682.994 488, 2715.913 488 L 2750.091 488 2752.545 490.455 C 2754.947 492.856, 2755 493.257, 2755 508.878 C 2755 524.637, 2755.034 524.887, 2757.613 527.952 L 2760.227 531.058 2772.825 530.779 L 2785.424 530.500 2787.712 527.102 C 2789.856 523.919, 2790 522.709, 2790 507.925 L 2790 492.145 2792.635 490.073 C 2794.084 488.933, 2796.680 488, 2798.403 488 C 2802.572 488, 2808.989 483.603, 2809.036 480.714 C 2809.055 479.496, 2809.240 475.800, 2809.445 472.500 C 2810 463.597, 2808.680 459.551, 2804.590 457.610 C 2802.724 456.724, 2799.657 456, 2797.773 456 C 2795.499 456, 2793.627 455.232, 2792.202 453.715 C 2790.073 451.448, 2790.052 451.011, 2789.777 401.237 L 2789.500 351.044 2786.729 348.272 C 2783.970 345.512, 2783.890 345.499, 2768.729 345.243 C 2757.372 345.052, 2752.710 345.342, 2750.392 346.385 M 3147.500 345.716 C 3144.169 346.522, 3141.149 349.969, 3133.235 362 C 3129.075 368.325, 3123.608 376.581, 3121.086 380.347 C 3118.563 384.113, 3115.869 388.163, 3115.097 389.347 C 3111.010 395.617, 3099.753 412.798, 3087.805 431 C 3068.041 461.110, 3069.091 458.881, 3068.920 471.076 L 3068.775 481.406 3072.373 484.703 L 3075.971 488 3110.051 488 C 3143.785 488, 3147.160 488.293, 3149.235 491.400 C 3149.639 492.005, 3149.976 499.385, 3149.985 507.800 C 3150.001 523.959, 3150.856 527.782, 3154.945 529.970 C 3157.011 531.076, 3177.771 531.409, 3180.455 530.379 C 3184.060 528.995, 3184.999 524.654, 3185.015 509.300 C 3185.034 489.924, 3185.066 489.863, 3196.378 487.499 C 3197.961 487.168, 3200.549 485.605, 3202.128 484.026 C 3204.841 481.313, 3205 480.682, 3205 472.642 C 3205 467.961, 3204.569 462.997, 3204.043 461.613 C 3202.861 458.504, 3198.229 456, 3193.660 456 C 3191.765 456, 3189.162 455.142, 3187.861 454.089 L 3185.500 452.178 3185 401.793 C 3184.446 345.917, 3184.577 346.965, 3177.943 345.639 C 3174.329 344.916, 3150.558 344.976, 3147.500 345.716 M 2060 348.488 C 2056.425 349.821, 2051.600 351.395, 2049.277 351.987 C 2046.955 352.578, 2042.379 355.186, 2039.108 357.781 C 2035.837 360.377, 2030.584 364.525, 2027.433 367 C 2022.059 371.221, 2008 388.001, 2008 390.194 C 2008 390.742, 2007.148 392.387, 2006.108 393.849 C 2004.194 396.536, 1998.583 410.394, 1997.543 415 C 1994.319 429.281, 1995.417 460.894, 1999.506 471.500 C 2000.778 474.800, 2002.138 478.625, 2002.529 480 C 2003.605 483.787, 2012.643 498.171, 2018.422 505.293 C 2022.874 510.780, 2040.593 524.072, 2045.398 525.529 C 2047.654 526.213, 2051.075 527.458, 2053 528.297 C 2054.925 529.135, 2060.487 531.082, 2065.360 532.624 L 2074.221 535.427 2077.610 531.728 L 2081 528.029 2081 517.712 C 2081 507.785, 2080.885 507.237, 2077.952 503.249 C 2074.753 498.900, 2074.413 498.712, 2066.666 497.014 C 2064.007 496.431, 2059.507 494.458, 2056.666 492.629 C 2051.016 488.992, 2042 479.861, 2042 477.775 C 2042 477.054, 2040.916 474.870, 2039.592 472.921 C 2032.451 462.411, 2028.866 445.990, 2030.830 432.783 C 2033.311 416.103, 2038.374 405.599, 2049.043 395 C 2055.612 388.473, 2057.014 387.589, 2069 382.414 C 2079.853 377.727, 2080.443 376.820, 2080.827 364.230 C 2081.128 354.319, 2080.973 353.233, 2078.793 350 C 2076.676 346.861, 2075.920 346.478, 2071.466 346.282 C 2068.210 346.140, 2064.262 346.899, 2060 348.488 M 2102.123 348.570 C 2101.011 349.984, 2099.793 353.198, 2099.416 355.712 C 2098.706 360.448, 2099.453 373.411, 2100.610 376.426 C 2101.256 378.109, 2114.613 385, 2117.231 385 C 2118.552 385, 2127.394 391.249, 2131.860 395.339 C 2134.897 398.120, 2140.648 406.950, 2144.095 414.126 C 2147.686 421.601, 2149.426 435.067, 2148.490 448.145 C 2147.749 458.496, 2147.583 458.948, 2137.479 478.085 C 2132.966 486.632, 2121.815 495.079, 2112.071 497.330 C 2101.642 499.739, 2099.016 503.951, 2099.006 518.282 C 2098.999 527.003, 2100.679 532.223, 2104.078 534.042 C 2105.951 535.044, 2107.761 534.789, 2114.913 532.514 C 2119.636 531.012, 2126.031 528.707, 2129.125 527.392 C 2132.219 526.076, 2135.377 525, 2136.144 525 C 2137.753 525, 2155.275 512.096, 2159.020 508.153 C 2162.621 504.362, 2169.455 495.023, 2171.207 491.500 C 2172.027 489.850, 2173.423 487.150, 2174.310 485.500 C 2180.416 474.130, 2182.836 464.479, 2184.558 444.620 C 2185.400 434.907, 2181.808 410.543, 2178.591 404.140 C 2177.308 401.588, 2175.948 398.496, 2175.568 397.270 C 2174.437 393.615, 2168.679 384.593, 2163.057 377.663 C 2158.346 371.857, 2139.652 355.894, 2134.500 353.279 C 2133.400 352.720, 2130.925 351.977, 2129 351.628 C 2127.075 351.278, 2122.800 349.880, 2119.500 348.520 C 2111.270 345.129, 2104.816 345.147, 2102.123 348.570 M 2916 349 C 2912.425 350.619, 2909.043 351.957, 2908.486 351.972 C 2907.928 351.987, 2904.731 354.217, 2901.382 356.927 C 2891.861 364.630, 2885.226 374.886, 2879.394 390.911 C 2873.523 407.046, 2871.578 436.956, 2874.479 466.500 C 2875.587 477.790, 2876.570 482.984, 2878.452 487.500 C 2879.827 490.800, 2880.963 494.120, 2880.976 494.878 C 2881.039 498.521, 2892.622 516.153, 2897.820 520.519 C 2906.702 527.978, 2923.593 534.502, 2937.086 535.685 C 2946.044 536.471, 2964.789 531.728, 2973.752 526.408 C 2982.549 521.187, 2993.069 509.380, 2995.683 501.795 C 2996.447 499.576, 2997.804 496.351, 2998.698 494.630 C 2999.591 492.908, 3001.651 486.325, 3003.275 480 C 3006.064 469.141, 3006.255 467.107, 3006.700 443.494 L 3007.171 418.489 3003.543 403.046 C 3001.548 394.552, 2999.491 387.091, 2998.971 386.465 C 2998.452 385.839, 2997.386 383.512, 2996.603 381.293 C 2992.784 370.468, 2976.781 354.940, 2965.241 350.864 C 2953.029 346.549, 2949.708 346, 2936.032 346.028 C 2923.222 346.055, 2922.153 346.213, 2916 349 M 2933.734 381.033 C 2923.576 383.575, 2917.494 389.143, 2913.016 400 C 2908.710 410.441, 2907.655 421.011, 2908.312 447.110 C 2908.816 467.115, 2909.039 469.157, 2911.314 474.610 C 2912.665 477.849, 2914.095 482.017, 2914.491 483.871 C 2915.568 488.908, 2920.802 495.664, 2926.418 499.269 C 2930.515 501.897, 2932.405 502.467, 2937.034 502.467 C 2945.252 502.467, 2956.932 496.451, 2962.736 489.230 C 2965.066 486.331, 2967.168 482.956, 2967.406 481.730 C 2967.645 480.503, 2968.889 475, 2970.170 469.500 C 2972.231 460.657, 2972.494 457.071, 2972.451 438.500 C 2972.406 419.497, 2972.192 416.905, 2970.201 411.246 C 2968.990 407.806, 2967.990 404.206, 2967.978 403.246 C 2967.941 400.329, 2964.459 393.593, 2960.883 389.520 C 2954.889 382.693, 2942.536 378.831, 2933.734 381.033 M 2931 386.544 C 2926.548 387.615, 2924.690 388.755, 2921.250 392.530 C 2918.912 395.095, 2917 398.036, 2917 399.066 C 2917 400.096, 2915.775 404.440, 2914.277 408.719 C 2911.606 416.351, 2911.554 416.950, 2911.586 440 C 2911.616 461.669, 2911.787 463.921, 2913.771 468.901 C 2914.954 471.872, 2916.209 476.213, 2916.560 478.548 C 2916.910 480.884, 2918.627 485.203, 2920.377 488.147 C 2924.034 494.303, 2929.952 497.900, 2936.500 497.946 C 2942.786 497.990, 2953.061 494.327, 2956.796 490.710 C 2963.087 484.618, 2964.678 480.567, 2966.515 465.977 C 2969.730 440.425, 2968.189 413.214, 2962.797 400.341 C 2959.061 391.419, 2955.980 388.406, 2948.641 386.495 C 2941.899 384.739, 2938.466 384.748, 2931 386.544 M 2747 406 C 2745.900 407.100, 2745 408.473, 2745 409.052 C 2745 409.965, 2733.985 426.512, 2721.748 443.982 C 2718.961 447.959, 2717.989 450.291, 2718.204 452.482 L 2718.500 455.500 2734.573 455.774 C 2756.080 456.140, 2754.410 458.274, 2754.804 429.932 C 2755.004 415.509, 2754.737 407.377, 2754.019 406.035 C 2752.633 403.445, 2749.570 403.430, 2747 406 M 3142.537 406.250 C 3141.681 407.488, 3136.484 415.250, 3130.989 423.500 C 3125.493 431.750, 3119.219 440.975, 3117.047 444 C 3114.875 447.025, 3113.076 450.423, 3113.049 451.550 C 3112.953 455.566, 3114.675 456, 3130.700 456 C 3151.587 456, 3150 458.173, 3150 429.582 C 3150 417.252, 3149.727 406.452, 3149.393 405.582 C 3148.497 403.248, 3144.333 403.654, 3142.537 406.250 M 2745.588 414.880 C 2743.615 417.568, 2742 420.050, 2742 420.395 C 2742 420.740, 2740.088 423.746, 2737.750 427.074 C 2735.412 430.403, 2732.150 435.055, 2730.500 437.413 C 2728.850 439.771, 2726.743 442.780, 2725.818 444.100 C 2724.892 445.420, 2723.831 447.738, 2723.459 449.250 L 2722.783 452 2735.692 452 C 2744.398 452, 2748.991 451.609, 2749.800 450.800 C 2751.250 449.350, 2751.522 411.441, 2750.088 410.555 C 2749.587 410.245, 2747.562 412.191, 2745.588 414.880 M 3140.754 415.250 C 3138.835 418.137, 3135.194 423.650, 3132.664 427.500 C 3130.134 431.350, 3126.701 436.300, 3125.035 438.500 C 3121.046 443.767, 3117.900 450.300, 3118.880 451.280 C 3119.310 451.710, 3125.476 451.936, 3132.581 451.781 L 3145.500 451.500 3146.069 432 C 3146.801 406.942, 3146.631 406.408, 3140.754 415.250 M 2314.757 498.519 C 2312.718 499.905, 2310.589 501.900, 2310.025 502.953 C 2309.461 504.007, 2309 510.298, 2309 516.934 C 2309 530.458, 2309.261 531.052, 2316.919 534.959 C 2320.672 536.873, 2322.678 536.999, 2349.210 536.978 C 2374.515 536.958, 2377.922 536.762, 2381.500 535.119 C 2388.649 531.836, 2391 527.061, 2391 515.819 C 2391 507.476, 2389.467 503.495, 2384.614 499.234 L 2380.930 496 2349.697 496 L 2318.464 496 2314.757 498.519 M 2316.846 501.165 C 2312.026 503.959, 2311 506.546, 2311 515.898 C 2311 532.919, 2311.183 533, 2349.552 533 C 2387.336 533, 2387 533.148, 2387 516.500 C 2387 506.399, 2386.062 503.618, 2381.775 501.004 C 2378.698 499.128, 2376.743 499.009, 2349.500 499.027 C 2321.793 499.045, 2320.337 499.140, 2316.846 501.165" stroke="none" fill="#a8bcbb" fill-rule="evenodd"/><path d="M 378 132.051 C 371.675 132.464, 362.450 133.483, 357.500 134.314 C 352.550 135.145, 346.025 136.095, 343 136.425 C 336.556 137.128, 318.092 141.419, 309.500 144.210 C 306.200 145.282, 301.877 146.561, 299.893 147.052 C 286.710 150.318, 257.620 163.666, 238 175.454 C 190.575 203.947, 149.615 247.561, 124.793 296 C 117.796 309.654, 107.800 333.473, 106.117 340.500 C 105.590 342.700, 104.282 347.200, 103.210 350.500 C 100.107 360.053, 96.049 377.805, 94.980 386.500 C 94.439 390.900, 93.258 399.225, 92.355 405 C 90.410 417.436, 90.140 451.651, 91.902 462.500 C 92.527 466.350, 93.696 474.675, 94.500 481 C 96.001 492.821, 99.769 509.908, 103.210 520.500 C 104.282 523.800, 105.561 528.123, 106.052 530.107 C 107.622 536.445, 115.156 555, 121.844 569 C 128.316 582.547, 142.920 606.020, 153.806 620.369 C 167.997 639.076, 191.040 662.134, 209.500 676.101 C 253.264 709.212, 299.798 728.560, 354 736.180 C 367.461 738.073, 374.829 738.500, 394 738.500 C 413.171 738.500, 420.539 738.073, 434 736.180 C 487.915 728.600, 533.764 709.627, 577.993 676.595 C 604.212 657.013, 632.127 626.372, 650.961 596.500 C 657.505 586.121, 668.887 564.333, 672.685 554.918 C 673.887 551.938, 676.046 546.575, 677.482 543 C 680.859 534.596, 684.679 522.454, 686.921 513 C 687.899 508.875, 689.402 503.025, 690.262 500 C 691.121 496.975, 692.114 492.025, 692.469 489 C 692.823 485.975, 694.051 477.200, 695.198 469.500 C 696.766 458.978, 697.290 450.532, 697.307 435.500 C 697.331 415.874, 697.040 412.780, 692.098 380 C 690.167 367.194, 682.966 342.111, 676.739 326.500 C 674.545 321, 671.934 314.430, 670.936 311.901 C 667.995 304.441, 657.754 285.263, 650.964 274.500 C 622.191 228.887, 580.324 190.164, 534 166.317 C 524.183 161.263, 505.806 153, 504.384 153 C 504.035 153, 501.219 151.918, 498.125 150.597 C 487.077 145.876, 456.061 137.595, 445 136.413 C 441.975 136.089, 435.675 135.196, 431 134.428 C 422.593 133.046, 396.832 130.886, 392 131.158 C 390.625 131.235, 384.325 131.637, 378 132.051 M 507.500 217.391 C 501.762 218.792, 493.007 222.895, 488.206 226.433 C 486.395 227.767, 481.847 232.829, 478.100 237.680 C 471.436 246.309, 471.243 246.728, 469.180 257.022 C 467.274 266.531, 467.203 268.072, 468.442 273.022 C 469.195 276.035, 470.100 280.590, 470.452 283.144 C 470.890 286.330, 472.254 289.284, 474.795 292.550 C 481.454 301.109, 493.107 311.399, 499.666 314.512 C 508.061 318.495, 530.916 318.345, 538.696 314.256 C 546.474 310.167, 562.547 295.566, 565.546 289.864 C 566.309 288.415, 567.895 282.447, 569.072 276.603 C 571.098 266.537, 571.128 265.624, 569.650 259.239 C 568.791 255.533, 567.801 251.004, 567.449 249.176 C 567.097 247.347, 565.570 244.422, 564.056 242.676 C 562.542 240.929, 559.621 237.250, 557.564 234.500 C 546.878 220.211, 525.654 212.958, 507.500 217.391 M 382 225.451 C 377.875 226.182, 369.550 227.102, 363.500 227.495 C 356.443 227.953, 350.887 228.882, 348 230.086 C 345.525 231.119, 339.900 232.847, 335.500 233.926 C 323.425 236.888, 310.793 240.894, 309.051 242.314 C 308.198 243.010, 305.925 244.367, 304 245.330 C 302.075 246.294, 297.350 248.924, 293.500 251.175 C 289.650 253.427, 284.365 256.333, 281.756 257.634 C 279.147 258.935, 271.497 264.828, 264.756 270.731 C 249.808 283.819, 245.763 287.772, 239.422 295.491 C 236.715 298.785, 231.785 304.635, 228.467 308.491 C 220.262 318.024, 217.673 321.976, 207.661 340.259 C 199.632 354.919, 192 373.820, 192 379.045 C 192 380.153, 190.862 383.765, 189.471 387.070 C 187.587 391.544, 186.802 395.560, 186.395 402.790 C 186.095 408.130, 184.963 418.884, 183.880 426.686 C 182.027 440.026, 182.004 441.397, 183.484 449.686 C 184.350 454.534, 185.474 464.462, 185.982 471.749 C 186.635 481.122, 187.480 486.296, 188.869 489.436 C 189.949 491.878, 191.372 496.491, 192.032 499.688 C 192.691 502.884, 194.043 507.750, 195.035 510.500 C 196.027 513.250, 197.151 517.075, 197.531 519 C 197.912 520.925, 201.436 528.209, 205.362 535.187 C 209.288 542.165, 213.650 550.147, 215.056 552.926 C 217.573 557.903, 240.169 585.062, 247.660 592.115 C 249.772 594.103, 254.200 597.871, 257.500 600.488 C 260.800 603.104, 266.289 607.913, 269.698 611.173 C 274.028 615.313, 280.509 619.675, 291.198 625.640 C 299.614 630.336, 306.950 634.544, 307.500 634.990 C 309.526 636.634, 324.787 642.029, 330.286 643.045 C 333.405 643.622, 337.995 644.995, 340.486 646.097 C 342.977 647.199, 349.849 648.741, 355.757 649.524 C 361.666 650.308, 371 651.632, 376.500 652.468 C 389.944 654.512, 404.807 654.381, 420.500 652.083 C 427.650 651.035, 436.425 649.871, 440 649.496 C 443.575 649.121, 450.325 647.543, 455 645.990 C 459.675 644.437, 465.300 642.865, 467.500 642.497 C 473.855 641.433, 480.517 638.598, 494.500 631.008 C 512.596 621.185, 518.054 617.463, 532.640 605 C 551.689 588.724, 553.316 587.132, 563.500 574.831 C 578.424 556.804, 577.647 557.975, 589.267 536 C 590.866 532.975, 592.739 529.825, 593.429 529 C 595.058 527.051, 600.599 510.961, 601.904 504.390 C 602.462 501.579, 603.827 496.977, 604.936 494.161 C 606.046 491.346, 607.441 484.871, 608.036 479.771 C 608.631 474.672, 609.744 466.675, 610.510 462 C 612.908 447.351, 613.231 439.922, 612.074 426 C 610.746 410.011, 607.765 392.592, 604.458 381.500 C 603.147 377.100, 601.773 372.150, 601.404 370.500 C 601.036 368.850, 599.720 365.250, 598.481 362.500 C 597.241 359.750, 594.107 352.809, 591.516 347.076 C 588.925 341.342, 585.611 334.869, 584.152 332.692 C 577.860 323.299, 575.883 320.234, 573.270 315.820 C 570.327 310.847, 566.590 308, 563.006 308 C 561.766 308, 558.155 310.390, 554.660 313.523 C 550.178 317.541, 547.001 319.477, 543 320.626 C 536.562 322.474, 529.473 326.325, 528.674 328.408 C 527.832 330.603, 530.027 374.109, 531.129 377.059 C 531.655 378.467, 533.303 380.347, 534.792 381.238 C 540.947 384.918, 546.142 391.597, 548.539 398.916 L 550.875 406.050 548.463 412.701 C 544.816 422.756, 538 428.800, 528.500 430.405 C 520.498 431.757, 519.827 432.396, 514 444.225 C 507.008 458.417, 504.695 461.977, 497.161 470.135 C 489.166 478.792, 483.357 482.383, 473.160 484.972 C 465.121 487.012, 464.562 487.029, 457.660 485.449 C 446.528 482.899, 433.975 478.078, 430.500 475.019 C 429.400 474.050, 425.125 471.027, 421 468.301 C 408.104 459.777, 392.749 448.941, 388.903 445.649 C 384.842 442.172, 375.294 436.528, 364.510 431.228 C 351.940 425.050, 339.650 423.795, 329.849 427.688 C 325.452 429.434, 324.781 431.451, 326.144 438.821 C 327.445 445.859, 326.507 452.216, 323.647 455.745 C 322.419 457.260, 320.642 459.728, 319.698 461.229 C 316.746 465.922, 312.917 467.167, 301.434 467.167 C 289.011 467.167, 286.702 466.119, 281.296 458.033 C 278.251 453.478, 277.525 451.399, 277.184 446.271 C 276.625 437.867, 277.461 434.156, 281.177 428.546 C 283.784 424.611, 285.609 423.214, 291.909 420.332 C 299.894 416.679, 303.370 416.417, 309.533 419.002 C 312.355 420.186, 313.258 419.935, 322.533 415.387 C 332.234 410.630, 332.721 410.505, 340.799 410.696 C 349.410 410.900, 359.308 413.921, 369.992 419.609 C 372.463 420.924, 375.001 422, 375.633 422 C 377.208 422, 393.354 432.686, 400.763 438.633 C 404.099 441.310, 411.704 446.616, 417.664 450.425 C 423.624 454.234, 431.436 459.264, 435.025 461.602 C 438.613 463.941, 445.363 467.716, 450.025 469.992 C 457.897 473.835, 459 474.107, 465.536 473.806 C 471.542 473.530, 473.357 472.980, 477.923 470.049 C 484.597 465.767, 500.539 447.982, 502.079 443.102 C 502.704 441.121, 504.382 437.771, 505.807 435.658 C 509.283 430.506, 509.227 425.891, 505.644 422.150 C 504.037 420.473, 502.039 416.446, 500.854 412.494 C 499.068 406.541, 498.972 405.153, 500.067 401.107 C 502.185 393.283, 504.561 389.703, 511.353 384.104 C 514.953 381.135, 518.134 378.092, 518.423 377.340 C 518.711 376.588, 518.545 372.717, 518.052 368.737 C 517.560 364.756, 516.619 354.525, 515.960 346 C 515.302 337.475, 514.362 329.732, 513.870 328.794 C 513.379 327.855, 511.519 326.636, 509.738 326.084 C 499.810 323.008, 489.484 318.879, 487.626 317.242 C 485.654 315.505, 483.889 314.246, 477.191 309.802 C 475.783 308.869, 473.702 306.337, 472.566 304.177 C 471.430 302.017, 468.641 297.507, 466.369 294.154 C 463.264 289.572, 462.063 286.658, 461.534 282.424 C 461.147 279.325, 460.167 274.559, 459.358 271.833 C 458.224 268.015, 458.135 266.121, 458.971 263.588 C 459.568 261.780, 460.480 257.692, 460.999 254.505 C 461.518 251.317, 463.121 246.455, 464.562 243.700 C 467.910 237.296, 466.974 234.385, 461.296 233.549 C 459.208 233.241, 454.800 232.060, 451.500 230.925 C 444.903 228.655, 416.867 225.170, 400 224.524 C 393.802 224.286, 386.427 224.666, 382 225.451 M 866.284 345.701 C 865.065 345.937, 862.928 347.485, 861.534 349.142 C 859.193 351.924, 859 352.912, 859 362.126 C 859 373.134, 860.444 377.615, 864.268 378.470 C 865.496 378.744, 886.760 379.088, 911.521 379.234 L 956.543 379.500 962.021 383.150 C 969.963 388.442, 972.010 391.068, 974.118 398.668 C 976.412 406.942, 976.465 410.417, 974.418 418.317 C 972.553 425.512, 968.770 430.280, 961.707 434.336 C 954.735 438.340, 944.840 439.083, 901.067 438.889 L 864.633 438.727 861.817 441.879 L 859 445.032 859 485.434 C 859 507.655, 859.281 526.567, 859.623 527.461 C 860.924 530.852, 867.430 533, 876.395 533 C 885.599 533, 888.819 532.181, 891.960 529.040 C 893.906 527.094, 894 525.833, 894 501.571 C 894 474.219, 894.099 473.681, 899.320 472.517 C 900.519 472.249, 914.100 471.890, 929.500 471.719 C 956.254 471.420, 957.913 471.289, 966.777 468.768 C 971.879 467.317, 977.729 465.089, 979.777 463.817 C 981.825 462.544, 984.743 460.828, 986.262 460.002 C 993.363 456.141, 1007 439.432, 1007 434.592 C 1007 433.438, 1007.938 429.345, 1009.085 425.497 C 1012.043 415.569, 1011.909 404.298, 1008.673 390.904 C 1007.265 385.077, 1005.075 378.644, 1003.807 376.610 C 991.769 357.307, 975.518 347.787, 951.500 345.969 C 939.717 345.078, 870.629 344.860, 866.284 345.701 M 1139.293 346.015 C 1136.571 347.111, 1132.100 354.026, 1130.344 359.856 C 1129.622 362.252, 1128.125 365.680, 1127.016 367.474 C 1125.907 369.268, 1125 371.407, 1125 372.227 C 1125 373.047, 1123.650 376.248, 1122 379.340 C 1120.350 382.432, 1119 385.579, 1119 386.332 C 1119 387.086, 1117.948 389.682, 1116.662 392.101 C 1115.377 394.520, 1113.542 398.857, 1112.586 401.738 C 1111.630 404.619, 1110.466 407.212, 1110 407.500 C 1109.534 407.788, 1108.442 410.156, 1107.573 412.762 C 1106.705 415.368, 1104.870 419.714, 1103.497 422.419 C 1102.124 425.125, 1100.998 428.050, 1100.995 428.919 C 1100.992 429.789, 1099.881 432.300, 1098.526 434.500 C 1097.171 436.700, 1096.048 439.224, 1096.031 440.109 C 1096.014 440.994, 1094.650 444.248, 1093 447.340 C 1091.350 450.432, 1090 453.582, 1090 454.340 C 1090 455.098, 1088.600 458.343, 1086.888 461.551 C 1082.775 469.257, 1081.897 477.421, 1084.795 481 C 1086.721 483.379, 1087.407 483.516, 1099 483.836 C 1105.699 484.020, 1112.195 483.917, 1113.436 483.605 C 1115.015 483.209, 1116.763 480.858, 1119.261 475.770 C 1121.225 471.771, 1123.151 467.405, 1123.541 466.067 C 1123.932 464.729, 1125.320 461.624, 1126.626 459.168 C 1127.931 456.712, 1129 454.086, 1129 453.332 C 1129 452.579, 1130.350 449.432, 1132 446.340 C 1133.650 443.248, 1135 440.153, 1135 439.461 C 1135 438.769, 1136.350 435.637, 1138 432.500 C 1139.650 429.363, 1141.002 426.055, 1141.004 425.148 C 1141.006 424.242, 1141.834 422.145, 1142.844 420.488 C 1143.855 418.831, 1145.469 415.105, 1146.431 412.207 C 1149.347 403.429, 1154.814 398.632, 1157.780 402.250 C 1158.343 402.938, 1159.335 405.525, 1159.984 408 C 1160.632 410.475, 1161.733 413.400, 1162.430 414.500 C 1163.127 415.600, 1164.276 418.300, 1164.985 420.500 C 1165.693 422.700, 1167.336 426.521, 1168.636 428.992 C 1169.936 431.463, 1171 434.063, 1171 434.771 C 1171 435.478, 1172.350 438.731, 1174 442 C 1175.650 445.269, 1177.002 448.518, 1177.004 449.221 C 1177.006 449.925, 1178.354 453.200, 1180 456.500 C 1181.646 459.800, 1182.994 463.017, 1182.996 463.648 C 1182.998 464.280, 1184.350 467.363, 1186 470.500 C 1187.650 473.637, 1189 476.841, 1189 477.620 C 1189 478.400, 1190.350 481.568, 1192 484.660 C 1195.332 490.904, 1195.797 495.060, 1193.429 497.429 C 1192.036 498.821, 1185.277 499, 1134.179 499.004 C 1080.027 499.007, 1076.316 499.119, 1073.496 500.839 C 1070.393 502.732, 1069.294 504.550, 1063.980 516.592 C 1059.957 525.707, 1060.181 529.550, 1064.922 532.734 L 1068.344 535.032 1154.567 534.766 C 1239.191 534.505, 1240.832 534.463, 1243.010 532.500 C 1248.360 527.679, 1247.374 522.406, 1237.030 500.500 C 1234.459 495.056, 1230.169 484.566, 1228.026 478.487 C 1227.054 475.730, 1225.302 471.905, 1224.133 469.987 C 1222.964 468.069, 1222.006 465.821, 1222.004 464.992 C 1222.002 464.163, 1220.936 461.463, 1219.636 458.992 C 1218.336 456.521, 1216.690 452.702, 1215.978 450.505 C 1215.266 448.308, 1213.629 444.528, 1212.342 442.106 C 1211.054 439.684, 1209.998 436.982, 1209.995 436.101 C 1209.992 435.220, 1208.881 432.700, 1207.526 430.500 C 1206.171 428.300, 1205.048 425.789, 1205.031 424.919 C 1205.014 424.050, 1203.876 421.125, 1202.502 418.419 C 1201.128 415.714, 1199.491 411.925, 1198.866 410 C 1198.240 408.075, 1196.664 404.479, 1195.364 402.008 C 1194.064 399.537, 1193 396.898, 1193 396.143 C 1193 395.388, 1191.890 392.685, 1190.533 390.135 C 1189.176 387.586, 1187.419 383.700, 1186.629 381.500 C 1184.116 374.503, 1177.630 359.249, 1173.662 351 C 1171.430 346.361, 1166.796 344.996, 1153.500 345.065 C 1146.900 345.099, 1140.507 345.527, 1139.293 346.015 M 1318.255 346.117 C 1313.821 347.398, 1311.863 350.832, 1311.256 358.399 C 1310.597 366.606, 1311.616 373.304, 1313.965 376.207 L 1315.821 378.500 1363.682 379 L 1411.543 379.500 1417.022 383.150 C 1428.622 390.880, 1434.058 401.326, 1432.449 412.797 C 1431.868 416.937, 1430.971 418.297, 1424.959 424.153 C 1419.295 429.671, 1417.222 431.026, 1412.815 432.094 C 1408.990 433.021, 1394.750 433.468, 1362.023 433.690 L 1316.546 433.999 1314.023 436.521 L 1311.500 439.044 1311.243 481.772 C 1310.960 528.751, 1310.888 528.132, 1317.014 531.306 C 1319.865 532.783, 1322.368 533.052, 1330.753 532.781 C 1340.389 532.469, 1341.170 532.284, 1343.753 529.703 L 1346.500 526.958 1346.794 499.094 C 1347.075 472.415, 1347.176 471.151, 1349.150 469.365 C 1351.024 467.670, 1353.121 467.500, 1372.189 467.500 L 1393.165 467.500 1395.833 470.635 C 1397.300 472.360, 1401.157 477.985, 1404.405 483.135 C 1407.653 488.286, 1412.786 496.325, 1415.812 501 C 1421.012 509.036, 1422.563 511.445, 1431.349 525.147 C 1435.878 532.209, 1437.999 533, 1452.399 532.998 C 1465.967 532.997, 1470.315 531.413, 1470.810 526.291 C 1470.999 524.345, 1470.373 521.984, 1469.221 520.291 C 1465.646 515.039, 1454.318 497.505, 1451.407 492.719 C 1449.808 490.090, 1447.263 486.315, 1445.750 484.332 C 1444.237 482.348, 1443 480.437, 1443 480.085 C 1443 479.733, 1440.750 476.320, 1438 472.500 C 1435.250 468.680, 1433 464.807, 1433 463.894 C 1433 461.900, 1438.748 456.795, 1446.393 452 C 1453.297 447.670, 1457.514 442.693, 1462.492 433 L 1466.343 425.500 1466.390 408 L 1466.437 390.500 1463.160 383 C 1458.153 371.542, 1457.877 371.095, 1452.349 365.479 C 1440.453 353.390, 1427.048 347.336, 1409.099 345.946 C 1393.945 344.772, 1322.447 344.907, 1318.255 346.117 M 1602.595 346.527 C 1598.906 348.451, 1597.296 350.562, 1595.995 355.185 C 1595.425 357.212, 1593.848 360.812, 1592.491 363.185 C 1591.134 365.558, 1590.019 368.224, 1590.012 369.109 C 1590.005 369.994, 1588.650 373.248, 1587 376.340 C 1585.350 379.432, 1584 382.488, 1584 383.131 C 1584 383.774, 1582.908 386.595, 1581.573 389.400 C 1576.559 399.935, 1573.214 407.623, 1571.994 411.419 C 1571.301 413.574, 1569.940 416.724, 1568.969 418.419 C 1567.999 420.113, 1566.886 422.625, 1566.496 424 C 1566.107 425.375, 1564.551 429.200, 1563.039 432.500 C 1561.528 435.800, 1559.048 441.425, 1557.529 445 C 1554.066 453.153, 1549.726 463.346, 1547.617 468.284 C 1545.164 474.025, 1545.538 477.692, 1548.923 481.077 C 1551.833 483.987, 1551.901 484, 1563.989 484 C 1570.667 484, 1577.006 483.532, 1578.075 482.960 C 1579.862 482.004, 1586.720 468.873, 1588.501 463 C 1588.917 461.625, 1590.325 458.479, 1591.629 456.008 C 1592.933 453.537, 1594 451.098, 1594 450.588 C 1594 450.077, 1595.394 446.474, 1597.097 442.580 C 1606.352 421.423, 1611.392 409.392, 1612.586 405.604 C 1614.931 398.169, 1621.042 400.695, 1624.657 410.593 C 1628.249 420.427, 1631.920 429.294, 1634.015 433.198 C 1635.107 435.232, 1636 437.518, 1636 438.279 C 1636 439.039, 1637.124 441.875, 1638.498 444.581 C 1639.872 447.286, 1641.509 451.075, 1642.134 453 C 1642.760 454.925, 1644.336 458.521, 1645.636 460.992 C 1646.936 463.463, 1648 466.166, 1648 467 C 1648 467.834, 1649.064 470.537, 1650.364 473.008 C 1651.664 475.479, 1653.304 479.300, 1654.009 481.500 C 1654.714 483.700, 1656.125 486.573, 1657.145 487.885 C 1659.244 490.584, 1659.602 495.998, 1657.800 497.800 C 1656.894 498.706, 1642.400 499, 1598.701 499 C 1533.685 499, 1535.107 498.852, 1532.368 505.922 C 1531.605 507.890, 1529.841 511.627, 1528.446 514.226 C 1527.052 516.826, 1525.647 521.188, 1525.323 523.920 C 1524.781 528.498, 1524.975 529.129, 1527.790 531.944 L 1530.846 535 1616.473 535 C 1709.004 535, 1705.654 535.188, 1709.439 529.783 C 1711.690 526.569, 1711.386 524.005, 1708 517.660 C 1706.350 514.568, 1705 511.421, 1705 510.668 C 1705 509.914, 1703.946 507.316, 1702.658 504.894 C 1701.371 502.472, 1699.724 498.695, 1699 496.500 C 1698.276 494.305, 1696.629 490.528, 1695.342 488.106 C 1694.054 485.684, 1693 483.086, 1693 482.332 C 1693 481.579, 1691.650 478.432, 1690 475.340 C 1688.350 472.248, 1687 469.157, 1687 468.472 C 1687 467.326, 1683.667 459.404, 1679.019 449.500 C 1676.424 443.970, 1672.141 433.488, 1670.026 427.487 C 1669.054 424.730, 1667.302 420.905, 1666.133 418.987 C 1664.964 417.069, 1664.006 414.821, 1664.004 413.992 C 1664.002 413.163, 1662.936 410.463, 1661.636 407.992 C 1660.336 405.521, 1658.760 401.925, 1658.134 400 C 1657.509 398.075, 1655.872 394.286, 1654.498 391.581 C 1653.124 388.875, 1652 386.054, 1652 385.312 C 1652 384.569, 1650.650 381.432, 1649 378.340 C 1647.350 375.248, 1645.986 371.994, 1645.969 371.109 C 1645.952 370.224, 1644.829 367.700, 1643.474 365.500 C 1642.119 363.300, 1641.008 360.801, 1641.005 359.946 C 1641.002 359.092, 1639.810 356.004, 1638.355 353.085 C 1634.800 345.951, 1632.314 344.998, 1617.282 345.006 C 1608.712 345.011, 1604.708 345.425, 1602.595 346.527 M 1782.049 346.017 C 1776.593 347.302, 1776 348.925, 1776 362.580 C 1776 373.098, 1776.263 375.104, 1777.911 377.139 L 1779.821 379.500 1825.161 380 L 1870.500 380.500 1877 384.061 C 1885.671 388.813, 1887.201 391.722, 1886.800 402.702 C 1886.506 410.735, 1886.419 410.987, 1882.579 414.919 C 1875.415 422.255, 1877.418 422, 1827.022 422 L 1781.846 422 1778.923 424.923 C 1776.042 427.804, 1776 428.007, 1776 438.989 C 1776 445.117, 1776.455 450.982, 1777.012 452.022 C 1778.923 455.593, 1784.218 455.989, 1830.113 455.994 L 1874.727 456 1882.113 459.750 C 1897.412 467.517, 1900.923 479.067, 1891.677 491.209 C 1885.925 498.761, 1888.352 498.441, 1832.500 499 L 1782.500 499.500 1779.250 501.818 L 1776 504.136 1776 516.568 C 1776 530.094, 1776.633 531.769, 1782.605 534.040 C 1784.067 534.596, 1802.079 535, 1825.367 535 C 1863.331 535, 1866.421 534.863, 1880.052 532.573 C 1899.830 529.250, 1908.976 525.074, 1918.073 515.213 C 1921.995 510.961, 1925.215 506.347, 1926.335 503.373 C 1927.344 500.693, 1928.863 496.700, 1929.711 494.500 C 1930.763 491.768, 1931.267 486.854, 1931.300 479 L 1931.350 467.500 1927.171 459.265 C 1924.506 454.013, 1920.639 448.535, 1916.496 444.143 C 1912.923 440.356, 1910 436.505, 1910 435.586 C 1910 434.667, 1911.802 431.475, 1914.005 428.493 C 1916.208 425.511, 1918.424 422.043, 1918.929 420.786 C 1919.828 418.546, 1922.554 400.471, 1922.289 398.500 C 1919.797 379.957, 1919.854 380.174, 1915.738 373.801 C 1907.184 360.558, 1900.584 354.806, 1888.347 349.929 C 1881.825 347.331, 1878.389 346.657, 1868 345.938 C 1852.386 344.859, 1786.713 344.919, 1782.049 346.017 M 2264.376 346.024 C 2258.144 347.954, 2258.523 342.270, 2258.250 437.903 C 2258.052 507.347, 2258.265 526.018, 2259.276 528 C 2261.013 531.403, 2265.933 532.876, 2275.782 532.944 C 2284.863 533.005, 2290.169 531.421, 2291.936 528.120 C 2292.713 526.668, 2292.955 500.461, 2292.766 438.063 L 2292.500 350.055 2290.311 347.866 C 2288.392 345.947, 2286.849 345.639, 2277.811 345.367 C 2272.140 345.196, 2266.094 345.492, 2264.376 346.024 M 2515 345.673 C 2512.111 346.262, 2509 348.768, 2509 350.506 C 2509 351.164, 2507.948 353.682, 2506.662 356.101 C 2505.377 358.520, 2503.542 362.857, 2502.586 365.738 C 2501.630 368.619, 2500.466 371.212, 2500 371.500 C 2499.534 371.788, 2498.380 374.350, 2497.436 377.193 C 2496.492 380.036, 2494.932 383.743, 2493.969 385.431 C 2493.007 387.119, 2491.652 390.289, 2490.958 392.476 C 2490.264 394.663, 2488.866 397.813, 2487.852 399.476 C 2486.837 401.139, 2486.006 403.175, 2486.004 404 C 2486.002 404.825, 2484.710 408.200, 2483.133 411.500 C 2476.702 424.954, 2474 431.102, 2474 432.284 C 2474 432.969, 2473.043 435.315, 2471.874 437.496 C 2470.705 439.678, 2469.120 443.271, 2468.354 445.482 C 2467.587 447.692, 2466.092 451.300, 2465.031 453.500 C 2455.661 472.943, 2454.953 476.782, 2459.916 481.216 C 2462.973 483.948, 2463.267 484, 2475.572 484 L 2488.113 484 2491.094 480.750 C 2492.733 478.962, 2494.736 475.250, 2495.543 472.500 C 2496.351 469.750, 2497.906 466.150, 2498.999 464.500 C 2500.092 462.850, 2500.990 460.758, 2500.993 459.852 C 2500.997 458.945, 2502.350 455.637, 2504 452.500 C 2505.650 449.363, 2507 446.256, 2507 445.595 C 2507 444.934, 2508.085 442.167, 2509.410 439.446 C 2511.709 434.728, 2515.085 426.776, 2518.939 417 C 2519.914 414.525, 2522.015 409.800, 2523.606 406.500 C 2527.662 398.090, 2529.442 398.343, 2534.180 408 C 2536.203 412.125, 2537.891 416.179, 2537.930 417.008 C 2537.968 417.837, 2539.064 420.537, 2540.364 423.008 C 2541.664 425.479, 2543.307 429.289, 2544.016 431.476 C 2544.725 433.663, 2546.134 436.813, 2547.148 438.476 C 2548.163 440.139, 2548.994 442.242, 2548.996 443.148 C 2548.998 444.055, 2550.350 447.363, 2552 450.500 C 2553.650 453.637, 2555 456.713, 2555 457.337 C 2555 457.961, 2556.100 460.728, 2557.445 463.486 C 2559.674 468.059, 2561.120 471.476, 2567.182 486.500 C 2568.292 489.250, 2569.446 492.583, 2569.746 493.906 C 2570.910 499.029, 2571.254 499, 2508.444 499 C 2451.823 499, 2450.202 499.053, 2447.732 500.996 C 2444.770 503.326, 2440.448 510.362, 2439.396 514.567 C 2438.992 516.180, 2437.811 519.425, 2436.772 521.777 C 2434.547 526.814, 2435.031 529.007, 2439.130 532.456 L 2442.153 535 2527.709 535 C 2611.164 535, 2613.342 534.952, 2616.460 533.025 C 2621.966 529.622, 2622.335 527.307, 2618.885 517.809 C 2617.225 513.239, 2615.290 508.600, 2614.585 507.500 C 2613.880 506.400, 2612.735 503.700, 2612.040 501.500 C 2611.345 499.300, 2610.116 496.449, 2609.309 495.163 C 2608.501 493.878, 2607.023 490.503, 2606.024 487.663 C 2604.034 482.008, 2600.068 472.301, 2596.559 464.500 C 2595.322 461.750, 2593.148 456.800, 2591.729 453.500 C 2590.309 450.200, 2587.765 444.412, 2586.074 440.638 C 2584.383 436.863, 2583 433.218, 2583 432.537 C 2583 431.855, 2581.946 429.316, 2580.658 426.894 C 2579.371 424.472, 2577.727 420.692, 2577.007 418.495 C 2576.286 416.298, 2575.096 413.576, 2574.362 412.447 C 2573.628 411.317, 2572.159 407.942, 2571.097 404.947 C 2570.035 401.951, 2568.229 397.717, 2567.083 395.539 C 2565.938 393.360, 2564.998 390.885, 2564.995 390.039 C 2564.992 389.192, 2563.881 386.700, 2562.526 384.500 C 2561.171 382.300, 2560.048 379.814, 2560.031 378.975 C 2560.014 378.136, 2558.664 374.761, 2557.031 371.475 C 2555.399 368.189, 2554.049 364.910, 2554.031 364.188 C 2553.982 362.145, 2546.952 348.205, 2545.263 346.804 C 2543.714 345.518, 2520.089 344.635, 2515 345.673 M 2750.392 346.385 C 2748.264 347.343, 2745.355 350.736, 2741.169 357.142 C 2737.805 362.289, 2734.120 367.850, 2732.979 369.500 C 2731.211 372.057, 2727.649 377.396, 2719.300 390 C 2718.389 391.375, 2715.325 396.100, 2712.490 400.500 C 2706.379 409.984, 2705.935 410.661, 2699.585 420.153 C 2673.057 459.805, 2673 459.915, 2673 471.308 C 2673 481.312, 2673.611 482.979, 2678.355 485.911 C 2681.612 487.923, 2682.994 488, 2715.913 488 L 2750.091 488 2752.545 490.455 C 2754.947 492.856, 2755 493.257, 2755 508.878 C 2755 524.637, 2755.034 524.887, 2757.613 527.952 L 2760.227 531.058 2772.825 530.779 L 2785.424 530.500 2787.712 527.102 C 2789.856 523.919, 2790 522.709, 2790 507.925 L 2790 492.145 2792.635 490.073 C 2794.084 488.933, 2796.680 488, 2798.403 488 C 2802.572 488, 2808.989 483.603, 2809.036 480.714 C 2809.055 479.496, 2809.240 475.800, 2809.445 472.500 C 2810 463.597, 2808.680 459.551, 2804.590 457.610 C 2802.724 456.724, 2799.657 456, 2797.773 456 C 2795.499 456, 2793.627 455.232, 2792.202 453.715 C 2790.073 451.448, 2790.052 451.011, 2789.777 401.237 L 2789.500 351.044 2786.729 348.272 C 2783.970 345.512, 2783.890 345.499, 2768.729 345.243 C 2757.372 345.052, 2752.710 345.342, 2750.392 346.385 M 3147.500 345.716 C 3144.169 346.522, 3141.149 349.969, 3133.235 362 C 3129.075 368.325, 3123.608 376.581, 3121.086 380.347 C 3118.563 384.113, 3115.869 388.163, 3115.097 389.347 C 3111.010 395.617, 3099.753 412.798, 3087.805 431 C 3068.041 461.110, 3069.091 458.881, 3068.920 471.076 L 3068.775 481.406 3072.373 484.703 L 3075.971 488 3110.051 488 C 3143.785 488, 3147.160 488.293, 3149.235 491.400 C 3149.639 492.005, 3149.976 499.385, 3149.985 507.800 C 3150.001 523.959, 3150.856 527.782, 3154.945 529.970 C 3157.011 531.076, 3177.771 531.409, 3180.455 530.379 C 3184.060 528.995, 3184.999 524.654, 3185.015 509.300 C 3185.034 489.924, 3185.066 489.863, 3196.378 487.499 C 3197.961 487.168, 3200.549 485.605, 3202.128 484.026 C 3204.841 481.313, 3205 480.682, 3205 472.642 C 3205 467.961, 3204.569 462.997, 3204.043 461.613 C 3202.861 458.504, 3198.229 456, 3193.660 456 C 3191.765 456, 3189.162 455.142, 3187.861 454.089 L 3185.500 452.178 3185 401.793 C 3184.446 345.917, 3184.577 346.965, 3177.943 345.639 C 3174.329 344.916, 3150.558 344.976, 3147.500 345.716 M 2060 348.488 C 2056.425 349.821, 2051.600 351.395, 2049.277 351.987 C 2046.955 352.578, 2042.379 355.186, 2039.108 357.781 C 2035.837 360.377, 2030.584 364.525, 2027.433 367 C 2022.059 371.221, 2008 388.001, 2008 390.194 C 2008 390.742, 2007.148 392.387, 2006.108 393.849 C 2004.194 396.536, 1998.583 410.394, 1997.543 415 C 1994.319 429.281, 1995.417 460.894, 1999.506 471.500 C 2000.778 474.800, 2002.138 478.625, 2002.529 480 C 2003.605 483.787, 2012.643 498.171, 2018.422 505.293 C 2022.874 510.780, 2040.593 524.072, 2045.398 525.529 C 2047.654 526.213, 2051.075 527.458, 2053 528.297 C 2054.925 529.135, 2060.487 531.082, 2065.360 532.624 L 2074.221 535.427 2077.610 531.728 L 2081 528.029 2081 517.712 C 2081 507.785, 2080.885 507.237, 2077.952 503.249 C 2074.753 498.900, 2074.413 498.712, 2066.666 497.014 C 2064.007 496.431, 2059.507 494.458, 2056.666 492.629 C 2051.016 488.992, 2042 479.861, 2042 477.775 C 2042 477.054, 2040.916 474.870, 2039.592 472.921 C 2032.451 462.411, 2028.866 445.990, 2030.830 432.783 C 2033.311 416.103, 2038.374 405.599, 2049.043 395 C 2055.612 388.473, 2057.014 387.589, 2069 382.414 C 2079.853 377.727, 2080.443 376.820, 2080.827 364.230 C 2081.128 354.319, 2080.973 353.233, 2078.793 350 C 2076.676 346.861, 2075.920 346.478, 2071.466 346.282 C 2068.210 346.140, 2064.262 346.899, 2060 348.488 M 2102.123 348.570 C 2101.011 349.984, 2099.793 353.198, 2099.416 355.712 C 2098.706 360.448, 2099.453 373.411, 2100.610 376.426 C 2101.256 378.109, 2114.613 385, 2117.231 385 C 2118.552 385, 2127.394 391.249, 2131.860 395.339 C 2134.897 398.120, 2140.648 406.950, 2144.095 414.126 C 2147.686 421.601, 2149.426 435.067, 2148.490 448.145 C 2147.749 458.496, 2147.583 458.948, 2137.479 478.085 C 2132.966 486.632, 2121.815 495.079, 2112.071 497.330 C 2101.642 499.739, 2099.016 503.951, 2099.006 518.282 C 2098.999 527.003, 2100.679 532.223, 2104.078 534.042 C 2105.951 535.044, 2107.761 534.789, 2114.913 532.514 C 2119.636 531.012, 2126.031 528.707, 2129.125 527.392 C 2132.219 526.076, 2135.377 525, 2136.144 525 C 2137.753 525, 2155.275 512.096, 2159.020 508.153 C 2162.621 504.362, 2169.455 495.023, 2171.207 491.500 C 2172.027 489.850, 2173.423 487.150, 2174.310 485.500 C 2180.416 474.130, 2182.836 464.479, 2184.558 444.620 C 2185.400 434.907, 2181.808 410.543, 2178.591 404.140 C 2177.308 401.588, 2175.948 398.496, 2175.568 397.270 C 2174.437 393.615, 2168.679 384.593, 2163.057 377.663 C 2158.346 371.857, 2139.652 355.894, 2134.500 353.279 C 2133.400 352.720, 2130.925 351.977, 2129 351.628 C 2127.075 351.278, 2122.800 349.880, 2119.500 348.520 C 2111.270 345.129, 2104.816 345.147, 2102.123 348.570 M 2916 349 C 2912.425 350.619, 2909.043 351.957, 2908.486 351.972 C 2907.928 351.987, 2904.731 354.217, 2901.382 356.927 C 2891.861 364.630, 2885.226 374.886, 2879.394 390.911 C 2873.523 407.046, 2871.578 436.956, 2874.479 466.500 C 2875.587 477.790, 2876.570 482.984, 2878.452 487.500 C 2879.827 490.800, 2880.963 494.120, 2880.976 494.878 C 2881.039 498.521, 2892.622 516.153, 2897.820 520.519 C 2906.702 527.978, 2923.593 534.502, 2937.086 535.685 C 2946.044 536.471, 2964.789 531.728, 2973.752 526.408 C 2982.549 521.187, 2993.069 509.380, 2995.683 501.795 C 2996.447 499.576, 2997.804 496.351, 2998.698 494.630 C 2999.591 492.908, 3001.651 486.325, 3003.275 480 C 3006.064 469.141, 3006.255 467.107, 3006.700 443.494 L 3007.171 418.489 3003.543 403.046 C 3001.548 394.552, 2999.491 387.091, 2998.971 386.465 C 2998.452 385.839, 2997.386 383.512, 2996.603 381.293 C 2992.784 370.468, 2976.781 354.940, 2965.241 350.864 C 2953.029 346.549, 2949.708 346, 2936.032 346.028 C 2923.222 346.055, 2922.153 346.213, 2916 349 M 2933.734 381.033 C 2923.576 383.575, 2917.494 389.143, 2913.016 400 C 2908.710 410.441, 2907.655 421.011, 2908.312 447.110 C 2908.816 467.115, 2909.039 469.157, 2911.314 474.610 C 2912.665 477.849, 2914.095 482.017, 2914.491 483.871 C 2915.568 488.908, 2920.802 495.664, 2926.418 499.269 C 2930.515 501.897, 2932.405 502.467, 2937.034 502.467 C 2945.252 502.467, 2956.932 496.451, 2962.736 489.230 C 2965.066 486.331, 2967.168 482.956, 2967.406 481.730 C 2967.645 480.503, 2968.889 475, 2970.170 469.500 C 2972.231 460.657, 2972.494 457.071, 2972.451 438.500 C 2972.406 419.497, 2972.192 416.905, 2970.201 411.246 C 2968.990 407.806, 2967.990 404.206, 2967.978 403.246 C 2967.941 400.329, 2964.459 393.593, 2960.883 389.520 C 2954.889 382.693, 2942.536 378.831, 2933.734 381.033 M 2747 406 C 2745.900 407.100, 2745 408.473, 2745 409.052 C 2745 409.965, 2733.985 426.512, 2721.748 443.982 C 2718.961 447.959, 2717.989 450.291, 2718.204 452.482 L 2718.500 455.500 2734.573 455.774 C 2756.080 456.140, 2754.410 458.274, 2754.804 429.932 C 2755.004 415.509, 2754.737 407.377, 2754.019 406.035 C 2752.633 403.445, 2749.570 403.430, 2747 406 M 3142.537 406.250 C 3141.681 407.488, 3136.484 415.250, 3130.989 423.500 C 3125.493 431.750, 3119.219 440.975, 3117.047 444 C 3114.875 447.025, 3113.076 450.423, 3113.049 451.550 C 3112.953 455.566, 3114.675 456, 3130.700 456 C 3151.587 456, 3150 458.173, 3150 429.582 C 3150 417.252, 3149.727 406.452, 3149.393 405.582 C 3148.497 403.248, 3144.333 403.654, 3142.537 406.250 M 2316.846 501.165 C 2312.026 503.959, 2311 506.546, 2311 515.898 C 2311 532.919, 2311.183 533, 2349.552 533 C 2387.336 533, 2387 533.148, 2387 516.500 C 2387 506.399, 2386.062 503.618, 2381.775 501.004 C 2378.698 499.128, 2376.743 499.009, 2349.500 499.027 C 2321.793 499.045, 2320.337 499.140, 2316.846 501.165" stroke="none" fill="#2f7877" fill-rule="evenodd"/></svg>